M48
; DRILL file {KiCad 9.0.3} date 2025-11-24T21:16:17-0500
; FORMAT={-:-/ absolute / inch / decimal}
; #@! TF.CreationDate,2025-11-24T21:16:17-05:00
; #@! TF.GenerationSoftware,Kicad,Pcbnew,9.0.3
; #@! TF.FileFunction,Plated,1,2,PTH
FMAT,2
INCH
; #@! TA.AperFunction,Plated,PTH,ViaDrill
T1C0.0118
; #@! TA.AperFunction,Plated,PTH,ComponentDrill
T2C0.0394
; #@! TA.AperFunction,Plated,PTH,ComponentDrill
T3C0.0984
%
G90
G05
T1
X4.4902Y-2.4016
X4.4902Y-2.9026
X4.6447Y-2.3986
X4.6457Y-2.9045
X4.6462Y-3.0069
X4.6469Y-3.0354
X4.6469Y-3.064
X4.6469Y-3.0965
X4.6764Y-3.0069
X4.6772Y-3.0354
X4.6772Y-3.064
X4.6772Y-3.0965
X4.7047Y-2.5098
X4.7067Y-3.0069
X4.7074Y-3.0354
X4.7074Y-3.064
X4.7074Y-3.0965
X4.7106Y-2.814
X4.7234Y-2.6673
X4.7274Y-2.6329
X4.737Y-3.0069
X4.7377Y-3.0354
X4.7377Y-3.064
X4.7377Y-3.0965
X4.7648Y-2.7146
X4.7672Y-3.0069
X4.768Y-3.0354
X4.768Y-3.064
X4.768Y-3.0965
X4.7815Y-2.3002
X4.7874Y-2.373
X4.7975Y-3.0069
X4.7982Y-3.0354
X4.7982Y-3.064
X4.7982Y-3.0965
X4.8278Y-3.0069
X4.8285Y-3.0354
X4.8285Y-3.064
X4.8285Y-3.0965
X4.8504Y-2.2323
X4.858Y-3.0069
X4.8583Y-2.438
X4.8588Y-3.0354
X4.8588Y-3.064
X4.8588Y-3.0965
X4.8883Y-3.0069
X4.889Y-3.0354
X4.889Y-3.064
X4.889Y-3.0965
X4.9336Y-2.6206
X5.0108Y-2.9596
X5.0876Y-2.7018
X5.0994Y-2.9646
X5.124Y-2.2343
X5.1248Y-2.2628
X5.1248Y-2.2913
X5.1248Y-2.3238
X5.1543Y-2.2343
X5.155Y-2.2628
X5.155Y-2.2913
X5.155Y-2.3238
X5.1845Y-2.2343
X5.1853Y-2.2628
X5.1853Y-2.2913
X5.1853Y-2.3238
X5.2148Y-2.2343
X5.2156Y-2.2628
X5.2156Y-2.2913
X5.2156Y-2.3238
X5.2451Y-2.2343
X5.2458Y-2.2628
X5.2458Y-2.2913
X5.2458Y-2.3238
X5.2628Y-2.5748
X5.2753Y-2.2343
X5.2761Y-2.2628
X5.2761Y-2.2913
X5.2761Y-2.3238
X5.2766Y-2.9518
X5.2781Y-2.6265
X5.45Y-2.3551
X5.5118Y-2.9744
X5.5404Y-3.002
X5.6299Y-2.8465
X5.6663Y-2.8671
X5.7343Y-2.7274
X5.7539Y-2.6978
X5.8238Y-2.9656
X5.8425Y-2.9055
X5.8558Y-2.2333
X5.8565Y-2.2618
X5.8565Y-2.2904
X5.8565Y-2.3228
X5.8861Y-2.2333
X5.8868Y-2.2618
X5.8868Y-2.2904
X5.8868Y-2.3228
X5.9163Y-2.2333
X5.9171Y-2.2618
X5.9171Y-2.2904
X5.9171Y-2.3228
X5.9466Y-2.2333
X5.9473Y-2.2618
X5.9473Y-2.2904
X5.9473Y-2.3228
X5.9769Y-2.2333
X5.9776Y-2.2618
X5.9776Y-2.2904
X5.9776Y-2.3228
X6.0071Y-2.2333
X6.0079Y-2.2618
X6.0079Y-2.2904
X6.0079Y-2.3228
X6.0339Y-2.6418
X6.0374Y-2.2333
X6.0381Y-2.2618
X6.0381Y-2.2904
X6.0381Y-2.3228
X6.0677Y-2.2333
X6.0684Y-2.2618
X6.0684Y-2.2904
X6.0684Y-2.3228
X6.0837Y-2.5394
X6.0979Y-2.2333
X6.0987Y-2.2618
X6.0987Y-2.2904
X6.0987Y-2.3228
X6.1284Y-2.2333
X6.1292Y-2.2618
X6.1292Y-2.2904
X6.1292Y-2.3228
X6.1526Y-2.5394
X6.1587Y-2.2333
X6.1594Y-2.2618
X6.1594Y-2.2904
X6.1594Y-2.3228
X6.189Y-2.2333
X6.1897Y-2.2618
X6.1897Y-2.2904
X6.1897Y-2.3228
X6.2192Y-2.2333
X6.22Y-2.2618
X6.22Y-2.2904
X6.22Y-2.3228
X6.2495Y-2.2333
X6.2502Y-2.2618
X6.2502Y-2.2904
X6.2502Y-2.3228
X6.2798Y-2.2333
X6.2805Y-2.2618
X6.2805Y-2.2904
X6.2805Y-2.3228
X6.31Y-2.2333
X6.3108Y-2.2618
X6.3108Y-2.2904
X6.3108Y-2.3228
X6.3403Y-2.2333
X6.341Y-2.2618
X6.341Y-2.2904
X6.341Y-2.3228
X6.3706Y-2.2333
X6.3713Y-2.2618
X6.3713Y-2.2904
X6.3713Y-2.3228
X6.3819Y-2.7539
X6.4577Y-2.3425
X6.5485Y-2.2333
X6.5492Y-2.2618
X6.5492Y-2.2904
X6.5492Y-2.3228
X6.5632Y-2.7512
X6.5787Y-2.2333
X6.5795Y-2.2618
X6.5795Y-2.2904
X6.5795Y-2.3228
X6.609Y-2.2333
X6.6097Y-2.2618
X6.6097Y-2.2904
X6.6097Y-2.3228
X6.6393Y-2.2333
X6.64Y-2.2618
X6.64Y-2.2904
X6.64Y-2.3228
X6.6695Y-2.2333
X6.6703Y-2.2618
X6.6703Y-2.2904
X6.6703Y-2.3228
X6.6998Y-2.2333
X6.7005Y-2.2618
X6.7005Y-2.2904
X6.7005Y-2.3228
X6.7301Y-2.2333
X6.7308Y-2.2618
X6.7308Y-2.2904
X6.7308Y-2.3228
X6.7603Y-2.2333
X6.7611Y-2.2618
X6.7611Y-2.2904
X6.7611Y-2.3228
X6.7906Y-2.2333
X6.7913Y-2.2618
X6.7913Y-2.2904
X6.7913Y-2.3228
X7.0357Y-2.2333
X7.0364Y-2.2618
X7.0364Y-2.2904
X7.0364Y-2.3228
X7.0659Y-2.2333
X7.0667Y-2.2618
X7.0667Y-2.2904
X7.0667Y-2.3228
X7.0778Y-2.6083
X7.0962Y-2.2333
X7.0969Y-2.2618
X7.0969Y-2.2904
X7.0969Y-2.3228
X7.1265Y-2.2333
X7.1272Y-2.2618
X7.1272Y-2.2904
X7.1272Y-2.3228
X7.1567Y-2.2333
X7.1575Y-2.2618
X7.1575Y-2.2904
X7.1575Y-2.3228
X7.187Y-2.2333
X7.1877Y-2.2618
X7.1877Y-2.2904
X7.1877Y-2.3228
X7.2173Y-2.2333
X7.218Y-2.2618
X7.218Y-2.2904
X7.218Y-2.3228
X7.2475Y-2.2333
X7.2483Y-2.2618
X7.2483Y-2.2904
X7.2483Y-2.3228
X7.2778Y-2.2333
X7.2785Y-2.2618
X7.2785Y-2.2904
X7.2785Y-2.3228
T2
X5.4317Y-2.2638
X5.5317Y-2.2638
X5.6317Y-2.2638
X5.7317Y-2.2638
X7.4715Y-2.5591
X7.4715Y-2.6591
X7.4715Y-2.7591
X7.4715Y-2.8591
T3
X4.5108Y-2.2766
X4.5108Y-3.0384
X7.438Y-2.2766
X7.438Y-3.0384
M30
