%TF.GenerationSoftware,KiCad,Pcbnew,9.0.3*%
%TF.CreationDate,2025-11-24T21:16:14-05:00*%
%TF.ProjectId,RedPink_STM32C09_Board,52656450-696e-46b5-9f53-544d33324330,rev?*%
%TF.SameCoordinates,Original*%
%TF.FileFunction,Legend,Top*%
%TF.FilePolarity,Positive*%
%FSLAX46Y46*%
G04 Gerber Fmt 4.6, Leading zero omitted, Abs format (unit mm)*
G04 Created by KiCad (PCBNEW 9.0.3) date 2025-11-24 21:16:14*
%MOMM*%
%LPD*%
G01*
G04 APERTURE LIST*
%ADD10C,0.100000*%
%ADD11C,0.125000*%
%ADD12C,0.150000*%
%ADD13C,0.254000*%
%ADD14C,0.120000*%
%ADD15C,0.300000*%
%ADD16C,0.000000*%
%ADD17C,0.200000*%
%ADD18C,0.250000*%
G04 APERTURE END LIST*
D10*
X174595214Y-72254342D02*
X186014977Y-72254342D01*
X186014977Y-78275145D01*
X174595214Y-78275145D01*
X174595214Y-72254342D01*
D11*
X175392950Y-74347962D02*
X175364378Y-74376534D01*
X175364378Y-74376534D02*
X175278664Y-74405105D01*
X175278664Y-74405105D02*
X175221521Y-74405105D01*
X175221521Y-74405105D02*
X175135807Y-74376534D01*
X175135807Y-74376534D02*
X175078664Y-74319391D01*
X175078664Y-74319391D02*
X175050093Y-74262248D01*
X175050093Y-74262248D02*
X175021521Y-74147962D01*
X175021521Y-74147962D02*
X175021521Y-74062248D01*
X175021521Y-74062248D02*
X175050093Y-73947962D01*
X175050093Y-73947962D02*
X175078664Y-73890819D01*
X175078664Y-73890819D02*
X175135807Y-73833676D01*
X175135807Y-73833676D02*
X175221521Y-73805105D01*
X175221521Y-73805105D02*
X175278664Y-73805105D01*
X175278664Y-73805105D02*
X175364378Y-73833676D01*
X175364378Y-73833676D02*
X175392950Y-73862248D01*
X175621521Y-74233676D02*
X175907236Y-74233676D01*
X175564378Y-74405105D02*
X175764378Y-73805105D01*
X175764378Y-73805105D02*
X175964378Y-74405105D01*
X176164379Y-74405105D02*
X176164379Y-73805105D01*
X176164379Y-73805105D02*
X176507236Y-74405105D01*
X176507236Y-74405105D02*
X176507236Y-73805105D01*
X176992950Y-74090819D02*
X177078664Y-74119391D01*
X177078664Y-74119391D02*
X177107235Y-74147962D01*
X177107235Y-74147962D02*
X177135807Y-74205105D01*
X177135807Y-74205105D02*
X177135807Y-74290819D01*
X177135807Y-74290819D02*
X177107235Y-74347962D01*
X177107235Y-74347962D02*
X177078664Y-74376534D01*
X177078664Y-74376534D02*
X177021521Y-74405105D01*
X177021521Y-74405105D02*
X176792950Y-74405105D01*
X176792950Y-74405105D02*
X176792950Y-73805105D01*
X176792950Y-73805105D02*
X176992950Y-73805105D01*
X176992950Y-73805105D02*
X177050093Y-73833676D01*
X177050093Y-73833676D02*
X177078664Y-73862248D01*
X177078664Y-73862248D02*
X177107235Y-73919391D01*
X177107235Y-73919391D02*
X177107235Y-73976534D01*
X177107235Y-73976534D02*
X177078664Y-74033676D01*
X177078664Y-74033676D02*
X177050093Y-74062248D01*
X177050093Y-74062248D02*
X176992950Y-74090819D01*
X176992950Y-74090819D02*
X176792950Y-74090819D01*
X177650093Y-74005105D02*
X177650093Y-74405105D01*
X177392950Y-74005105D02*
X177392950Y-74319391D01*
X177392950Y-74319391D02*
X177421521Y-74376534D01*
X177421521Y-74376534D02*
X177478664Y-74405105D01*
X177478664Y-74405105D02*
X177564378Y-74405105D01*
X177564378Y-74405105D02*
X177621521Y-74376534D01*
X177621521Y-74376534D02*
X177650093Y-74347962D01*
X177907235Y-74376534D02*
X177964378Y-74405105D01*
X177964378Y-74405105D02*
X178078664Y-74405105D01*
X178078664Y-74405105D02*
X178135807Y-74376534D01*
X178135807Y-74376534D02*
X178164378Y-74319391D01*
X178164378Y-74319391D02*
X178164378Y-74290819D01*
X178164378Y-74290819D02*
X178135807Y-74233676D01*
X178135807Y-74233676D02*
X178078664Y-74205105D01*
X178078664Y-74205105D02*
X177992950Y-74205105D01*
X177992950Y-74205105D02*
X177935807Y-74176534D01*
X177935807Y-74176534D02*
X177907235Y-74119391D01*
X177907235Y-74119391D02*
X177907235Y-74090819D01*
X177907235Y-74090819D02*
X177935807Y-74033676D01*
X177935807Y-74033676D02*
X177992950Y-74005105D01*
X177992950Y-74005105D02*
X178078664Y-74005105D01*
X178078664Y-74005105D02*
X178135807Y-74033676D01*
X178878664Y-74176534D02*
X179335807Y-74176534D01*
X180078664Y-73805105D02*
X180078664Y-74290819D01*
X180078664Y-74290819D02*
X180107235Y-74347962D01*
X180107235Y-74347962D02*
X180135807Y-74376534D01*
X180135807Y-74376534D02*
X180192949Y-74405105D01*
X180192949Y-74405105D02*
X180307235Y-74405105D01*
X180307235Y-74405105D02*
X180364378Y-74376534D01*
X180364378Y-74376534D02*
X180392949Y-74347962D01*
X180392949Y-74347962D02*
X180421521Y-74290819D01*
X180421521Y-74290819D02*
X180421521Y-73805105D01*
X180678663Y-74376534D02*
X180764378Y-74405105D01*
X180764378Y-74405105D02*
X180907235Y-74405105D01*
X180907235Y-74405105D02*
X180964378Y-74376534D01*
X180964378Y-74376534D02*
X180992949Y-74347962D01*
X180992949Y-74347962D02*
X181021520Y-74290819D01*
X181021520Y-74290819D02*
X181021520Y-74233676D01*
X181021520Y-74233676D02*
X180992949Y-74176534D01*
X180992949Y-74176534D02*
X180964378Y-74147962D01*
X180964378Y-74147962D02*
X180907235Y-74119391D01*
X180907235Y-74119391D02*
X180792949Y-74090819D01*
X180792949Y-74090819D02*
X180735806Y-74062248D01*
X180735806Y-74062248D02*
X180707235Y-74033676D01*
X180707235Y-74033676D02*
X180678663Y-73976534D01*
X180678663Y-73976534D02*
X180678663Y-73919391D01*
X180678663Y-73919391D02*
X180707235Y-73862248D01*
X180707235Y-73862248D02*
X180735806Y-73833676D01*
X180735806Y-73833676D02*
X180792949Y-73805105D01*
X180792949Y-73805105D02*
X180935806Y-73805105D01*
X180935806Y-73805105D02*
X181021520Y-73833676D01*
X181478664Y-74090819D02*
X181564378Y-74119391D01*
X181564378Y-74119391D02*
X181592949Y-74147962D01*
X181592949Y-74147962D02*
X181621521Y-74205105D01*
X181621521Y-74205105D02*
X181621521Y-74290819D01*
X181621521Y-74290819D02*
X181592949Y-74347962D01*
X181592949Y-74347962D02*
X181564378Y-74376534D01*
X181564378Y-74376534D02*
X181507235Y-74405105D01*
X181507235Y-74405105D02*
X181278664Y-74405105D01*
X181278664Y-74405105D02*
X181278664Y-73805105D01*
X181278664Y-73805105D02*
X181478664Y-73805105D01*
X181478664Y-73805105D02*
X181535807Y-73833676D01*
X181535807Y-73833676D02*
X181564378Y-73862248D01*
X181564378Y-73862248D02*
X181592949Y-73919391D01*
X181592949Y-73919391D02*
X181592949Y-73976534D01*
X181592949Y-73976534D02*
X181564378Y-74033676D01*
X181564378Y-74033676D02*
X181535807Y-74062248D01*
X181535807Y-74062248D02*
X181478664Y-74090819D01*
X181478664Y-74090819D02*
X181278664Y-74090819D01*
X182307235Y-74233676D02*
X182592950Y-74233676D01*
X182250092Y-74405105D02*
X182450092Y-73805105D01*
X182450092Y-73805105D02*
X182650092Y-74405105D01*
X183107236Y-74405105D02*
X183107236Y-73805105D01*
X183107236Y-74376534D02*
X183050093Y-74405105D01*
X183050093Y-74405105D02*
X182935807Y-74405105D01*
X182935807Y-74405105D02*
X182878664Y-74376534D01*
X182878664Y-74376534D02*
X182850093Y-74347962D01*
X182850093Y-74347962D02*
X182821521Y-74290819D01*
X182821521Y-74290819D02*
X182821521Y-74119391D01*
X182821521Y-74119391D02*
X182850093Y-74062248D01*
X182850093Y-74062248D02*
X182878664Y-74033676D01*
X182878664Y-74033676D02*
X182935807Y-74005105D01*
X182935807Y-74005105D02*
X183050093Y-74005105D01*
X183050093Y-74005105D02*
X183107236Y-74033676D01*
X183650093Y-74405105D02*
X183650093Y-74090819D01*
X183650093Y-74090819D02*
X183621521Y-74033676D01*
X183621521Y-74033676D02*
X183564378Y-74005105D01*
X183564378Y-74005105D02*
X183450093Y-74005105D01*
X183450093Y-74005105D02*
X183392950Y-74033676D01*
X183650093Y-74376534D02*
X183592950Y-74405105D01*
X183592950Y-74405105D02*
X183450093Y-74405105D01*
X183450093Y-74405105D02*
X183392950Y-74376534D01*
X183392950Y-74376534D02*
X183364378Y-74319391D01*
X183364378Y-74319391D02*
X183364378Y-74262248D01*
X183364378Y-74262248D02*
X183392950Y-74205105D01*
X183392950Y-74205105D02*
X183450093Y-74176534D01*
X183450093Y-74176534D02*
X183592950Y-74176534D01*
X183592950Y-74176534D02*
X183650093Y-74147962D01*
X183935807Y-74005105D02*
X183935807Y-74605105D01*
X183935807Y-74033676D02*
X183992950Y-74005105D01*
X183992950Y-74005105D02*
X184107235Y-74005105D01*
X184107235Y-74005105D02*
X184164378Y-74033676D01*
X184164378Y-74033676D02*
X184192950Y-74062248D01*
X184192950Y-74062248D02*
X184221521Y-74119391D01*
X184221521Y-74119391D02*
X184221521Y-74290819D01*
X184221521Y-74290819D02*
X184192950Y-74347962D01*
X184192950Y-74347962D02*
X184164378Y-74376534D01*
X184164378Y-74376534D02*
X184107235Y-74405105D01*
X184107235Y-74405105D02*
X183992950Y-74405105D01*
X183992950Y-74405105D02*
X183935807Y-74376534D01*
X184392949Y-74005105D02*
X184621521Y-74005105D01*
X184478664Y-73805105D02*
X184478664Y-74319391D01*
X184478664Y-74319391D02*
X184507235Y-74376534D01*
X184507235Y-74376534D02*
X184564378Y-74405105D01*
X184564378Y-74405105D02*
X184621521Y-74405105D01*
X185050092Y-74376534D02*
X184992949Y-74405105D01*
X184992949Y-74405105D02*
X184878664Y-74405105D01*
X184878664Y-74405105D02*
X184821521Y-74376534D01*
X184821521Y-74376534D02*
X184792949Y-74319391D01*
X184792949Y-74319391D02*
X184792949Y-74090819D01*
X184792949Y-74090819D02*
X184821521Y-74033676D01*
X184821521Y-74033676D02*
X184878664Y-74005105D01*
X184878664Y-74005105D02*
X184992949Y-74005105D01*
X184992949Y-74005105D02*
X185050092Y-74033676D01*
X185050092Y-74033676D02*
X185078664Y-74090819D01*
X185078664Y-74090819D02*
X185078664Y-74147962D01*
X185078664Y-74147962D02*
X184792949Y-74205105D01*
X185335807Y-74405105D02*
X185335807Y-74005105D01*
X185335807Y-74119391D02*
X185364378Y-74062248D01*
X185364378Y-74062248D02*
X185392950Y-74033676D01*
X185392950Y-74033676D02*
X185450092Y-74005105D01*
X185450092Y-74005105D02*
X185507235Y-74005105D01*
X175392950Y-75371071D02*
X175192950Y-75085357D01*
X175050093Y-75371071D02*
X175050093Y-74771071D01*
X175050093Y-74771071D02*
X175278664Y-74771071D01*
X175278664Y-74771071D02*
X175335807Y-74799642D01*
X175335807Y-74799642D02*
X175364378Y-74828214D01*
X175364378Y-74828214D02*
X175392950Y-74885357D01*
X175392950Y-74885357D02*
X175392950Y-74971071D01*
X175392950Y-74971071D02*
X175364378Y-75028214D01*
X175364378Y-75028214D02*
X175335807Y-75056785D01*
X175335807Y-75056785D02*
X175278664Y-75085357D01*
X175278664Y-75085357D02*
X175050093Y-75085357D01*
X175878664Y-75342500D02*
X175821521Y-75371071D01*
X175821521Y-75371071D02*
X175707236Y-75371071D01*
X175707236Y-75371071D02*
X175650093Y-75342500D01*
X175650093Y-75342500D02*
X175621521Y-75285357D01*
X175621521Y-75285357D02*
X175621521Y-75056785D01*
X175621521Y-75056785D02*
X175650093Y-74999642D01*
X175650093Y-74999642D02*
X175707236Y-74971071D01*
X175707236Y-74971071D02*
X175821521Y-74971071D01*
X175821521Y-74971071D02*
X175878664Y-74999642D01*
X175878664Y-74999642D02*
X175907236Y-75056785D01*
X175907236Y-75056785D02*
X175907236Y-75113928D01*
X175907236Y-75113928D02*
X175621521Y-75171071D01*
X176107236Y-74971071D02*
X176250093Y-75371071D01*
X176250093Y-75371071D02*
X176392950Y-74971071D01*
X177192950Y-74771071D02*
X177250093Y-74771071D01*
X177250093Y-74771071D02*
X177307236Y-74799642D01*
X177307236Y-74799642D02*
X177335808Y-74828214D01*
X177335808Y-74828214D02*
X177364379Y-74885357D01*
X177364379Y-74885357D02*
X177392950Y-74999642D01*
X177392950Y-74999642D02*
X177392950Y-75142500D01*
X177392950Y-75142500D02*
X177364379Y-75256785D01*
X177364379Y-75256785D02*
X177335808Y-75313928D01*
X177335808Y-75313928D02*
X177307236Y-75342500D01*
X177307236Y-75342500D02*
X177250093Y-75371071D01*
X177250093Y-75371071D02*
X177192950Y-75371071D01*
X177192950Y-75371071D02*
X177135808Y-75342500D01*
X177135808Y-75342500D02*
X177107236Y-75313928D01*
X177107236Y-75313928D02*
X177078665Y-75256785D01*
X177078665Y-75256785D02*
X177050093Y-75142500D01*
X177050093Y-75142500D02*
X177050093Y-74999642D01*
X177050093Y-74999642D02*
X177078665Y-74885357D01*
X177078665Y-74885357D02*
X177107236Y-74828214D01*
X177107236Y-74828214D02*
X177135808Y-74799642D01*
X177135808Y-74799642D02*
X177192950Y-74771071D01*
X175021521Y-76165608D02*
X175307236Y-76165608D01*
X174964378Y-76337037D02*
X175164378Y-75737037D01*
X175164378Y-75737037D02*
X175364378Y-76337037D01*
X175650093Y-76337037D02*
X175592950Y-76308466D01*
X175592950Y-76308466D02*
X175564379Y-76251323D01*
X175564379Y-76251323D02*
X175564379Y-75737037D01*
X176135808Y-76337037D02*
X176135808Y-76022751D01*
X176135808Y-76022751D02*
X176107236Y-75965608D01*
X176107236Y-75965608D02*
X176050093Y-75937037D01*
X176050093Y-75937037D02*
X175935808Y-75937037D01*
X175935808Y-75937037D02*
X175878665Y-75965608D01*
X176135808Y-76308466D02*
X176078665Y-76337037D01*
X176078665Y-76337037D02*
X175935808Y-76337037D01*
X175935808Y-76337037D02*
X175878665Y-76308466D01*
X175878665Y-76308466D02*
X175850093Y-76251323D01*
X175850093Y-76251323D02*
X175850093Y-76194180D01*
X175850093Y-76194180D02*
X175878665Y-76137037D01*
X175878665Y-76137037D02*
X175935808Y-76108466D01*
X175935808Y-76108466D02*
X176078665Y-76108466D01*
X176078665Y-76108466D02*
X176135808Y-76079894D01*
X176421522Y-75937037D02*
X176421522Y-76337037D01*
X176421522Y-75994180D02*
X176450093Y-75965608D01*
X176450093Y-75965608D02*
X176507236Y-75937037D01*
X176507236Y-75937037D02*
X176592950Y-75937037D01*
X176592950Y-75937037D02*
X176650093Y-75965608D01*
X176650093Y-75965608D02*
X176678665Y-76022751D01*
X176678665Y-76022751D02*
X176678665Y-76337037D01*
X177764379Y-76337037D02*
X177564379Y-76051323D01*
X177421522Y-76337037D02*
X177421522Y-75737037D01*
X177421522Y-75737037D02*
X177650093Y-75737037D01*
X177650093Y-75737037D02*
X177707236Y-75765608D01*
X177707236Y-75765608D02*
X177735807Y-75794180D01*
X177735807Y-75794180D02*
X177764379Y-75851323D01*
X177764379Y-75851323D02*
X177764379Y-75937037D01*
X177764379Y-75937037D02*
X177735807Y-75994180D01*
X177735807Y-75994180D02*
X177707236Y-76022751D01*
X177707236Y-76022751D02*
X177650093Y-76051323D01*
X177650093Y-76051323D02*
X177421522Y-76051323D01*
X178021522Y-76279894D02*
X178050093Y-76308466D01*
X178050093Y-76308466D02*
X178021522Y-76337037D01*
X178021522Y-76337037D02*
X177992950Y-76308466D01*
X177992950Y-76308466D02*
X178021522Y-76279894D01*
X178021522Y-76279894D02*
X178021522Y-76337037D01*
X178764379Y-76337037D02*
X178764379Y-75737037D01*
X178764379Y-75737037D02*
X178964379Y-76165608D01*
X178964379Y-76165608D02*
X179164379Y-75737037D01*
X179164379Y-75737037D02*
X179164379Y-76337037D01*
X179535807Y-76337037D02*
X179478664Y-76308466D01*
X179478664Y-76308466D02*
X179450093Y-76279894D01*
X179450093Y-76279894D02*
X179421521Y-76222751D01*
X179421521Y-76222751D02*
X179421521Y-76051323D01*
X179421521Y-76051323D02*
X179450093Y-75994180D01*
X179450093Y-75994180D02*
X179478664Y-75965608D01*
X179478664Y-75965608D02*
X179535807Y-75937037D01*
X179535807Y-75937037D02*
X179621521Y-75937037D01*
X179621521Y-75937037D02*
X179678664Y-75965608D01*
X179678664Y-75965608D02*
X179707236Y-75994180D01*
X179707236Y-75994180D02*
X179735807Y-76051323D01*
X179735807Y-76051323D02*
X179735807Y-76222751D01*
X179735807Y-76222751D02*
X179707236Y-76279894D01*
X179707236Y-76279894D02*
X179678664Y-76308466D01*
X179678664Y-76308466D02*
X179621521Y-76337037D01*
X179621521Y-76337037D02*
X179535807Y-76337037D01*
X179992950Y-75937037D02*
X179992950Y-76337037D01*
X179992950Y-75994180D02*
X180021521Y-75965608D01*
X180021521Y-75965608D02*
X180078664Y-75937037D01*
X180078664Y-75937037D02*
X180164378Y-75937037D01*
X180164378Y-75937037D02*
X180221521Y-75965608D01*
X180221521Y-75965608D02*
X180250093Y-76022751D01*
X180250093Y-76022751D02*
X180250093Y-76337037D01*
X180450092Y-75937037D02*
X180678664Y-75937037D01*
X180535807Y-75737037D02*
X180535807Y-76251323D01*
X180535807Y-76251323D02*
X180564378Y-76308466D01*
X180564378Y-76308466D02*
X180621521Y-76337037D01*
X180621521Y-76337037D02*
X180678664Y-76337037D01*
X180792949Y-75937037D02*
X181021521Y-75937037D01*
X180878664Y-75737037D02*
X180878664Y-76251323D01*
X180878664Y-76251323D02*
X180907235Y-76308466D01*
X180907235Y-76308466D02*
X180964378Y-76337037D01*
X180964378Y-76337037D02*
X181021521Y-76337037D01*
X142152474Y-55933500D02*
X142223902Y-55957309D01*
X142223902Y-55957309D02*
X142342950Y-55957309D01*
X142342950Y-55957309D02*
X142390569Y-55933500D01*
X142390569Y-55933500D02*
X142414378Y-55909690D01*
X142414378Y-55909690D02*
X142438188Y-55862071D01*
X142438188Y-55862071D02*
X142438188Y-55814452D01*
X142438188Y-55814452D02*
X142414378Y-55766833D01*
X142414378Y-55766833D02*
X142390569Y-55743023D01*
X142390569Y-55743023D02*
X142342950Y-55719214D01*
X142342950Y-55719214D02*
X142247712Y-55695404D01*
X142247712Y-55695404D02*
X142200093Y-55671595D01*
X142200093Y-55671595D02*
X142176283Y-55647785D01*
X142176283Y-55647785D02*
X142152474Y-55600166D01*
X142152474Y-55600166D02*
X142152474Y-55552547D01*
X142152474Y-55552547D02*
X142176283Y-55504928D01*
X142176283Y-55504928D02*
X142200093Y-55481119D01*
X142200093Y-55481119D02*
X142247712Y-55457309D01*
X142247712Y-55457309D02*
X142366759Y-55457309D01*
X142366759Y-55457309D02*
X142438188Y-55481119D01*
X142604854Y-55457309D02*
X142723902Y-55957309D01*
X142723902Y-55957309D02*
X142819140Y-55600166D01*
X142819140Y-55600166D02*
X142914378Y-55957309D01*
X142914378Y-55957309D02*
X143033426Y-55457309D01*
X143223902Y-55957309D02*
X143223902Y-55457309D01*
X143223902Y-55457309D02*
X143342950Y-55457309D01*
X143342950Y-55457309D02*
X143414378Y-55481119D01*
X143414378Y-55481119D02*
X143461997Y-55528738D01*
X143461997Y-55528738D02*
X143485807Y-55576357D01*
X143485807Y-55576357D02*
X143509616Y-55671595D01*
X143509616Y-55671595D02*
X143509616Y-55743023D01*
X143509616Y-55743023D02*
X143485807Y-55838261D01*
X143485807Y-55838261D02*
X143461997Y-55885880D01*
X143461997Y-55885880D02*
X143414378Y-55933500D01*
X143414378Y-55933500D02*
X143342950Y-55957309D01*
X143342950Y-55957309D02*
X143223902Y-55957309D01*
X143723902Y-55957309D02*
X143723902Y-55457309D01*
X144057235Y-55457309D02*
X144152473Y-55457309D01*
X144152473Y-55457309D02*
X144200092Y-55481119D01*
X144200092Y-55481119D02*
X144247711Y-55528738D01*
X144247711Y-55528738D02*
X144271521Y-55623976D01*
X144271521Y-55623976D02*
X144271521Y-55790642D01*
X144271521Y-55790642D02*
X144247711Y-55885880D01*
X144247711Y-55885880D02*
X144200092Y-55933500D01*
X144200092Y-55933500D02*
X144152473Y-55957309D01*
X144152473Y-55957309D02*
X144057235Y-55957309D01*
X144057235Y-55957309D02*
X144009616Y-55933500D01*
X144009616Y-55933500D02*
X143961997Y-55885880D01*
X143961997Y-55885880D02*
X143938188Y-55790642D01*
X143938188Y-55790642D02*
X143938188Y-55623976D01*
X143938188Y-55623976D02*
X143961997Y-55528738D01*
X143961997Y-55528738D02*
X144009616Y-55481119D01*
X144009616Y-55481119D02*
X144057235Y-55457309D01*
X186813188Y-72481119D02*
X186765569Y-72457309D01*
X186765569Y-72457309D02*
X186694140Y-72457309D01*
X186694140Y-72457309D02*
X186622712Y-72481119D01*
X186622712Y-72481119D02*
X186575093Y-72528738D01*
X186575093Y-72528738D02*
X186551283Y-72576357D01*
X186551283Y-72576357D02*
X186527474Y-72671595D01*
X186527474Y-72671595D02*
X186527474Y-72743023D01*
X186527474Y-72743023D02*
X186551283Y-72838261D01*
X186551283Y-72838261D02*
X186575093Y-72885880D01*
X186575093Y-72885880D02*
X186622712Y-72933500D01*
X186622712Y-72933500D02*
X186694140Y-72957309D01*
X186694140Y-72957309D02*
X186741759Y-72957309D01*
X186741759Y-72957309D02*
X186813188Y-72933500D01*
X186813188Y-72933500D02*
X186836997Y-72909690D01*
X186836997Y-72909690D02*
X186836997Y-72743023D01*
X186836997Y-72743023D02*
X186741759Y-72743023D01*
X187051283Y-72957309D02*
X187051283Y-72457309D01*
X187051283Y-72457309D02*
X187336997Y-72957309D01*
X187336997Y-72957309D02*
X187336997Y-72457309D01*
X187575093Y-72957309D02*
X187575093Y-72457309D01*
X187575093Y-72457309D02*
X187694141Y-72457309D01*
X187694141Y-72457309D02*
X187765569Y-72481119D01*
X187765569Y-72481119D02*
X187813188Y-72528738D01*
X187813188Y-72528738D02*
X187836998Y-72576357D01*
X187836998Y-72576357D02*
X187860807Y-72671595D01*
X187860807Y-72671595D02*
X187860807Y-72743023D01*
X187860807Y-72743023D02*
X187836998Y-72838261D01*
X187836998Y-72838261D02*
X187813188Y-72885880D01*
X187813188Y-72885880D02*
X187765569Y-72933500D01*
X187765569Y-72933500D02*
X187694141Y-72957309D01*
X187694141Y-72957309D02*
X187575093Y-72957309D01*
X186436997Y-67684690D02*
X186413188Y-67708500D01*
X186413188Y-67708500D02*
X186341759Y-67732309D01*
X186341759Y-67732309D02*
X186294140Y-67732309D01*
X186294140Y-67732309D02*
X186222712Y-67708500D01*
X186222712Y-67708500D02*
X186175093Y-67660880D01*
X186175093Y-67660880D02*
X186151283Y-67613261D01*
X186151283Y-67613261D02*
X186127474Y-67518023D01*
X186127474Y-67518023D02*
X186127474Y-67446595D01*
X186127474Y-67446595D02*
X186151283Y-67351357D01*
X186151283Y-67351357D02*
X186175093Y-67303738D01*
X186175093Y-67303738D02*
X186222712Y-67256119D01*
X186222712Y-67256119D02*
X186294140Y-67232309D01*
X186294140Y-67232309D02*
X186341759Y-67232309D01*
X186341759Y-67232309D02*
X186413188Y-67256119D01*
X186413188Y-67256119D02*
X186436997Y-67279928D01*
X186627474Y-67589452D02*
X186865569Y-67589452D01*
X186579855Y-67732309D02*
X186746521Y-67232309D01*
X186746521Y-67232309D02*
X186913188Y-67732309D01*
X187079854Y-67732309D02*
X187079854Y-67232309D01*
X187079854Y-67232309D02*
X187365568Y-67732309D01*
X187365568Y-67732309D02*
X187365568Y-67232309D01*
X187841759Y-67732309D02*
X187603664Y-67732309D01*
X187603664Y-67732309D02*
X187603664Y-67232309D01*
X186486997Y-65159690D02*
X186463188Y-65183500D01*
X186463188Y-65183500D02*
X186391759Y-65207309D01*
X186391759Y-65207309D02*
X186344140Y-65207309D01*
X186344140Y-65207309D02*
X186272712Y-65183500D01*
X186272712Y-65183500D02*
X186225093Y-65135880D01*
X186225093Y-65135880D02*
X186201283Y-65088261D01*
X186201283Y-65088261D02*
X186177474Y-64993023D01*
X186177474Y-64993023D02*
X186177474Y-64921595D01*
X186177474Y-64921595D02*
X186201283Y-64826357D01*
X186201283Y-64826357D02*
X186225093Y-64778738D01*
X186225093Y-64778738D02*
X186272712Y-64731119D01*
X186272712Y-64731119D02*
X186344140Y-64707309D01*
X186344140Y-64707309D02*
X186391759Y-64707309D01*
X186391759Y-64707309D02*
X186463188Y-64731119D01*
X186463188Y-64731119D02*
X186486997Y-64754928D01*
X186677474Y-65064452D02*
X186915569Y-65064452D01*
X186629855Y-65207309D02*
X186796521Y-64707309D01*
X186796521Y-64707309D02*
X186963188Y-65207309D01*
X187129854Y-65207309D02*
X187129854Y-64707309D01*
X187129854Y-64707309D02*
X187415568Y-65207309D01*
X187415568Y-65207309D02*
X187415568Y-64707309D01*
X187653664Y-65207309D02*
X187653664Y-64707309D01*
X187653664Y-64945404D02*
X187939378Y-64945404D01*
X187939378Y-65207309D02*
X187939378Y-64707309D01*
X139277474Y-55908500D02*
X139348902Y-55932309D01*
X139348902Y-55932309D02*
X139467950Y-55932309D01*
X139467950Y-55932309D02*
X139515569Y-55908500D01*
X139515569Y-55908500D02*
X139539378Y-55884690D01*
X139539378Y-55884690D02*
X139563188Y-55837071D01*
X139563188Y-55837071D02*
X139563188Y-55789452D01*
X139563188Y-55789452D02*
X139539378Y-55741833D01*
X139539378Y-55741833D02*
X139515569Y-55718023D01*
X139515569Y-55718023D02*
X139467950Y-55694214D01*
X139467950Y-55694214D02*
X139372712Y-55670404D01*
X139372712Y-55670404D02*
X139325093Y-55646595D01*
X139325093Y-55646595D02*
X139301283Y-55622785D01*
X139301283Y-55622785D02*
X139277474Y-55575166D01*
X139277474Y-55575166D02*
X139277474Y-55527547D01*
X139277474Y-55527547D02*
X139301283Y-55479928D01*
X139301283Y-55479928D02*
X139325093Y-55456119D01*
X139325093Y-55456119D02*
X139372712Y-55432309D01*
X139372712Y-55432309D02*
X139491759Y-55432309D01*
X139491759Y-55432309D02*
X139563188Y-55456119D01*
X139729854Y-55432309D02*
X139848902Y-55932309D01*
X139848902Y-55932309D02*
X139944140Y-55575166D01*
X139944140Y-55575166D02*
X140039378Y-55932309D01*
X140039378Y-55932309D02*
X140158426Y-55432309D01*
X140634616Y-55884690D02*
X140610807Y-55908500D01*
X140610807Y-55908500D02*
X140539378Y-55932309D01*
X140539378Y-55932309D02*
X140491759Y-55932309D01*
X140491759Y-55932309D02*
X140420331Y-55908500D01*
X140420331Y-55908500D02*
X140372712Y-55860880D01*
X140372712Y-55860880D02*
X140348902Y-55813261D01*
X140348902Y-55813261D02*
X140325093Y-55718023D01*
X140325093Y-55718023D02*
X140325093Y-55646595D01*
X140325093Y-55646595D02*
X140348902Y-55551357D01*
X140348902Y-55551357D02*
X140372712Y-55503738D01*
X140372712Y-55503738D02*
X140420331Y-55456119D01*
X140420331Y-55456119D02*
X140491759Y-55432309D01*
X140491759Y-55432309D02*
X140539378Y-55432309D01*
X140539378Y-55432309D02*
X140610807Y-55456119D01*
X140610807Y-55456119D02*
X140634616Y-55479928D01*
X141086997Y-55932309D02*
X140848902Y-55932309D01*
X140848902Y-55932309D02*
X140848902Y-55432309D01*
X141253664Y-55932309D02*
X141253664Y-55432309D01*
X141539378Y-55932309D02*
X141325093Y-55646595D01*
X141539378Y-55432309D02*
X141253664Y-55718023D01*
X137538188Y-55481119D02*
X137490569Y-55457309D01*
X137490569Y-55457309D02*
X137419140Y-55457309D01*
X137419140Y-55457309D02*
X137347712Y-55481119D01*
X137347712Y-55481119D02*
X137300093Y-55528738D01*
X137300093Y-55528738D02*
X137276283Y-55576357D01*
X137276283Y-55576357D02*
X137252474Y-55671595D01*
X137252474Y-55671595D02*
X137252474Y-55743023D01*
X137252474Y-55743023D02*
X137276283Y-55838261D01*
X137276283Y-55838261D02*
X137300093Y-55885880D01*
X137300093Y-55885880D02*
X137347712Y-55933500D01*
X137347712Y-55933500D02*
X137419140Y-55957309D01*
X137419140Y-55957309D02*
X137466759Y-55957309D01*
X137466759Y-55957309D02*
X137538188Y-55933500D01*
X137538188Y-55933500D02*
X137561997Y-55909690D01*
X137561997Y-55909690D02*
X137561997Y-55743023D01*
X137561997Y-55743023D02*
X137466759Y-55743023D01*
X137776283Y-55957309D02*
X137776283Y-55457309D01*
X137776283Y-55457309D02*
X138061997Y-55957309D01*
X138061997Y-55957309D02*
X138061997Y-55457309D01*
X138300093Y-55957309D02*
X138300093Y-55457309D01*
X138300093Y-55457309D02*
X138419141Y-55457309D01*
X138419141Y-55457309D02*
X138490569Y-55481119D01*
X138490569Y-55481119D02*
X138538188Y-55528738D01*
X138538188Y-55528738D02*
X138561998Y-55576357D01*
X138561998Y-55576357D02*
X138585807Y-55671595D01*
X138585807Y-55671595D02*
X138585807Y-55743023D01*
X138585807Y-55743023D02*
X138561998Y-55838261D01*
X138561998Y-55838261D02*
X138538188Y-55885880D01*
X138538188Y-55885880D02*
X138490569Y-55933500D01*
X138490569Y-55933500D02*
X138419141Y-55957309D01*
X138419141Y-55957309D02*
X138300093Y-55957309D01*
X145028664Y-55457309D02*
X145338188Y-55457309D01*
X145338188Y-55457309D02*
X145171521Y-55647785D01*
X145171521Y-55647785D02*
X145242950Y-55647785D01*
X145242950Y-55647785D02*
X145290569Y-55671595D01*
X145290569Y-55671595D02*
X145314378Y-55695404D01*
X145314378Y-55695404D02*
X145338188Y-55743023D01*
X145338188Y-55743023D02*
X145338188Y-55862071D01*
X145338188Y-55862071D02*
X145314378Y-55909690D01*
X145314378Y-55909690D02*
X145290569Y-55933500D01*
X145290569Y-55933500D02*
X145242950Y-55957309D01*
X145242950Y-55957309D02*
X145100093Y-55957309D01*
X145100093Y-55957309D02*
X145052474Y-55933500D01*
X145052474Y-55933500D02*
X145028664Y-55909690D01*
X145481045Y-55457309D02*
X145647711Y-55957309D01*
X145647711Y-55957309D02*
X145814378Y-55457309D01*
X145933425Y-55457309D02*
X146242949Y-55457309D01*
X146242949Y-55457309D02*
X146076282Y-55647785D01*
X146076282Y-55647785D02*
X146147711Y-55647785D01*
X146147711Y-55647785D02*
X146195330Y-55671595D01*
X146195330Y-55671595D02*
X146219139Y-55695404D01*
X146219139Y-55695404D02*
X146242949Y-55743023D01*
X146242949Y-55743023D02*
X146242949Y-55862071D01*
X146242949Y-55862071D02*
X146219139Y-55909690D01*
X146219139Y-55909690D02*
X146195330Y-55933500D01*
X146195330Y-55933500D02*
X146147711Y-55957309D01*
X146147711Y-55957309D02*
X146004854Y-55957309D01*
X146004854Y-55957309D02*
X145957235Y-55933500D01*
X145957235Y-55933500D02*
X145933425Y-55909690D01*
X187364378Y-69782309D02*
X187126283Y-69782309D01*
X187126283Y-69782309D02*
X187102474Y-70020404D01*
X187102474Y-70020404D02*
X187126283Y-69996595D01*
X187126283Y-69996595D02*
X187173902Y-69972785D01*
X187173902Y-69972785D02*
X187292950Y-69972785D01*
X187292950Y-69972785D02*
X187340569Y-69996595D01*
X187340569Y-69996595D02*
X187364378Y-70020404D01*
X187364378Y-70020404D02*
X187388188Y-70068023D01*
X187388188Y-70068023D02*
X187388188Y-70187071D01*
X187388188Y-70187071D02*
X187364378Y-70234690D01*
X187364378Y-70234690D02*
X187340569Y-70258500D01*
X187340569Y-70258500D02*
X187292950Y-70282309D01*
X187292950Y-70282309D02*
X187173902Y-70282309D01*
X187173902Y-70282309D02*
X187126283Y-70258500D01*
X187126283Y-70258500D02*
X187102474Y-70234690D01*
X187531045Y-69782309D02*
X187697711Y-70282309D01*
X187697711Y-70282309D02*
X187864378Y-69782309D01*
D12*
X121459580Y-61241666D02*
X121507200Y-61289285D01*
X121507200Y-61289285D02*
X121554819Y-61432142D01*
X121554819Y-61432142D02*
X121554819Y-61527380D01*
X121554819Y-61527380D02*
X121507200Y-61670237D01*
X121507200Y-61670237D02*
X121411961Y-61765475D01*
X121411961Y-61765475D02*
X121316723Y-61813094D01*
X121316723Y-61813094D02*
X121126247Y-61860713D01*
X121126247Y-61860713D02*
X120983390Y-61860713D01*
X120983390Y-61860713D02*
X120792914Y-61813094D01*
X120792914Y-61813094D02*
X120697676Y-61765475D01*
X120697676Y-61765475D02*
X120602438Y-61670237D01*
X120602438Y-61670237D02*
X120554819Y-61527380D01*
X120554819Y-61527380D02*
X120554819Y-61432142D01*
X120554819Y-61432142D02*
X120602438Y-61289285D01*
X120602438Y-61289285D02*
X120650057Y-61241666D01*
X120554819Y-60384523D02*
X120554819Y-60574999D01*
X120554819Y-60574999D02*
X120602438Y-60670237D01*
X120602438Y-60670237D02*
X120650057Y-60717856D01*
X120650057Y-60717856D02*
X120792914Y-60813094D01*
X120792914Y-60813094D02*
X120983390Y-60860713D01*
X120983390Y-60860713D02*
X121364342Y-60860713D01*
X121364342Y-60860713D02*
X121459580Y-60813094D01*
X121459580Y-60813094D02*
X121507200Y-60765475D01*
X121507200Y-60765475D02*
X121554819Y-60670237D01*
X121554819Y-60670237D02*
X121554819Y-60479761D01*
X121554819Y-60479761D02*
X121507200Y-60384523D01*
X121507200Y-60384523D02*
X121459580Y-60336904D01*
X121459580Y-60336904D02*
X121364342Y-60289285D01*
X121364342Y-60289285D02*
X121126247Y-60289285D01*
X121126247Y-60289285D02*
X121031009Y-60336904D01*
X121031009Y-60336904D02*
X120983390Y-60384523D01*
X120983390Y-60384523D02*
X120935771Y-60479761D01*
X120935771Y-60479761D02*
X120935771Y-60670237D01*
X120935771Y-60670237D02*
X120983390Y-60765475D01*
X120983390Y-60765475D02*
X121031009Y-60813094D01*
X121031009Y-60813094D02*
X121126247Y-60860713D01*
X143314580Y-74430357D02*
X143362200Y-74477976D01*
X143362200Y-74477976D02*
X143409819Y-74620833D01*
X143409819Y-74620833D02*
X143409819Y-74716071D01*
X143409819Y-74716071D02*
X143362200Y-74858928D01*
X143362200Y-74858928D02*
X143266961Y-74954166D01*
X143266961Y-74954166D02*
X143171723Y-75001785D01*
X143171723Y-75001785D02*
X142981247Y-75049404D01*
X142981247Y-75049404D02*
X142838390Y-75049404D01*
X142838390Y-75049404D02*
X142647914Y-75001785D01*
X142647914Y-75001785D02*
X142552676Y-74954166D01*
X142552676Y-74954166D02*
X142457438Y-74858928D01*
X142457438Y-74858928D02*
X142409819Y-74716071D01*
X142409819Y-74716071D02*
X142409819Y-74620833D01*
X142409819Y-74620833D02*
X142457438Y-74477976D01*
X142457438Y-74477976D02*
X142505057Y-74430357D01*
X143409819Y-73477976D02*
X143409819Y-74049404D01*
X143409819Y-73763690D02*
X142409819Y-73763690D01*
X142409819Y-73763690D02*
X142552676Y-73858928D01*
X142552676Y-73858928D02*
X142647914Y-73954166D01*
X142647914Y-73954166D02*
X142695533Y-74049404D01*
X142505057Y-73097023D02*
X142457438Y-73049404D01*
X142457438Y-73049404D02*
X142409819Y-72954166D01*
X142409819Y-72954166D02*
X142409819Y-72716071D01*
X142409819Y-72716071D02*
X142457438Y-72620833D01*
X142457438Y-72620833D02*
X142505057Y-72573214D01*
X142505057Y-72573214D02*
X142600295Y-72525595D01*
X142600295Y-72525595D02*
X142695533Y-72525595D01*
X142695533Y-72525595D02*
X142838390Y-72573214D01*
X142838390Y-72573214D02*
X143409819Y-73144642D01*
X143409819Y-73144642D02*
X143409819Y-72525595D01*
X184358333Y-62404819D02*
X184025000Y-61928628D01*
X183786905Y-62404819D02*
X183786905Y-61404819D01*
X183786905Y-61404819D02*
X184167857Y-61404819D01*
X184167857Y-61404819D02*
X184263095Y-61452438D01*
X184263095Y-61452438D02*
X184310714Y-61500057D01*
X184310714Y-61500057D02*
X184358333Y-61595295D01*
X184358333Y-61595295D02*
X184358333Y-61738152D01*
X184358333Y-61738152D02*
X184310714Y-61833390D01*
X184310714Y-61833390D02*
X184263095Y-61881009D01*
X184263095Y-61881009D02*
X184167857Y-61928628D01*
X184167857Y-61928628D02*
X183786905Y-61928628D01*
X185215476Y-61738152D02*
X185215476Y-62404819D01*
X184977381Y-61357200D02*
X184739286Y-62071485D01*
X184739286Y-62071485D02*
X185358333Y-62071485D01*
D13*
X169837619Y-63619080D02*
X169414285Y-63619080D01*
X169414285Y-64284318D02*
X169414285Y-63014318D01*
X169414285Y-63014318D02*
X170019047Y-63014318D01*
X171107618Y-64284318D02*
X170502856Y-64284318D01*
X170502856Y-64284318D02*
X170502856Y-63014318D01*
X172196190Y-64284318D02*
X171470475Y-64284318D01*
X171833332Y-64284318D02*
X171833332Y-63014318D01*
X171833332Y-63014318D02*
X171712380Y-63195746D01*
X171712380Y-63195746D02*
X171591428Y-63316699D01*
X171591428Y-63316699D02*
X171470475Y-63377175D01*
D12*
X135884580Y-73916666D02*
X135932200Y-73964285D01*
X135932200Y-73964285D02*
X135979819Y-74107142D01*
X135979819Y-74107142D02*
X135979819Y-74202380D01*
X135979819Y-74202380D02*
X135932200Y-74345237D01*
X135932200Y-74345237D02*
X135836961Y-74440475D01*
X135836961Y-74440475D02*
X135741723Y-74488094D01*
X135741723Y-74488094D02*
X135551247Y-74535713D01*
X135551247Y-74535713D02*
X135408390Y-74535713D01*
X135408390Y-74535713D02*
X135217914Y-74488094D01*
X135217914Y-74488094D02*
X135122676Y-74440475D01*
X135122676Y-74440475D02*
X135027438Y-74345237D01*
X135027438Y-74345237D02*
X134979819Y-74202380D01*
X134979819Y-74202380D02*
X134979819Y-74107142D01*
X134979819Y-74107142D02*
X135027438Y-73964285D01*
X135027438Y-73964285D02*
X135075057Y-73916666D01*
X134979819Y-73583332D02*
X134979819Y-72964285D01*
X134979819Y-72964285D02*
X135360771Y-73297618D01*
X135360771Y-73297618D02*
X135360771Y-73154761D01*
X135360771Y-73154761D02*
X135408390Y-73059523D01*
X135408390Y-73059523D02*
X135456009Y-73011904D01*
X135456009Y-73011904D02*
X135551247Y-72964285D01*
X135551247Y-72964285D02*
X135789342Y-72964285D01*
X135789342Y-72964285D02*
X135884580Y-73011904D01*
X135884580Y-73011904D02*
X135932200Y-73059523D01*
X135932200Y-73059523D02*
X135979819Y-73154761D01*
X135979819Y-73154761D02*
X135979819Y-73440475D01*
X135979819Y-73440475D02*
X135932200Y-73535713D01*
X135932200Y-73535713D02*
X135884580Y-73583332D01*
X122984580Y-71867857D02*
X123032200Y-71915476D01*
X123032200Y-71915476D02*
X123079819Y-72058333D01*
X123079819Y-72058333D02*
X123079819Y-72153571D01*
X123079819Y-72153571D02*
X123032200Y-72296428D01*
X123032200Y-72296428D02*
X122936961Y-72391666D01*
X122936961Y-72391666D02*
X122841723Y-72439285D01*
X122841723Y-72439285D02*
X122651247Y-72486904D01*
X122651247Y-72486904D02*
X122508390Y-72486904D01*
X122508390Y-72486904D02*
X122317914Y-72439285D01*
X122317914Y-72439285D02*
X122222676Y-72391666D01*
X122222676Y-72391666D02*
X122127438Y-72296428D01*
X122127438Y-72296428D02*
X122079819Y-72153571D01*
X122079819Y-72153571D02*
X122079819Y-72058333D01*
X122079819Y-72058333D02*
X122127438Y-71915476D01*
X122127438Y-71915476D02*
X122175057Y-71867857D01*
X123079819Y-70915476D02*
X123079819Y-71486904D01*
X123079819Y-71201190D02*
X122079819Y-71201190D01*
X122079819Y-71201190D02*
X122222676Y-71296428D01*
X122222676Y-71296428D02*
X122317914Y-71391666D01*
X122317914Y-71391666D02*
X122365533Y-71486904D01*
X122413152Y-70058333D02*
X123079819Y-70058333D01*
X122032200Y-70296428D02*
X122746485Y-70534523D01*
X122746485Y-70534523D02*
X122746485Y-69915476D01*
D13*
X144599318Y-67989762D02*
X143329318Y-67989762D01*
X144478365Y-66659285D02*
X144538842Y-66719761D01*
X144538842Y-66719761D02*
X144599318Y-66901190D01*
X144599318Y-66901190D02*
X144599318Y-67022142D01*
X144599318Y-67022142D02*
X144538842Y-67203571D01*
X144538842Y-67203571D02*
X144417889Y-67324523D01*
X144417889Y-67324523D02*
X144296937Y-67385000D01*
X144296937Y-67385000D02*
X144055032Y-67445476D01*
X144055032Y-67445476D02*
X143873603Y-67445476D01*
X143873603Y-67445476D02*
X143631699Y-67385000D01*
X143631699Y-67385000D02*
X143510746Y-67324523D01*
X143510746Y-67324523D02*
X143389794Y-67203571D01*
X143389794Y-67203571D02*
X143329318Y-67022142D01*
X143329318Y-67022142D02*
X143329318Y-66901190D01*
X143329318Y-66901190D02*
X143389794Y-66719761D01*
X143389794Y-66719761D02*
X143450270Y-66659285D01*
X144599318Y-65449761D02*
X144599318Y-66175476D01*
X144599318Y-65812619D02*
X143329318Y-65812619D01*
X143329318Y-65812619D02*
X143510746Y-65933571D01*
X143510746Y-65933571D02*
X143631699Y-66054523D01*
X143631699Y-66054523D02*
X143692175Y-66175476D01*
D12*
X140459580Y-77767857D02*
X140507200Y-77815476D01*
X140507200Y-77815476D02*
X140554819Y-77958333D01*
X140554819Y-77958333D02*
X140554819Y-78053571D01*
X140554819Y-78053571D02*
X140507200Y-78196428D01*
X140507200Y-78196428D02*
X140411961Y-78291666D01*
X140411961Y-78291666D02*
X140316723Y-78339285D01*
X140316723Y-78339285D02*
X140126247Y-78386904D01*
X140126247Y-78386904D02*
X139983390Y-78386904D01*
X139983390Y-78386904D02*
X139792914Y-78339285D01*
X139792914Y-78339285D02*
X139697676Y-78291666D01*
X139697676Y-78291666D02*
X139602438Y-78196428D01*
X139602438Y-78196428D02*
X139554819Y-78053571D01*
X139554819Y-78053571D02*
X139554819Y-77958333D01*
X139554819Y-77958333D02*
X139602438Y-77815476D01*
X139602438Y-77815476D02*
X139650057Y-77767857D01*
X140554819Y-76815476D02*
X140554819Y-77386904D01*
X140554819Y-77101190D02*
X139554819Y-77101190D01*
X139554819Y-77101190D02*
X139697676Y-77196428D01*
X139697676Y-77196428D02*
X139792914Y-77291666D01*
X139792914Y-77291666D02*
X139840533Y-77386904D01*
X139554819Y-76196428D02*
X139554819Y-76101190D01*
X139554819Y-76101190D02*
X139602438Y-76005952D01*
X139602438Y-76005952D02*
X139650057Y-75958333D01*
X139650057Y-75958333D02*
X139745295Y-75910714D01*
X139745295Y-75910714D02*
X139935771Y-75863095D01*
X139935771Y-75863095D02*
X140173866Y-75863095D01*
X140173866Y-75863095D02*
X140364342Y-75910714D01*
X140364342Y-75910714D02*
X140459580Y-75958333D01*
X140459580Y-75958333D02*
X140507200Y-76005952D01*
X140507200Y-76005952D02*
X140554819Y-76101190D01*
X140554819Y-76101190D02*
X140554819Y-76196428D01*
X140554819Y-76196428D02*
X140507200Y-76291666D01*
X140507200Y-76291666D02*
X140459580Y-76339285D01*
X140459580Y-76339285D02*
X140364342Y-76386904D01*
X140364342Y-76386904D02*
X140173866Y-76434523D01*
X140173866Y-76434523D02*
X139935771Y-76434523D01*
X139935771Y-76434523D02*
X139745295Y-76386904D01*
X139745295Y-76386904D02*
X139650057Y-76339285D01*
X139650057Y-76339285D02*
X139602438Y-76291666D01*
X139602438Y-76291666D02*
X139554819Y-76196428D01*
X150284580Y-74092857D02*
X150332200Y-74140476D01*
X150332200Y-74140476D02*
X150379819Y-74283333D01*
X150379819Y-74283333D02*
X150379819Y-74378571D01*
X150379819Y-74378571D02*
X150332200Y-74521428D01*
X150332200Y-74521428D02*
X150236961Y-74616666D01*
X150236961Y-74616666D02*
X150141723Y-74664285D01*
X150141723Y-74664285D02*
X149951247Y-74711904D01*
X149951247Y-74711904D02*
X149808390Y-74711904D01*
X149808390Y-74711904D02*
X149617914Y-74664285D01*
X149617914Y-74664285D02*
X149522676Y-74616666D01*
X149522676Y-74616666D02*
X149427438Y-74521428D01*
X149427438Y-74521428D02*
X149379819Y-74378571D01*
X149379819Y-74378571D02*
X149379819Y-74283333D01*
X149379819Y-74283333D02*
X149427438Y-74140476D01*
X149427438Y-74140476D02*
X149475057Y-74092857D01*
X150379819Y-73140476D02*
X150379819Y-73711904D01*
X150379819Y-73426190D02*
X149379819Y-73426190D01*
X149379819Y-73426190D02*
X149522676Y-73521428D01*
X149522676Y-73521428D02*
X149617914Y-73616666D01*
X149617914Y-73616666D02*
X149665533Y-73711904D01*
X149379819Y-72235714D02*
X149379819Y-72711904D01*
X149379819Y-72711904D02*
X149856009Y-72759523D01*
X149856009Y-72759523D02*
X149808390Y-72711904D01*
X149808390Y-72711904D02*
X149760771Y-72616666D01*
X149760771Y-72616666D02*
X149760771Y-72378571D01*
X149760771Y-72378571D02*
X149808390Y-72283333D01*
X149808390Y-72283333D02*
X149856009Y-72235714D01*
X149856009Y-72235714D02*
X149951247Y-72188095D01*
X149951247Y-72188095D02*
X150189342Y-72188095D01*
X150189342Y-72188095D02*
X150284580Y-72235714D01*
X150284580Y-72235714D02*
X150332200Y-72283333D01*
X150332200Y-72283333D02*
X150379819Y-72378571D01*
X150379819Y-72378571D02*
X150379819Y-72616666D01*
X150379819Y-72616666D02*
X150332200Y-72711904D01*
X150332200Y-72711904D02*
X150284580Y-72759523D01*
X156634580Y-69166666D02*
X156682200Y-69214285D01*
X156682200Y-69214285D02*
X156729819Y-69357142D01*
X156729819Y-69357142D02*
X156729819Y-69452380D01*
X156729819Y-69452380D02*
X156682200Y-69595237D01*
X156682200Y-69595237D02*
X156586961Y-69690475D01*
X156586961Y-69690475D02*
X156491723Y-69738094D01*
X156491723Y-69738094D02*
X156301247Y-69785713D01*
X156301247Y-69785713D02*
X156158390Y-69785713D01*
X156158390Y-69785713D02*
X155967914Y-69738094D01*
X155967914Y-69738094D02*
X155872676Y-69690475D01*
X155872676Y-69690475D02*
X155777438Y-69595237D01*
X155777438Y-69595237D02*
X155729819Y-69452380D01*
X155729819Y-69452380D02*
X155729819Y-69357142D01*
X155729819Y-69357142D02*
X155777438Y-69214285D01*
X155777438Y-69214285D02*
X155825057Y-69166666D01*
X156158390Y-68595237D02*
X156110771Y-68690475D01*
X156110771Y-68690475D02*
X156063152Y-68738094D01*
X156063152Y-68738094D02*
X155967914Y-68785713D01*
X155967914Y-68785713D02*
X155920295Y-68785713D01*
X155920295Y-68785713D02*
X155825057Y-68738094D01*
X155825057Y-68738094D02*
X155777438Y-68690475D01*
X155777438Y-68690475D02*
X155729819Y-68595237D01*
X155729819Y-68595237D02*
X155729819Y-68404761D01*
X155729819Y-68404761D02*
X155777438Y-68309523D01*
X155777438Y-68309523D02*
X155825057Y-68261904D01*
X155825057Y-68261904D02*
X155920295Y-68214285D01*
X155920295Y-68214285D02*
X155967914Y-68214285D01*
X155967914Y-68214285D02*
X156063152Y-68261904D01*
X156063152Y-68261904D02*
X156110771Y-68309523D01*
X156110771Y-68309523D02*
X156158390Y-68404761D01*
X156158390Y-68404761D02*
X156158390Y-68595237D01*
X156158390Y-68595237D02*
X156206009Y-68690475D01*
X156206009Y-68690475D02*
X156253628Y-68738094D01*
X156253628Y-68738094D02*
X156348866Y-68785713D01*
X156348866Y-68785713D02*
X156539342Y-68785713D01*
X156539342Y-68785713D02*
X156634580Y-68738094D01*
X156634580Y-68738094D02*
X156682200Y-68690475D01*
X156682200Y-68690475D02*
X156729819Y-68595237D01*
X156729819Y-68595237D02*
X156729819Y-68404761D01*
X156729819Y-68404761D02*
X156682200Y-68309523D01*
X156682200Y-68309523D02*
X156634580Y-68261904D01*
X156634580Y-68261904D02*
X156539342Y-68214285D01*
X156539342Y-68214285D02*
X156348866Y-68214285D01*
X156348866Y-68214285D02*
X156253628Y-68261904D01*
X156253628Y-68261904D02*
X156206009Y-68309523D01*
X156206009Y-68309523D02*
X156158390Y-68404761D01*
X161679819Y-62333333D02*
X162394104Y-62333333D01*
X162394104Y-62333333D02*
X162536961Y-62380952D01*
X162536961Y-62380952D02*
X162632200Y-62476190D01*
X162632200Y-62476190D02*
X162679819Y-62619047D01*
X162679819Y-62619047D02*
X162679819Y-62714285D01*
X162679819Y-61857142D02*
X161679819Y-61857142D01*
X161679819Y-61857142D02*
X161679819Y-61476190D01*
X161679819Y-61476190D02*
X161727438Y-61380952D01*
X161727438Y-61380952D02*
X161775057Y-61333333D01*
X161775057Y-61333333D02*
X161870295Y-61285714D01*
X161870295Y-61285714D02*
X162013152Y-61285714D01*
X162013152Y-61285714D02*
X162108390Y-61333333D01*
X162108390Y-61333333D02*
X162156009Y-61380952D01*
X162156009Y-61380952D02*
X162203628Y-61476190D01*
X162203628Y-61476190D02*
X162203628Y-61857142D01*
X162679819Y-60333333D02*
X162679819Y-60904761D01*
X162679819Y-60619047D02*
X161679819Y-60619047D01*
X161679819Y-60619047D02*
X161822676Y-60714285D01*
X161822676Y-60714285D02*
X161917914Y-60809523D01*
X161917914Y-60809523D02*
X161965533Y-60904761D01*
X167833333Y-70334580D02*
X167785714Y-70382200D01*
X167785714Y-70382200D02*
X167642857Y-70429819D01*
X167642857Y-70429819D02*
X167547619Y-70429819D01*
X167547619Y-70429819D02*
X167404762Y-70382200D01*
X167404762Y-70382200D02*
X167309524Y-70286961D01*
X167309524Y-70286961D02*
X167261905Y-70191723D01*
X167261905Y-70191723D02*
X167214286Y-70001247D01*
X167214286Y-70001247D02*
X167214286Y-69858390D01*
X167214286Y-69858390D02*
X167261905Y-69667914D01*
X167261905Y-69667914D02*
X167309524Y-69572676D01*
X167309524Y-69572676D02*
X167404762Y-69477438D01*
X167404762Y-69477438D02*
X167547619Y-69429819D01*
X167547619Y-69429819D02*
X167642857Y-69429819D01*
X167642857Y-69429819D02*
X167785714Y-69477438D01*
X167785714Y-69477438D02*
X167833333Y-69525057D01*
X168166667Y-69429819D02*
X168833333Y-69429819D01*
X168833333Y-69429819D02*
X168404762Y-70429819D01*
X184408333Y-71079819D02*
X184075000Y-70603628D01*
X183836905Y-71079819D02*
X183836905Y-70079819D01*
X183836905Y-70079819D02*
X184217857Y-70079819D01*
X184217857Y-70079819D02*
X184313095Y-70127438D01*
X184313095Y-70127438D02*
X184360714Y-70175057D01*
X184360714Y-70175057D02*
X184408333Y-70270295D01*
X184408333Y-70270295D02*
X184408333Y-70413152D01*
X184408333Y-70413152D02*
X184360714Y-70508390D01*
X184360714Y-70508390D02*
X184313095Y-70556009D01*
X184313095Y-70556009D02*
X184217857Y-70603628D01*
X184217857Y-70603628D02*
X183836905Y-70603628D01*
X185313095Y-70079819D02*
X184836905Y-70079819D01*
X184836905Y-70079819D02*
X184789286Y-70556009D01*
X184789286Y-70556009D02*
X184836905Y-70508390D01*
X184836905Y-70508390D02*
X184932143Y-70460771D01*
X184932143Y-70460771D02*
X185170238Y-70460771D01*
X185170238Y-70460771D02*
X185265476Y-70508390D01*
X185265476Y-70508390D02*
X185313095Y-70556009D01*
X185313095Y-70556009D02*
X185360714Y-70651247D01*
X185360714Y-70651247D02*
X185360714Y-70889342D01*
X185360714Y-70889342D02*
X185313095Y-70984580D01*
X185313095Y-70984580D02*
X185265476Y-71032200D01*
X185265476Y-71032200D02*
X185170238Y-71079819D01*
X185170238Y-71079819D02*
X184932143Y-71079819D01*
X184932143Y-71079819D02*
X184836905Y-71032200D01*
X184836905Y-71032200D02*
X184789286Y-70984580D01*
X149909580Y-77742857D02*
X149957200Y-77790476D01*
X149957200Y-77790476D02*
X150004819Y-77933333D01*
X150004819Y-77933333D02*
X150004819Y-78028571D01*
X150004819Y-78028571D02*
X149957200Y-78171428D01*
X149957200Y-78171428D02*
X149861961Y-78266666D01*
X149861961Y-78266666D02*
X149766723Y-78314285D01*
X149766723Y-78314285D02*
X149576247Y-78361904D01*
X149576247Y-78361904D02*
X149433390Y-78361904D01*
X149433390Y-78361904D02*
X149242914Y-78314285D01*
X149242914Y-78314285D02*
X149147676Y-78266666D01*
X149147676Y-78266666D02*
X149052438Y-78171428D01*
X149052438Y-78171428D02*
X149004819Y-78028571D01*
X149004819Y-78028571D02*
X149004819Y-77933333D01*
X149004819Y-77933333D02*
X149052438Y-77790476D01*
X149052438Y-77790476D02*
X149100057Y-77742857D01*
X150004819Y-76790476D02*
X150004819Y-77361904D01*
X150004819Y-77076190D02*
X149004819Y-77076190D01*
X149004819Y-77076190D02*
X149147676Y-77171428D01*
X149147676Y-77171428D02*
X149242914Y-77266666D01*
X149242914Y-77266666D02*
X149290533Y-77361904D01*
X150004819Y-75838095D02*
X150004819Y-76409523D01*
X150004819Y-76123809D02*
X149004819Y-76123809D01*
X149004819Y-76123809D02*
X149147676Y-76219047D01*
X149147676Y-76219047D02*
X149242914Y-76314285D01*
X149242914Y-76314285D02*
X149290533Y-76409523D01*
X135039819Y-57833333D02*
X135754104Y-57833333D01*
X135754104Y-57833333D02*
X135896961Y-57880952D01*
X135896961Y-57880952D02*
X135992200Y-57976190D01*
X135992200Y-57976190D02*
X136039819Y-58119047D01*
X136039819Y-58119047D02*
X136039819Y-58214285D01*
X135135057Y-57404761D02*
X135087438Y-57357142D01*
X135087438Y-57357142D02*
X135039819Y-57261904D01*
X135039819Y-57261904D02*
X135039819Y-57023809D01*
X135039819Y-57023809D02*
X135087438Y-56928571D01*
X135087438Y-56928571D02*
X135135057Y-56880952D01*
X135135057Y-56880952D02*
X135230295Y-56833333D01*
X135230295Y-56833333D02*
X135325533Y-56833333D01*
X135325533Y-56833333D02*
X135468390Y-56880952D01*
X135468390Y-56880952D02*
X136039819Y-57452380D01*
X136039819Y-57452380D02*
X136039819Y-56833333D01*
X126134580Y-73916666D02*
X126182200Y-73964285D01*
X126182200Y-73964285D02*
X126229819Y-74107142D01*
X126229819Y-74107142D02*
X126229819Y-74202380D01*
X126229819Y-74202380D02*
X126182200Y-74345237D01*
X126182200Y-74345237D02*
X126086961Y-74440475D01*
X126086961Y-74440475D02*
X125991723Y-74488094D01*
X125991723Y-74488094D02*
X125801247Y-74535713D01*
X125801247Y-74535713D02*
X125658390Y-74535713D01*
X125658390Y-74535713D02*
X125467914Y-74488094D01*
X125467914Y-74488094D02*
X125372676Y-74440475D01*
X125372676Y-74440475D02*
X125277438Y-74345237D01*
X125277438Y-74345237D02*
X125229819Y-74202380D01*
X125229819Y-74202380D02*
X125229819Y-74107142D01*
X125229819Y-74107142D02*
X125277438Y-73964285D01*
X125277438Y-73964285D02*
X125325057Y-73916666D01*
X125325057Y-73535713D02*
X125277438Y-73488094D01*
X125277438Y-73488094D02*
X125229819Y-73392856D01*
X125229819Y-73392856D02*
X125229819Y-73154761D01*
X125229819Y-73154761D02*
X125277438Y-73059523D01*
X125277438Y-73059523D02*
X125325057Y-73011904D01*
X125325057Y-73011904D02*
X125420295Y-72964285D01*
X125420295Y-72964285D02*
X125515533Y-72964285D01*
X125515533Y-72964285D02*
X125658390Y-73011904D01*
X125658390Y-73011904D02*
X126229819Y-73583332D01*
X126229819Y-73583332D02*
X126229819Y-72964285D01*
X128252083Y-59804819D02*
X127918750Y-59328628D01*
X127680655Y-59804819D02*
X127680655Y-58804819D01*
X127680655Y-58804819D02*
X128061607Y-58804819D01*
X128061607Y-58804819D02*
X128156845Y-58852438D01*
X128156845Y-58852438D02*
X128204464Y-58900057D01*
X128204464Y-58900057D02*
X128252083Y-58995295D01*
X128252083Y-58995295D02*
X128252083Y-59138152D01*
X128252083Y-59138152D02*
X128204464Y-59233390D01*
X128204464Y-59233390D02*
X128156845Y-59281009D01*
X128156845Y-59281009D02*
X128061607Y-59328628D01*
X128061607Y-59328628D02*
X127680655Y-59328628D01*
X128633036Y-58900057D02*
X128680655Y-58852438D01*
X128680655Y-58852438D02*
X128775893Y-58804819D01*
X128775893Y-58804819D02*
X129013988Y-58804819D01*
X129013988Y-58804819D02*
X129109226Y-58852438D01*
X129109226Y-58852438D02*
X129156845Y-58900057D01*
X129156845Y-58900057D02*
X129204464Y-58995295D01*
X129204464Y-58995295D02*
X129204464Y-59090533D01*
X129204464Y-59090533D02*
X129156845Y-59233390D01*
X129156845Y-59233390D02*
X128585417Y-59804819D01*
X128585417Y-59804819D02*
X129204464Y-59804819D01*
X123004819Y-67316666D02*
X122528628Y-67649999D01*
X123004819Y-67888094D02*
X122004819Y-67888094D01*
X122004819Y-67888094D02*
X122004819Y-67507142D01*
X122004819Y-67507142D02*
X122052438Y-67411904D01*
X122052438Y-67411904D02*
X122100057Y-67364285D01*
X122100057Y-67364285D02*
X122195295Y-67316666D01*
X122195295Y-67316666D02*
X122338152Y-67316666D01*
X122338152Y-67316666D02*
X122433390Y-67364285D01*
X122433390Y-67364285D02*
X122481009Y-67411904D01*
X122481009Y-67411904D02*
X122528628Y-67507142D01*
X122528628Y-67507142D02*
X122528628Y-67888094D01*
X122004819Y-66983332D02*
X122004819Y-66364285D01*
X122004819Y-66364285D02*
X122385771Y-66697618D01*
X122385771Y-66697618D02*
X122385771Y-66554761D01*
X122385771Y-66554761D02*
X122433390Y-66459523D01*
X122433390Y-66459523D02*
X122481009Y-66411904D01*
X122481009Y-66411904D02*
X122576247Y-66364285D01*
X122576247Y-66364285D02*
X122814342Y-66364285D01*
X122814342Y-66364285D02*
X122909580Y-66411904D01*
X122909580Y-66411904D02*
X122957200Y-66459523D01*
X122957200Y-66459523D02*
X123004819Y-66554761D01*
X123004819Y-66554761D02*
X123004819Y-66840475D01*
X123004819Y-66840475D02*
X122957200Y-66935713D01*
X122957200Y-66935713D02*
X122909580Y-66983332D01*
X124083333Y-62609580D02*
X124035714Y-62657200D01*
X124035714Y-62657200D02*
X123892857Y-62704819D01*
X123892857Y-62704819D02*
X123797619Y-62704819D01*
X123797619Y-62704819D02*
X123654762Y-62657200D01*
X123654762Y-62657200D02*
X123559524Y-62561961D01*
X123559524Y-62561961D02*
X123511905Y-62466723D01*
X123511905Y-62466723D02*
X123464286Y-62276247D01*
X123464286Y-62276247D02*
X123464286Y-62133390D01*
X123464286Y-62133390D02*
X123511905Y-61942914D01*
X123511905Y-61942914D02*
X123559524Y-61847676D01*
X123559524Y-61847676D02*
X123654762Y-61752438D01*
X123654762Y-61752438D02*
X123797619Y-61704819D01*
X123797619Y-61704819D02*
X123892857Y-61704819D01*
X123892857Y-61704819D02*
X124035714Y-61752438D01*
X124035714Y-61752438D02*
X124083333Y-61800057D01*
X124940476Y-62038152D02*
X124940476Y-62704819D01*
X124702381Y-61657200D02*
X124464286Y-62371485D01*
X124464286Y-62371485D02*
X125083333Y-62371485D01*
X146108333Y-60954819D02*
X145775000Y-60478628D01*
X145536905Y-60954819D02*
X145536905Y-59954819D01*
X145536905Y-59954819D02*
X145917857Y-59954819D01*
X145917857Y-59954819D02*
X146013095Y-60002438D01*
X146013095Y-60002438D02*
X146060714Y-60050057D01*
X146060714Y-60050057D02*
X146108333Y-60145295D01*
X146108333Y-60145295D02*
X146108333Y-60288152D01*
X146108333Y-60288152D02*
X146060714Y-60383390D01*
X146060714Y-60383390D02*
X146013095Y-60431009D01*
X146013095Y-60431009D02*
X145917857Y-60478628D01*
X145917857Y-60478628D02*
X145536905Y-60478628D01*
X146965476Y-59954819D02*
X146775000Y-59954819D01*
X146775000Y-59954819D02*
X146679762Y-60002438D01*
X146679762Y-60002438D02*
X146632143Y-60050057D01*
X146632143Y-60050057D02*
X146536905Y-60192914D01*
X146536905Y-60192914D02*
X146489286Y-60383390D01*
X146489286Y-60383390D02*
X146489286Y-60764342D01*
X146489286Y-60764342D02*
X146536905Y-60859580D01*
X146536905Y-60859580D02*
X146584524Y-60907200D01*
X146584524Y-60907200D02*
X146679762Y-60954819D01*
X146679762Y-60954819D02*
X146870238Y-60954819D01*
X146870238Y-60954819D02*
X146965476Y-60907200D01*
X146965476Y-60907200D02*
X147013095Y-60859580D01*
X147013095Y-60859580D02*
X147060714Y-60764342D01*
X147060714Y-60764342D02*
X147060714Y-60526247D01*
X147060714Y-60526247D02*
X147013095Y-60431009D01*
X147013095Y-60431009D02*
X146965476Y-60383390D01*
X146965476Y-60383390D02*
X146870238Y-60335771D01*
X146870238Y-60335771D02*
X146679762Y-60335771D01*
X146679762Y-60335771D02*
X146584524Y-60383390D01*
X146584524Y-60383390D02*
X146536905Y-60431009D01*
X146536905Y-60431009D02*
X146489286Y-60526247D01*
D13*
X129535237Y-76574318D02*
X129535237Y-75304318D01*
X130865714Y-76453365D02*
X130805238Y-76513842D01*
X130805238Y-76513842D02*
X130623809Y-76574318D01*
X130623809Y-76574318D02*
X130502857Y-76574318D01*
X130502857Y-76574318D02*
X130321428Y-76513842D01*
X130321428Y-76513842D02*
X130200476Y-76392889D01*
X130200476Y-76392889D02*
X130139999Y-76271937D01*
X130139999Y-76271937D02*
X130079523Y-76030032D01*
X130079523Y-76030032D02*
X130079523Y-75848603D01*
X130079523Y-75848603D02*
X130139999Y-75606699D01*
X130139999Y-75606699D02*
X130200476Y-75485746D01*
X130200476Y-75485746D02*
X130321428Y-75364794D01*
X130321428Y-75364794D02*
X130502857Y-75304318D01*
X130502857Y-75304318D02*
X130623809Y-75304318D01*
X130623809Y-75304318D02*
X130805238Y-75364794D01*
X130805238Y-75364794D02*
X130865714Y-75425270D01*
X131954285Y-75727651D02*
X131954285Y-76574318D01*
X131651904Y-75243842D02*
X131349523Y-76150984D01*
X131349523Y-76150984D02*
X132135714Y-76150984D01*
D12*
X189691666Y-62154819D02*
X189691666Y-62869104D01*
X189691666Y-62869104D02*
X189644047Y-63011961D01*
X189644047Y-63011961D02*
X189548809Y-63107200D01*
X189548809Y-63107200D02*
X189405952Y-63154819D01*
X189405952Y-63154819D02*
X189310714Y-63154819D01*
X190072619Y-62154819D02*
X190691666Y-62154819D01*
X190691666Y-62154819D02*
X190358333Y-62535771D01*
X190358333Y-62535771D02*
X190501190Y-62535771D01*
X190501190Y-62535771D02*
X190596428Y-62583390D01*
X190596428Y-62583390D02*
X190644047Y-62631009D01*
X190644047Y-62631009D02*
X190691666Y-62726247D01*
X190691666Y-62726247D02*
X190691666Y-62964342D01*
X190691666Y-62964342D02*
X190644047Y-63059580D01*
X190644047Y-63059580D02*
X190596428Y-63107200D01*
X190596428Y-63107200D02*
X190501190Y-63154819D01*
X190501190Y-63154819D02*
X190215476Y-63154819D01*
X190215476Y-63154819D02*
X190120238Y-63107200D01*
X190120238Y-63107200D02*
X190072619Y-63059580D01*
X138909580Y-74492857D02*
X138957200Y-74540476D01*
X138957200Y-74540476D02*
X139004819Y-74683333D01*
X139004819Y-74683333D02*
X139004819Y-74778571D01*
X139004819Y-74778571D02*
X138957200Y-74921428D01*
X138957200Y-74921428D02*
X138861961Y-75016666D01*
X138861961Y-75016666D02*
X138766723Y-75064285D01*
X138766723Y-75064285D02*
X138576247Y-75111904D01*
X138576247Y-75111904D02*
X138433390Y-75111904D01*
X138433390Y-75111904D02*
X138242914Y-75064285D01*
X138242914Y-75064285D02*
X138147676Y-75016666D01*
X138147676Y-75016666D02*
X138052438Y-74921428D01*
X138052438Y-74921428D02*
X138004819Y-74778571D01*
X138004819Y-74778571D02*
X138004819Y-74683333D01*
X138004819Y-74683333D02*
X138052438Y-74540476D01*
X138052438Y-74540476D02*
X138100057Y-74492857D01*
X139004819Y-73540476D02*
X139004819Y-74111904D01*
X139004819Y-73826190D02*
X138004819Y-73826190D01*
X138004819Y-73826190D02*
X138147676Y-73921428D01*
X138147676Y-73921428D02*
X138242914Y-74016666D01*
X138242914Y-74016666D02*
X138290533Y-74111904D01*
X138004819Y-73207142D02*
X138004819Y-72588095D01*
X138004819Y-72588095D02*
X138385771Y-72921428D01*
X138385771Y-72921428D02*
X138385771Y-72778571D01*
X138385771Y-72778571D02*
X138433390Y-72683333D01*
X138433390Y-72683333D02*
X138481009Y-72635714D01*
X138481009Y-72635714D02*
X138576247Y-72588095D01*
X138576247Y-72588095D02*
X138814342Y-72588095D01*
X138814342Y-72588095D02*
X138909580Y-72635714D01*
X138909580Y-72635714D02*
X138957200Y-72683333D01*
X138957200Y-72683333D02*
X139004819Y-72778571D01*
X139004819Y-72778571D02*
X139004819Y-73064285D01*
X139004819Y-73064285D02*
X138957200Y-73159523D01*
X138957200Y-73159523D02*
X138909580Y-73207142D01*
X181858333Y-68039580D02*
X181810714Y-68087200D01*
X181810714Y-68087200D02*
X181667857Y-68134819D01*
X181667857Y-68134819D02*
X181572619Y-68134819D01*
X181572619Y-68134819D02*
X181429762Y-68087200D01*
X181429762Y-68087200D02*
X181334524Y-67991961D01*
X181334524Y-67991961D02*
X181286905Y-67896723D01*
X181286905Y-67896723D02*
X181239286Y-67706247D01*
X181239286Y-67706247D02*
X181239286Y-67563390D01*
X181239286Y-67563390D02*
X181286905Y-67372914D01*
X181286905Y-67372914D02*
X181334524Y-67277676D01*
X181334524Y-67277676D02*
X181429762Y-67182438D01*
X181429762Y-67182438D02*
X181572619Y-67134819D01*
X181572619Y-67134819D02*
X181667857Y-67134819D01*
X181667857Y-67134819D02*
X181810714Y-67182438D01*
X181810714Y-67182438D02*
X181858333Y-67230057D01*
X182334524Y-68134819D02*
X182525000Y-68134819D01*
X182525000Y-68134819D02*
X182620238Y-68087200D01*
X182620238Y-68087200D02*
X182667857Y-68039580D01*
X182667857Y-68039580D02*
X182763095Y-67896723D01*
X182763095Y-67896723D02*
X182810714Y-67706247D01*
X182810714Y-67706247D02*
X182810714Y-67325295D01*
X182810714Y-67325295D02*
X182763095Y-67230057D01*
X182763095Y-67230057D02*
X182715476Y-67182438D01*
X182715476Y-67182438D02*
X182620238Y-67134819D01*
X182620238Y-67134819D02*
X182429762Y-67134819D01*
X182429762Y-67134819D02*
X182334524Y-67182438D01*
X182334524Y-67182438D02*
X182286905Y-67230057D01*
X182286905Y-67230057D02*
X182239286Y-67325295D01*
X182239286Y-67325295D02*
X182239286Y-67563390D01*
X182239286Y-67563390D02*
X182286905Y-67658628D01*
X182286905Y-67658628D02*
X182334524Y-67706247D01*
X182334524Y-67706247D02*
X182429762Y-67753866D01*
X182429762Y-67753866D02*
X182620238Y-67753866D01*
X182620238Y-67753866D02*
X182715476Y-67706247D01*
X182715476Y-67706247D02*
X182763095Y-67658628D01*
X182763095Y-67658628D02*
X182810714Y-67563390D01*
D13*
X128373237Y-66296318D02*
X128373237Y-65026318D01*
X129703714Y-66175365D02*
X129643238Y-66235842D01*
X129643238Y-66235842D02*
X129461809Y-66296318D01*
X129461809Y-66296318D02*
X129340857Y-66296318D01*
X129340857Y-66296318D02*
X129159428Y-66235842D01*
X129159428Y-66235842D02*
X129038476Y-66114889D01*
X129038476Y-66114889D02*
X128977999Y-65993937D01*
X128977999Y-65993937D02*
X128917523Y-65752032D01*
X128917523Y-65752032D02*
X128917523Y-65570603D01*
X128917523Y-65570603D02*
X128977999Y-65328699D01*
X128977999Y-65328699D02*
X129038476Y-65207746D01*
X129038476Y-65207746D02*
X129159428Y-65086794D01*
X129159428Y-65086794D02*
X129340857Y-65026318D01*
X129340857Y-65026318D02*
X129461809Y-65026318D01*
X129461809Y-65026318D02*
X129643238Y-65086794D01*
X129643238Y-65086794D02*
X129703714Y-65147270D01*
X130852761Y-65026318D02*
X130247999Y-65026318D01*
X130247999Y-65026318D02*
X130187523Y-65631080D01*
X130187523Y-65631080D02*
X130247999Y-65570603D01*
X130247999Y-65570603D02*
X130368952Y-65510127D01*
X130368952Y-65510127D02*
X130671333Y-65510127D01*
X130671333Y-65510127D02*
X130792285Y-65570603D01*
X130792285Y-65570603D02*
X130852761Y-65631080D01*
X130852761Y-65631080D02*
X130913238Y-65752032D01*
X130913238Y-65752032D02*
X130913238Y-66054413D01*
X130913238Y-66054413D02*
X130852761Y-66175365D01*
X130852761Y-66175365D02*
X130792285Y-66235842D01*
X130792285Y-66235842D02*
X130671333Y-66296318D01*
X130671333Y-66296318D02*
X130368952Y-66296318D01*
X130368952Y-66296318D02*
X130247999Y-66235842D01*
X130247999Y-66235842D02*
X130187523Y-66175365D01*
X144520238Y-73269556D02*
X144520238Y-73874318D01*
X144096905Y-72604318D02*
X144520238Y-73269556D01*
X144520238Y-73269556D02*
X144943572Y-72604318D01*
X146032143Y-73874318D02*
X145306428Y-73874318D01*
X145669285Y-73874318D02*
X145669285Y-72604318D01*
X145669285Y-72604318D02*
X145548333Y-72785746D01*
X145548333Y-72785746D02*
X145427381Y-72906699D01*
X145427381Y-72906699D02*
X145306428Y-72967175D01*
D11*
X125322607Y-65924999D02*
X125322607Y-66174999D01*
X125715464Y-66174999D02*
X124965464Y-66174999D01*
X124965464Y-66174999D02*
X124965464Y-65817856D01*
X125322607Y-65282142D02*
X125358321Y-65174999D01*
X125358321Y-65174999D02*
X125394035Y-65139285D01*
X125394035Y-65139285D02*
X125465464Y-65103571D01*
X125465464Y-65103571D02*
X125572607Y-65103571D01*
X125572607Y-65103571D02*
X125644035Y-65139285D01*
X125644035Y-65139285D02*
X125679750Y-65174999D01*
X125679750Y-65174999D02*
X125715464Y-65246428D01*
X125715464Y-65246428D02*
X125715464Y-65532142D01*
X125715464Y-65532142D02*
X124965464Y-65532142D01*
X124965464Y-65532142D02*
X124965464Y-65282142D01*
X124965464Y-65282142D02*
X125001178Y-65210714D01*
X125001178Y-65210714D02*
X125036892Y-65174999D01*
X125036892Y-65174999D02*
X125108321Y-65139285D01*
X125108321Y-65139285D02*
X125179750Y-65139285D01*
X125179750Y-65139285D02*
X125251178Y-65174999D01*
X125251178Y-65174999D02*
X125286892Y-65210714D01*
X125286892Y-65210714D02*
X125322607Y-65282142D01*
X125322607Y-65282142D02*
X125322607Y-65532142D01*
X125715464Y-64389285D02*
X125715464Y-64817856D01*
X125715464Y-64603571D02*
X124965464Y-64603571D01*
X124965464Y-64603571D02*
X125072607Y-64674999D01*
X125072607Y-64674999D02*
X125144035Y-64746428D01*
X125144035Y-64746428D02*
X125179750Y-64817856D01*
D12*
X176474405Y-64304819D02*
X176474405Y-63304819D01*
X176474405Y-63304819D02*
X176712500Y-63304819D01*
X176712500Y-63304819D02*
X176855357Y-63352438D01*
X176855357Y-63352438D02*
X176950595Y-63447676D01*
X176950595Y-63447676D02*
X176998214Y-63542914D01*
X176998214Y-63542914D02*
X177045833Y-63733390D01*
X177045833Y-63733390D02*
X177045833Y-63876247D01*
X177045833Y-63876247D02*
X176998214Y-64066723D01*
X176998214Y-64066723D02*
X176950595Y-64161961D01*
X176950595Y-64161961D02*
X176855357Y-64257200D01*
X176855357Y-64257200D02*
X176712500Y-64304819D01*
X176712500Y-64304819D02*
X176474405Y-64304819D01*
X177998214Y-64304819D02*
X177426786Y-64304819D01*
X177712500Y-64304819D02*
X177712500Y-63304819D01*
X177712500Y-63304819D02*
X177617262Y-63447676D01*
X177617262Y-63447676D02*
X177522024Y-63542914D01*
X177522024Y-63542914D02*
X177426786Y-63590533D01*
D13*
X114867318Y-67923332D02*
X115774461Y-67923332D01*
X115774461Y-67923332D02*
X115955889Y-67983809D01*
X115955889Y-67983809D02*
X116076842Y-68104761D01*
X116076842Y-68104761D02*
X116137318Y-68286190D01*
X116137318Y-68286190D02*
X116137318Y-68407142D01*
X116137318Y-66653332D02*
X116137318Y-67379047D01*
X116137318Y-67016190D02*
X114867318Y-67016190D01*
X114867318Y-67016190D02*
X115048746Y-67137142D01*
X115048746Y-67137142D02*
X115169699Y-67258094D01*
X115169699Y-67258094D02*
X115230175Y-67379047D01*
D12*
X154884580Y-69166666D02*
X154932200Y-69214285D01*
X154932200Y-69214285D02*
X154979819Y-69357142D01*
X154979819Y-69357142D02*
X154979819Y-69452380D01*
X154979819Y-69452380D02*
X154932200Y-69595237D01*
X154932200Y-69595237D02*
X154836961Y-69690475D01*
X154836961Y-69690475D02*
X154741723Y-69738094D01*
X154741723Y-69738094D02*
X154551247Y-69785713D01*
X154551247Y-69785713D02*
X154408390Y-69785713D01*
X154408390Y-69785713D02*
X154217914Y-69738094D01*
X154217914Y-69738094D02*
X154122676Y-69690475D01*
X154122676Y-69690475D02*
X154027438Y-69595237D01*
X154027438Y-69595237D02*
X153979819Y-69452380D01*
X153979819Y-69452380D02*
X153979819Y-69357142D01*
X153979819Y-69357142D02*
X154027438Y-69214285D01*
X154027438Y-69214285D02*
X154075057Y-69166666D01*
X154979819Y-68214285D02*
X154979819Y-68785713D01*
X154979819Y-68499999D02*
X153979819Y-68499999D01*
X153979819Y-68499999D02*
X154122676Y-68595237D01*
X154122676Y-68595237D02*
X154217914Y-68690475D01*
X154217914Y-68690475D02*
X154265533Y-68785713D01*
X128258333Y-60554819D02*
X127925000Y-60078628D01*
X127686905Y-60554819D02*
X127686905Y-59554819D01*
X127686905Y-59554819D02*
X128067857Y-59554819D01*
X128067857Y-59554819D02*
X128163095Y-59602438D01*
X128163095Y-59602438D02*
X128210714Y-59650057D01*
X128210714Y-59650057D02*
X128258333Y-59745295D01*
X128258333Y-59745295D02*
X128258333Y-59888152D01*
X128258333Y-59888152D02*
X128210714Y-59983390D01*
X128210714Y-59983390D02*
X128163095Y-60031009D01*
X128163095Y-60031009D02*
X128067857Y-60078628D01*
X128067857Y-60078628D02*
X127686905Y-60078628D01*
X129210714Y-60554819D02*
X128639286Y-60554819D01*
X128925000Y-60554819D02*
X128925000Y-59554819D01*
X128925000Y-59554819D02*
X128829762Y-59697676D01*
X128829762Y-59697676D02*
X128734524Y-59792914D01*
X128734524Y-59792914D02*
X128639286Y-59840533D01*
D13*
X159985237Y-66849318D02*
X159985237Y-65579318D01*
X161315714Y-66728365D02*
X161255238Y-66788842D01*
X161255238Y-66788842D02*
X161073809Y-66849318D01*
X161073809Y-66849318D02*
X160952857Y-66849318D01*
X160952857Y-66849318D02*
X160771428Y-66788842D01*
X160771428Y-66788842D02*
X160650476Y-66667889D01*
X160650476Y-66667889D02*
X160589999Y-66546937D01*
X160589999Y-66546937D02*
X160529523Y-66305032D01*
X160529523Y-66305032D02*
X160529523Y-66123603D01*
X160529523Y-66123603D02*
X160589999Y-65881699D01*
X160589999Y-65881699D02*
X160650476Y-65760746D01*
X160650476Y-65760746D02*
X160771428Y-65639794D01*
X160771428Y-65639794D02*
X160952857Y-65579318D01*
X160952857Y-65579318D02*
X161073809Y-65579318D01*
X161073809Y-65579318D02*
X161255238Y-65639794D01*
X161255238Y-65639794D02*
X161315714Y-65700270D01*
X161739047Y-65579318D02*
X162525238Y-65579318D01*
X162525238Y-65579318D02*
X162101904Y-66063127D01*
X162101904Y-66063127D02*
X162283333Y-66063127D01*
X162283333Y-66063127D02*
X162404285Y-66123603D01*
X162404285Y-66123603D02*
X162464761Y-66184080D01*
X162464761Y-66184080D02*
X162525238Y-66305032D01*
X162525238Y-66305032D02*
X162525238Y-66607413D01*
X162525238Y-66607413D02*
X162464761Y-66728365D01*
X162464761Y-66728365D02*
X162404285Y-66788842D01*
X162404285Y-66788842D02*
X162283333Y-66849318D01*
X162283333Y-66849318D02*
X161920476Y-66849318D01*
X161920476Y-66849318D02*
X161799523Y-66788842D01*
X161799523Y-66788842D02*
X161739047Y-66728365D01*
D12*
X121254580Y-57741666D02*
X121302200Y-57789285D01*
X121302200Y-57789285D02*
X121349819Y-57932142D01*
X121349819Y-57932142D02*
X121349819Y-58027380D01*
X121349819Y-58027380D02*
X121302200Y-58170237D01*
X121302200Y-58170237D02*
X121206961Y-58265475D01*
X121206961Y-58265475D02*
X121111723Y-58313094D01*
X121111723Y-58313094D02*
X120921247Y-58360713D01*
X120921247Y-58360713D02*
X120778390Y-58360713D01*
X120778390Y-58360713D02*
X120587914Y-58313094D01*
X120587914Y-58313094D02*
X120492676Y-58265475D01*
X120492676Y-58265475D02*
X120397438Y-58170237D01*
X120397438Y-58170237D02*
X120349819Y-58027380D01*
X120349819Y-58027380D02*
X120349819Y-57932142D01*
X120349819Y-57932142D02*
X120397438Y-57789285D01*
X120397438Y-57789285D02*
X120445057Y-57741666D01*
X120349819Y-56836904D02*
X120349819Y-57313094D01*
X120349819Y-57313094D02*
X120826009Y-57360713D01*
X120826009Y-57360713D02*
X120778390Y-57313094D01*
X120778390Y-57313094D02*
X120730771Y-57217856D01*
X120730771Y-57217856D02*
X120730771Y-56979761D01*
X120730771Y-56979761D02*
X120778390Y-56884523D01*
X120778390Y-56884523D02*
X120826009Y-56836904D01*
X120826009Y-56836904D02*
X120921247Y-56789285D01*
X120921247Y-56789285D02*
X121159342Y-56789285D01*
X121159342Y-56789285D02*
X121254580Y-56836904D01*
X121254580Y-56836904D02*
X121302200Y-56884523D01*
X121302200Y-56884523D02*
X121349819Y-56979761D01*
X121349819Y-56979761D02*
X121349819Y-57217856D01*
X121349819Y-57217856D02*
X121302200Y-57313094D01*
X121302200Y-57313094D02*
X121254580Y-57360713D01*
X137108333Y-60954819D02*
X136775000Y-60478628D01*
X136536905Y-60954819D02*
X136536905Y-59954819D01*
X136536905Y-59954819D02*
X136917857Y-59954819D01*
X136917857Y-59954819D02*
X137013095Y-60002438D01*
X137013095Y-60002438D02*
X137060714Y-60050057D01*
X137060714Y-60050057D02*
X137108333Y-60145295D01*
X137108333Y-60145295D02*
X137108333Y-60288152D01*
X137108333Y-60288152D02*
X137060714Y-60383390D01*
X137060714Y-60383390D02*
X137013095Y-60431009D01*
X137013095Y-60431009D02*
X136917857Y-60478628D01*
X136917857Y-60478628D02*
X136536905Y-60478628D01*
X137441667Y-59954819D02*
X138108333Y-59954819D01*
X138108333Y-59954819D02*
X137679762Y-60954819D01*
D14*
%TO.C,C6*%
X121840000Y-60928733D02*
X121840000Y-61221267D01*
X122860000Y-60928733D02*
X122860000Y-61221267D01*
%TO.C,C12*%
X141015000Y-73641233D02*
X141015000Y-73933767D01*
X142035000Y-73641233D02*
X142035000Y-73933767D01*
%TO.C,R4*%
X184002500Y-63995276D02*
X184002500Y-64504724D01*
X185047500Y-63995276D02*
X185047500Y-64504724D01*
D15*
%TO.C,FL1*%
X167175000Y-65615000D02*
X167175000Y-65615000D01*
X167275000Y-65615000D02*
X167275000Y-65615000D01*
D10*
X168275000Y-64600000D02*
X173275000Y-64600000D01*
X168275000Y-65050000D02*
X168275000Y-64600000D01*
X168275000Y-67450000D02*
X168275000Y-67900000D01*
X168275000Y-67900000D02*
X173275000Y-67900000D01*
X173275000Y-64600000D02*
X173275000Y-65050000D01*
X173275000Y-67900000D02*
X173275000Y-67450000D01*
D15*
X167175000Y-65615000D02*
G75*
G02*
X167275000Y-65615000I50000J0D01*
G01*
X167275000Y-65615000D02*
G75*
G02*
X167175000Y-65615000I-50000J0D01*
G01*
D14*
%TO.C,C3*%
X133515000Y-73103733D02*
X133515000Y-73396267D01*
X134535000Y-73103733D02*
X134535000Y-73396267D01*
D16*
%TO.C,G\u002A\u002A\u002A*%
G36*
X170987210Y-74617106D02*
G01*
X171057230Y-74663954D01*
X171114485Y-74782739D01*
X171096771Y-74908735D01*
X171017601Y-74994141D01*
X170960324Y-75006690D01*
X170832011Y-74963549D01*
X170778798Y-74918012D01*
X170731911Y-74793833D01*
X170771911Y-74683223D01*
X170867458Y-74614781D01*
X170987210Y-74617106D01*
G37*
G36*
X172127659Y-74622752D02*
G01*
X172211952Y-74722911D01*
X172220594Y-74856655D01*
X172204746Y-74895677D01*
X172110054Y-74982753D01*
X171988269Y-75002393D01*
X171890980Y-74950685D01*
X171874306Y-74920736D01*
X171856656Y-74762317D01*
X171917478Y-74639872D01*
X171997212Y-74598426D01*
X172127659Y-74622752D01*
G37*
G36*
X153707484Y-74660786D02*
G01*
X153851662Y-74701500D01*
X153925031Y-74757981D01*
X154014096Y-74914141D01*
X153994482Y-75051224D01*
X153876441Y-75158847D01*
X153670225Y-75226625D01*
X153444009Y-75245187D01*
X153129342Y-75245187D01*
X153129342Y-74947065D01*
X153129342Y-74648943D01*
X153477847Y-74648943D01*
X153707484Y-74660786D01*
G37*
G36*
X160087296Y-74660786D02*
G01*
X160231474Y-74701500D01*
X160304843Y-74757981D01*
X160389521Y-74906120D01*
X160364593Y-75030575D01*
X160238669Y-75123297D01*
X160020363Y-75176240D01*
X159847300Y-75185563D01*
X159509154Y-75185563D01*
X159509154Y-74917253D01*
X159509154Y-74648943D01*
X159857660Y-74648943D01*
X160087296Y-74660786D01*
G37*
G36*
X157800510Y-74689486D02*
G01*
X158047879Y-74802938D01*
X158213889Y-74977033D01*
X158286483Y-75199504D01*
X158259806Y-75438346D01*
X158187244Y-75606404D01*
X158068047Y-75718315D01*
X157940240Y-75785102D01*
X157729948Y-75857523D01*
X157516166Y-75897247D01*
X157467018Y-75899746D01*
X157243426Y-75901056D01*
X157243426Y-75275000D01*
X157243426Y-74648943D01*
X157483839Y-74648943D01*
X157800510Y-74689486D01*
G37*
G36*
X171035613Y-75283067D02*
G01*
X171052043Y-75335567D01*
X171133916Y-75490095D01*
X171275131Y-75628490D01*
X171431880Y-75712402D01*
X171493661Y-75722183D01*
X171640189Y-75675221D01*
X171790901Y-75561405D01*
X171898694Y-75421335D01*
X171921947Y-75353012D01*
X171965017Y-75241887D01*
X172029371Y-75199228D01*
X172080252Y-75236617D01*
X172089905Y-75297038D01*
X172037629Y-75539986D01*
X171898590Y-75730536D01*
X171699469Y-75853035D01*
X171466950Y-75891830D01*
X171227715Y-75831267D01*
X171202102Y-75817850D01*
X171028319Y-75662408D01*
X170919778Y-75448530D01*
X170899530Y-75319718D01*
X170922172Y-75208076D01*
X170976764Y-75196819D01*
X171035613Y-75283067D01*
G37*
G36*
X172749110Y-73496070D02*
G01*
X172836165Y-73621967D01*
X172864981Y-73844723D01*
X172865023Y-73855939D01*
X172877942Y-74011758D01*
X172910472Y-74102706D01*
X172927357Y-74112324D01*
X173008293Y-74151104D01*
X173122891Y-74245765D01*
X173136043Y-74258674D01*
X173193036Y-74320581D01*
X173232915Y-74387293D01*
X173258729Y-74480003D01*
X173273532Y-74619904D01*
X173280375Y-74828191D01*
X173282310Y-75126055D01*
X173282394Y-75275000D01*
X173281567Y-75614621D01*
X173277053Y-75856189D01*
X173265800Y-76020896D01*
X173244755Y-76129936D01*
X173210867Y-76204502D01*
X173161085Y-76265787D01*
X173136043Y-76291325D01*
X173021549Y-76390202D01*
X172936539Y-76437082D01*
X172930624Y-76437676D01*
X172892742Y-76491188D01*
X172862721Y-76627312D01*
X172853384Y-76720892D01*
X172835211Y-77004108D01*
X172596713Y-77004108D01*
X172358215Y-77004108D01*
X172341063Y-76849743D01*
X172516800Y-76849743D01*
X172550027Y-76904051D01*
X172577832Y-76901090D01*
X172632431Y-76829431D01*
X172656296Y-76692230D01*
X172656337Y-76686111D01*
X172637134Y-76532614D01*
X172593500Y-76487678D01*
X172546403Y-76549592D01*
X172518208Y-76697373D01*
X172516800Y-76849743D01*
X172341063Y-76849743D01*
X172328403Y-76735798D01*
X172298591Y-76467488D01*
X172030281Y-76467488D01*
X171761971Y-76467488D01*
X171732159Y-76735798D01*
X171702347Y-77004108D01*
X171463849Y-77004108D01*
X171225351Y-77004108D01*
X171207178Y-76720892D01*
X171203443Y-76662683D01*
X171373703Y-76662683D01*
X171376052Y-76790846D01*
X171412541Y-76873300D01*
X171482712Y-76891418D01*
X171534780Y-76812549D01*
X171553286Y-76672654D01*
X171526173Y-76533240D01*
X171463849Y-76497300D01*
X171405351Y-76547375D01*
X171373703Y-76662683D01*
X171203443Y-76662683D01*
X171189005Y-76437676D01*
X170923962Y-76437676D01*
X170760396Y-76442408D01*
X170683428Y-76473339D01*
X170660413Y-76555574D01*
X170658919Y-76641485D01*
X170648631Y-76810280D01*
X170623772Y-76936803D01*
X170622728Y-76939607D01*
X170541792Y-77006139D01*
X170398732Y-77033147D01*
X170244742Y-77018245D01*
X170134225Y-76962370D01*
X170084839Y-76856631D01*
X170062757Y-76697940D01*
X170062675Y-76688170D01*
X170057636Y-76662683D01*
X170300463Y-76662683D01*
X170302812Y-76790846D01*
X170339302Y-76873300D01*
X170409472Y-76891418D01*
X170461540Y-76812549D01*
X170480046Y-76672654D01*
X170452934Y-76533240D01*
X170390610Y-76497300D01*
X170332112Y-76547375D01*
X170300463Y-76662683D01*
X170057636Y-76662683D01*
X170025552Y-76500386D01*
X169898679Y-76332572D01*
X169883802Y-76318427D01*
X169704929Y-76151334D01*
X169704929Y-75288846D01*
X169883802Y-75288846D01*
X169884559Y-75623949D01*
X169888734Y-75859167D01*
X169899189Y-76013862D01*
X169918781Y-76107398D01*
X169950370Y-76159136D01*
X169996816Y-76188440D01*
X170017957Y-76197320D01*
X170123899Y-76215638D01*
X170327286Y-76230404D01*
X170606364Y-76241594D01*
X170939382Y-76249184D01*
X171304587Y-76253147D01*
X171680226Y-76253461D01*
X172044548Y-76250099D01*
X172375799Y-76243038D01*
X172652228Y-76232252D01*
X172852081Y-76217716D01*
X172950578Y-76200654D01*
X173103520Y-76142505D01*
X173103520Y-75288400D01*
X173098874Y-74890670D01*
X173084663Y-74606550D01*
X173060479Y-74430755D01*
X173031971Y-74362746D01*
X172949911Y-74339095D01*
X172768859Y-74319818D01*
X172508991Y-74304916D01*
X172190485Y-74294389D01*
X171833516Y-74288237D01*
X171458261Y-74286460D01*
X171084898Y-74289057D01*
X170733602Y-74296029D01*
X170424550Y-74307376D01*
X170177918Y-74323098D01*
X170013884Y-74343195D01*
X169955351Y-74362746D01*
X169922433Y-74451103D01*
X169899825Y-74643283D01*
X169887121Y-74944581D01*
X169883802Y-75288846D01*
X169704929Y-75288846D01*
X169704929Y-75275000D01*
X169704929Y-74398665D01*
X169883802Y-74231572D01*
X170030004Y-74038210D01*
X170062675Y-73892983D01*
X170070430Y-73854202D01*
X170245453Y-73854202D01*
X170260159Y-74013533D01*
X170266677Y-74032181D01*
X170325762Y-74104706D01*
X170392270Y-74078114D01*
X170447212Y-73969577D01*
X170469045Y-73849187D01*
X170472718Y-73703207D01*
X170441851Y-73645962D01*
X170379608Y-73645720D01*
X170289842Y-73715949D01*
X170245453Y-73854202D01*
X170070430Y-73854202D01*
X170103404Y-73689319D01*
X170209651Y-73534111D01*
X170357506Y-73459064D01*
X170391893Y-73456455D01*
X170539665Y-73508594D01*
X170629699Y-73661566D01*
X170658919Y-73899718D01*
X170664435Y-74030351D01*
X170702619Y-74092209D01*
X170805926Y-74111010D01*
X170927229Y-74112324D01*
X171092088Y-74107953D01*
X171170154Y-74077697D01*
X171193882Y-73995837D01*
X171195539Y-73899718D01*
X171199996Y-73864922D01*
X171379083Y-73864922D01*
X171392791Y-74012573D01*
X171399088Y-74031002D01*
X171451273Y-74095998D01*
X171504655Y-74063069D01*
X171543380Y-73952316D01*
X171553286Y-73835526D01*
X171535906Y-73686253D01*
X171483106Y-73648681D01*
X171478755Y-73649936D01*
X171411507Y-73726016D01*
X171379083Y-73864922D01*
X171199996Y-73864922D01*
X171226768Y-73655892D01*
X171317678Y-73505816D01*
X171458646Y-73456455D01*
X171605841Y-73490993D01*
X171695638Y-73605635D01*
X171740136Y-73816922D01*
X171742622Y-73844770D01*
X171761971Y-74082511D01*
X172045187Y-74100684D01*
X172328403Y-74118857D01*
X172328403Y-73859205D01*
X172331285Y-73834076D01*
X172507276Y-73834076D01*
X172517722Y-73980844D01*
X172543099Y-74068285D01*
X172545405Y-74070953D01*
X172615111Y-74089939D01*
X172665854Y-74008741D01*
X172686132Y-73846189D01*
X172686149Y-73840495D01*
X172666061Y-73687546D01*
X172602314Y-73635504D01*
X172596713Y-73635328D01*
X172529048Y-73683009D01*
X172507277Y-73832606D01*
X172507276Y-73834076D01*
X172331285Y-73834076D01*
X172354542Y-73631268D01*
X172437822Y-73500713D01*
X172585536Y-73456593D01*
X172596713Y-73456455D01*
X172749110Y-73496070D01*
G37*
G36*
X174579766Y-75260093D02*
G01*
X174564319Y-78315845D01*
X162624530Y-78330897D01*
X150684741Y-78345949D01*
X150684741Y-78047535D01*
X168691314Y-78047535D01*
X171463849Y-78047535D01*
X174236384Y-78047535D01*
X174236384Y-75275000D01*
X174236384Y-72502464D01*
X171463849Y-72502464D01*
X168691314Y-72502464D01*
X168691314Y-75275000D01*
X168691314Y-78047535D01*
X150684741Y-78047535D01*
X150684741Y-75275146D01*
X150684741Y-75235250D01*
X150684741Y-74171948D01*
X152592722Y-74171948D01*
X152592722Y-75235250D01*
X152594851Y-75579883D01*
X152600758Y-75882435D01*
X152609730Y-76123051D01*
X152621051Y-76281875D01*
X152632472Y-76338302D01*
X152712989Y-76364047D01*
X152861943Y-76377490D01*
X152900782Y-76378051D01*
X153129342Y-76378051D01*
X153129342Y-76050117D01*
X153137030Y-75870505D01*
X153156863Y-75751391D01*
X153176097Y-75722183D01*
X153237427Y-75761797D01*
X153357515Y-75866692D01*
X153512717Y-76015950D01*
X153546713Y-76050117D01*
X153716142Y-76216706D01*
X153838816Y-76314582D01*
X153949632Y-76361938D01*
X154083488Y-76376970D01*
X154175701Y-76378051D01*
X154739201Y-76378051D01*
X155603755Y-76378051D01*
X156468309Y-76378051D01*
X156706807Y-76378051D01*
X157335238Y-76378051D01*
X157646351Y-76373509D01*
X157869047Y-76357071D01*
X158033912Y-76324521D01*
X158171533Y-76271644D01*
X158196338Y-76259353D01*
X158487087Y-76049837D01*
X158682966Y-75770459D01*
X158777625Y-75430626D01*
X158781361Y-75392701D01*
X158786308Y-75230512D01*
X158790190Y-75103268D01*
X158752387Y-74885483D01*
X158655959Y-74696885D01*
X158545451Y-74557554D01*
X158393545Y-74399852D01*
X158245102Y-74291485D01*
X158072832Y-74223535D01*
X157849445Y-74187082D01*
X157547652Y-74173207D01*
X157365636Y-74171948D01*
X156706807Y-74171948D01*
X156706807Y-75275000D01*
X156706807Y-76378051D01*
X156468309Y-76378051D01*
X156468309Y-76141639D01*
X156468309Y-75905228D01*
X155857159Y-75888236D01*
X155246009Y-75871244D01*
X155246009Y-75692370D01*
X155246009Y-75513497D01*
X155857159Y-75496505D01*
X156468309Y-75479513D01*
X156468309Y-75275000D01*
X156468309Y-75245187D01*
X156468309Y-75010861D01*
X155857159Y-74993869D01*
X155582599Y-74985277D01*
X155405754Y-74973989D01*
X155305132Y-74954166D01*
X155259241Y-74919968D01*
X155246587Y-74865556D01*
X155246009Y-74827816D01*
X155249940Y-74760741D01*
X155276061Y-74716882D01*
X155345865Y-74690399D01*
X155480844Y-74675454D01*
X155702491Y-74666205D01*
X155857159Y-74661763D01*
X156468309Y-74644772D01*
X156468309Y-74408360D01*
X156468309Y-74171948D01*
X155603755Y-74171948D01*
X154739201Y-74171948D01*
X154739201Y-75275000D01*
X154739201Y-76378051D01*
X154175701Y-76378051D01*
X154357799Y-76370586D01*
X154487288Y-76351514D01*
X154522028Y-76336852D01*
X154504352Y-76277445D01*
X154418692Y-76160715D01*
X154283413Y-76011578D01*
X154278866Y-76006952D01*
X153994506Y-75718251D01*
X154189162Y-75565909D01*
X154415706Y-75328222D01*
X154439712Y-75275000D01*
X154534085Y-75065770D01*
X154543799Y-74795988D01*
X154444349Y-74536310D01*
X154235235Y-74304172D01*
X154225544Y-74296461D01*
X154146466Y-74243557D01*
X154052553Y-74208036D01*
X153919591Y-74186531D01*
X153723364Y-74175676D01*
X153439656Y-74172103D01*
X153329987Y-74171948D01*
X152592722Y-74171948D01*
X150684741Y-74171948D01*
X150684741Y-74162471D01*
X158972534Y-74162471D01*
X158972534Y-75230512D01*
X158974654Y-75575936D01*
X158980537Y-75879308D01*
X158989474Y-76120822D01*
X159000753Y-76280670D01*
X159012284Y-76338302D01*
X159092922Y-76364189D01*
X159241521Y-76377553D01*
X159277618Y-76378051D01*
X159503203Y-76378051D01*
X159521085Y-76035211D01*
X159538966Y-75692370D01*
X159997004Y-75662558D01*
X160333466Y-75619964D01*
X160575441Y-75534859D01*
X160743790Y-75394981D01*
X160859374Y-75188067D01*
X160874857Y-75146533D01*
X160927138Y-74883213D01*
X160877250Y-74647174D01*
X160718950Y-74410446D01*
X160718854Y-74410303D01*
X160705430Y-74395080D01*
X160532847Y-74201760D01*
X159752691Y-74182116D01*
X159348892Y-74171948D01*
X160999765Y-74171948D01*
X160999765Y-74410446D01*
X161014533Y-74576280D01*
X161063489Y-74644615D01*
X161089201Y-74648943D01*
X161130851Y-74668613D01*
X161157615Y-74740681D01*
X161172420Y-74884740D01*
X161178198Y-75120379D01*
X161178638Y-75247059D01*
X161175057Y-75532269D01*
X161162411Y-75718571D01*
X161137847Y-75826142D01*
X161098511Y-75875161D01*
X161089201Y-75879494D01*
X161031732Y-75955547D01*
X161001101Y-76094317D01*
X161002903Y-76241179D01*
X161041956Y-76340744D01*
X161119160Y-76359909D01*
X161279583Y-76368670D01*
X161474233Y-76365587D01*
X161864319Y-76348239D01*
X161883748Y-76144455D01*
X161872272Y-75967627D01*
X161809218Y-75888089D01*
X161761119Y-75804623D01*
X161727969Y-75637831D01*
X161709888Y-75419888D01*
X161706996Y-75182970D01*
X161719412Y-74959252D01*
X161747255Y-74780910D01*
X161790645Y-74680118D01*
X161804694Y-74670505D01*
X161872465Y-74582023D01*
X161894131Y-74404066D01*
X161894131Y-74171948D01*
X162073004Y-74171948D01*
X162073004Y-75235250D01*
X162075132Y-75579883D01*
X162081040Y-75882435D01*
X162090012Y-76123051D01*
X162101333Y-76281875D01*
X162112754Y-76338302D01*
X162193270Y-76364047D01*
X162342224Y-76377490D01*
X162381063Y-76378051D01*
X162609624Y-76378051D01*
X162609624Y-75722183D01*
X162613412Y-75458972D01*
X162623683Y-75246656D01*
X162638801Y-75109169D01*
X162654342Y-75069018D01*
X162707452Y-75112584D01*
X162823166Y-75230534D01*
X162986393Y-75406786D01*
X163182041Y-75625257D01*
X163265492Y-75720286D01*
X163488521Y-75974041D01*
X163651090Y-76151305D01*
X163770580Y-76265926D01*
X163864372Y-76331751D01*
X163949847Y-76362629D01*
X164044386Y-76372406D01*
X164085328Y-76373451D01*
X164338732Y-76378051D01*
X164338732Y-75275000D01*
X164338732Y-75235250D01*
X164338732Y-74171948D01*
X164577229Y-74171948D01*
X164577229Y-75235250D01*
X164579511Y-75580132D01*
X164585844Y-75883172D01*
X164595461Y-76124446D01*
X164607596Y-76284030D01*
X164619817Y-76341139D01*
X164702677Y-76365036D01*
X164849782Y-76367676D01*
X164873220Y-76365983D01*
X165084037Y-76348239D01*
X165101555Y-75915962D01*
X165121328Y-75672701D01*
X165162771Y-75528293D01*
X165234640Y-75482953D01*
X165345693Y-75536895D01*
X165504690Y-75690333D01*
X165710093Y-75930868D01*
X165879996Y-76136457D01*
X165999764Y-76266814D01*
X166094682Y-76339078D01*
X166190032Y-76370388D01*
X166311099Y-76377882D01*
X166369792Y-76378051D01*
X166538590Y-76366910D01*
X166645043Y-76338460D01*
X166664084Y-76316861D01*
X166629193Y-76246389D01*
X166535375Y-76106801D01*
X166398915Y-75921520D01*
X166304610Y-75799768D01*
X165945136Y-75343866D01*
X166011782Y-75275000D01*
X166122715Y-75160372D01*
X166311805Y-74907496D01*
X166439771Y-74619887D01*
X166485211Y-74352736D01*
X166477593Y-74241578D01*
X166433159Y-74188931D01*
X166319534Y-74172981D01*
X166216901Y-74171948D01*
X166052012Y-74176706D01*
X165973928Y-74206729D01*
X165950214Y-74285639D01*
X165948591Y-74367367D01*
X165894060Y-74618375D01*
X165735583Y-74816687D01*
X165548863Y-74926180D01*
X165348506Y-74990341D01*
X165218127Y-74975276D01*
X165144880Y-74870039D01*
X165115917Y-74663681D01*
X165113849Y-74555489D01*
X165113849Y-74171948D01*
X164845539Y-74171948D01*
X164577229Y-74171948D01*
X164338732Y-74171948D01*
X164100234Y-74171948D01*
X163861736Y-74171948D01*
X163861736Y-74798004D01*
X163856842Y-75054995D01*
X163843608Y-75260864D01*
X163824204Y-75390983D01*
X163806539Y-75424061D01*
X163748919Y-75381834D01*
X163628727Y-75265921D01*
X163461808Y-75092470D01*
X163264009Y-74877632D01*
X163195389Y-74801223D01*
X162974665Y-74555104D01*
X162814852Y-74384154D01*
X162697452Y-74274576D01*
X162603971Y-74212570D01*
X162515914Y-74184339D01*
X162414785Y-74176084D01*
X162356220Y-74175167D01*
X162073004Y-74171948D01*
X161894131Y-74171948D01*
X161446948Y-74171948D01*
X160999765Y-74171948D01*
X159348892Y-74171948D01*
X158972534Y-74162471D01*
X150684741Y-74162471D01*
X150684741Y-72204342D01*
X162639977Y-72204342D01*
X174595214Y-72204342D01*
X174579766Y-75260093D01*
G37*
D14*
%TO.C,C14*%
X120590000Y-71371267D02*
X120590000Y-71078733D01*
X121610000Y-71371267D02*
X121610000Y-71078733D01*
D17*
%TO.C,IC1*%
X140875000Y-63600000D02*
X147175000Y-63600000D01*
X140875000Y-69900000D02*
X140875000Y-63600000D01*
X147175000Y-63600000D02*
X147175000Y-69900000D01*
X147175000Y-69900000D02*
X140875000Y-69900000D01*
D18*
X140650000Y-71475000D02*
G75*
G02*
X140400000Y-71475000I-125000J0D01*
G01*
X140400000Y-71475000D02*
G75*
G02*
X140650000Y-71475000I125000J0D01*
G01*
D14*
%TO.C,C10*%
X141015000Y-77283767D02*
X141015000Y-76991233D01*
X142035000Y-77283767D02*
X142035000Y-76991233D01*
%TO.C,C15*%
X147391233Y-72515000D02*
X147683767Y-72515000D01*
X147391233Y-73535000D02*
X147683767Y-73535000D01*
%TO.C,C8*%
X155765000Y-66103733D02*
X155765000Y-66396267D01*
X156785000Y-66103733D02*
X156785000Y-66396267D01*
%TO.C,JP1*%
X163025000Y-62200000D02*
X163025000Y-60800000D01*
X163725000Y-60100000D02*
X164325000Y-60100000D01*
X164325000Y-62900000D02*
X163725000Y-62900000D01*
X165025000Y-60800000D02*
X165025000Y-62200000D01*
X163025000Y-60800000D02*
G75*
G02*
X163725000Y-60100000I700000J0D01*
G01*
X163725000Y-62900000D02*
G75*
G02*
X163025000Y-62200000I-1J699999D01*
G01*
X164325000Y-60100000D02*
G75*
G02*
X165025000Y-60800000I0J-700000D01*
G01*
X165025000Y-62200000D02*
G75*
G02*
X164325000Y-62900000I-699999J-1D01*
G01*
%TO.C,C7*%
X165046267Y-69390000D02*
X164753733Y-69390000D01*
X165046267Y-70410000D02*
X164753733Y-70410000D01*
%TO.C,R5*%
X184002500Y-67995276D02*
X184002500Y-68504724D01*
X185047500Y-67995276D02*
X185047500Y-68504724D01*
%TO.C,C11*%
X147415000Y-77246267D02*
X147415000Y-76953733D01*
X148435000Y-77246267D02*
X148435000Y-76953733D01*
%TO.C,J2*%
X136585000Y-58880000D02*
X136585000Y-57500000D01*
X137965000Y-58880000D02*
X136585000Y-58880000D01*
X139235000Y-56120000D02*
X146965000Y-56120000D01*
X139235000Y-58880000D02*
X139235000Y-56120000D01*
X139235000Y-58880000D02*
X146965000Y-58880000D01*
X146965000Y-58880000D02*
X146965000Y-56120000D01*
%TO.C,C2*%
X126765000Y-73103733D02*
X126765000Y-73396267D01*
X127785000Y-73103733D02*
X127785000Y-73396267D01*
%TO.C,R2*%
X126079724Y-58002500D02*
X125570276Y-58002500D01*
X126079724Y-59047500D02*
X125570276Y-59047500D01*
%TO.C,R3*%
X120502500Y-67404724D02*
X120502500Y-66895276D01*
X121547500Y-67404724D02*
X121547500Y-66895276D01*
%TO.C,C4*%
X123346267Y-63115000D02*
X123053733Y-63115000D01*
X123346267Y-64135000D02*
X123053733Y-64135000D01*
%TO.C,R6*%
X143270276Y-59977500D02*
X143779724Y-59977500D01*
X143270276Y-61022500D02*
X143779724Y-61022500D01*
D17*
%TO.C,IC4*%
X128950000Y-71750000D02*
X130100000Y-71750000D01*
X130450000Y-71775000D02*
X131100000Y-71775000D01*
X130450000Y-74725000D02*
X130450000Y-71775000D01*
X131100000Y-71775000D02*
X131100000Y-74725000D01*
X131100000Y-74725000D02*
X130450000Y-74725000D01*
D14*
%TO.C,J3*%
X188395000Y-71350000D02*
X188395000Y-63620000D01*
X191155000Y-63620000D02*
X188395000Y-63620000D01*
X191155000Y-71350000D02*
X188395000Y-71350000D01*
X191155000Y-71350000D02*
X191155000Y-63620000D01*
X191155000Y-72620000D02*
X191155000Y-74000000D01*
X191155000Y-74000000D02*
X189775000Y-74000000D01*
%TO.C,C13*%
X139490000Y-73641233D02*
X139490000Y-73933767D01*
X140510000Y-73641233D02*
X140510000Y-73933767D01*
%TO.C,C9*%
X182171267Y-65740000D02*
X181878733Y-65740000D01*
X182171267Y-66760000D02*
X181878733Y-66760000D01*
D17*
%TO.C,IC5*%
X128013000Y-61398000D02*
X131213000Y-61398000D01*
X128013000Y-70046000D02*
X128013000Y-61398000D01*
X131213000Y-61398000D02*
X131213000Y-70046000D01*
X131213000Y-70046000D02*
X128013000Y-70046000D01*
X133088000Y-69147000D02*
X131563000Y-69147000D01*
%TO.C,Y1*%
X142887500Y-76400000D02*
X142887500Y-76400000D01*
X142887500Y-76400000D02*
X142887500Y-76400000D01*
X142987500Y-76400000D02*
X142987500Y-76400000D01*
X142887500Y-76400000D02*
G75*
G02*
X142987500Y-76400000I50000J0D01*
G01*
X142987500Y-76400000D02*
G75*
G02*
X142887500Y-76400000I-50000J0D01*
G01*
X142987500Y-76400000D02*
G75*
G02*
X142887500Y-76400000I-50000J0D01*
G01*
%TO.C,FB1*%
X123275000Y-65550000D02*
X123275000Y-64950000D01*
D14*
%TO.C,D1*%
X177212500Y-64690000D02*
X176562500Y-64690000D01*
X177212500Y-64690000D02*
X177862500Y-64690000D01*
X177212500Y-67810000D02*
X176562500Y-67810000D01*
X177212500Y-67810000D02*
X177862500Y-67810000D01*
X176050000Y-64740000D02*
X175810000Y-64410000D01*
X176290000Y-64410000D01*
X176050000Y-64740000D01*
G36*
X176050000Y-64740000D02*
G01*
X175810000Y-64410000D01*
X176290000Y-64410000D01*
X176050000Y-64740000D01*
G37*
D17*
%TO.C,J1*%
X111938000Y-63030000D02*
X111938000Y-71970000D01*
X111938000Y-71970000D02*
X112875000Y-71970000D01*
X112875000Y-63030000D02*
X111938000Y-63030000D01*
X116875000Y-63030000D02*
X115075000Y-63030000D01*
X116875000Y-71970000D02*
X115075000Y-71970000D01*
D10*
X119675000Y-64300000D02*
X119675000Y-64300000D01*
X119775000Y-64300000D02*
X119775000Y-64300000D01*
X119675000Y-64300000D02*
G75*
G02*
X119775000Y-64300000I50000J0D01*
G01*
X119775000Y-64300000D02*
G75*
G02*
X119675000Y-64300000I-50000J0D01*
G01*
D14*
%TO.C,C1*%
X154015000Y-66103733D02*
X154015000Y-66396267D01*
X155035000Y-66103733D02*
X155035000Y-66396267D01*
%TO.C,R1*%
X125545276Y-59577500D02*
X126054724Y-59577500D01*
X125545276Y-60622500D02*
X126054724Y-60622500D01*
D17*
%TO.C,IC3*%
X157775000Y-63695000D02*
X159275000Y-63695000D01*
X159625000Y-63825000D02*
X162825000Y-63825000D01*
X159625000Y-68725000D02*
X159625000Y-63825000D01*
X162825000Y-63825000D02*
X162825000Y-68725000D01*
X162825000Y-68725000D02*
X159625000Y-68725000D01*
D14*
%TO.C,C5*%
X121815000Y-57721267D02*
X121815000Y-57428733D01*
X122835000Y-57721267D02*
X122835000Y-57428733D01*
%TO.C,R7*%
X139770276Y-59977500D02*
X140279724Y-59977500D01*
X139770276Y-61022500D02*
X140279724Y-61022500D01*
%TD*%
M02*
