%TF.GenerationSoftware,KiCad,Pcbnew,9.0.3*%
%TF.CreationDate,2025-11-24T21:16:14-05:00*%
%TF.ProjectId,RedPink_STM32C09_Board,52656450-696e-46b5-9f53-544d33324330,rev?*%
%TF.SameCoordinates,Original*%
%TF.FileFunction,Paste,Top*%
%TF.FilePolarity,Positive*%
%FSLAX46Y46*%
G04 Gerber Fmt 4.6, Leading zero omitted, Abs format (unit mm)*
G04 Created by KiCad (PCBNEW 9.0.3) date 2025-11-24 21:16:14*
%MOMM*%
%LPD*%
G01*
G04 APERTURE LIST*
G04 Aperture macros list*
%AMRoundRect*
0 Rectangle with rounded corners*
0 $1 Rounding radius*
0 $2 $3 $4 $5 $6 $7 $8 $9 X,Y pos of 4 corners*
0 Add a 4 corners polygon primitive as box body*
4,1,4,$2,$3,$4,$5,$6,$7,$8,$9,$2,$3,0*
0 Add four circle primitives for the rounded corners*
1,1,$1+$1,$2,$3*
1,1,$1+$1,$4,$5*
1,1,$1+$1,$6,$7*
1,1,$1+$1,$8,$9*
0 Add four rect primitives between the rounded corners*
20,1,$1+$1,$2,$3,$4,$5,0*
20,1,$1+$1,$4,$5,$6,$7,0*
20,1,$1+$1,$6,$7,$8,$9,0*
20,1,$1+$1,$8,$9,$2,$3,0*%
G04 Aperture macros list end*
%ADD10RoundRect,0.237500X-0.237500X0.300000X-0.237500X-0.300000X0.237500X-0.300000X0.237500X0.300000X0*%
%ADD11RoundRect,0.237500X-0.237500X0.250000X-0.237500X-0.250000X0.237500X-0.250000X0.237500X0.250000X0*%
%ADD12R,1.850000X0.600000*%
%ADD13RoundRect,0.237500X0.237500X-0.300000X0.237500X0.300000X-0.237500X0.300000X-0.237500X-0.300000X0*%
%ADD14R,0.300000X1.475000*%
%ADD15R,1.475000X0.300000*%
%ADD16RoundRect,0.237500X-0.300000X-0.237500X0.300000X-0.237500X0.300000X0.237500X-0.300000X0.237500X0*%
%ADD17RoundRect,0.237500X0.300000X0.237500X-0.300000X0.237500X-0.300000X-0.237500X0.300000X-0.237500X0*%
%ADD18RoundRect,0.237500X0.250000X0.237500X-0.250000X0.237500X-0.250000X-0.237500X0.250000X-0.237500X0*%
%ADD19RoundRect,0.237500X0.237500X-0.250000X0.237500X0.250000X-0.237500X0.250000X-0.237500X-0.250000X0*%
%ADD20RoundRect,0.237500X-0.250000X-0.237500X0.250000X-0.237500X0.250000X0.237500X-0.250000X0.237500X0*%
%ADD21R,1.150000X0.600000*%
%ADD22R,1.526000X0.435000*%
%ADD23R,1.500000X2.700000*%
%ADD24R,0.650000X0.700000*%
%ADD25RoundRect,0.150000X-0.587500X-0.150000X0.587500X-0.150000X0.587500X0.150000X-0.587500X0.150000X0*%
%ADD26R,1.150000X0.300000*%
%ADD27R,1.250000X1.550000*%
%ADD28R,1.500000X1.550000*%
%ADD29R,1.500000X0.650000*%
G04 APERTURE END LIST*
D10*
%TO.C,C6*%
X122350000Y-60212500D03*
X122350000Y-61937500D03*
%TD*%
%TO.C,C12*%
X141525000Y-72925000D03*
X141525000Y-74650000D03*
%TD*%
D11*
%TO.C,R4*%
X184525000Y-63337500D03*
X184525000Y-65162500D03*
%TD*%
D12*
%TO.C,FL1*%
X168500000Y-65615000D03*
X168500000Y-66885000D03*
X173050000Y-66885000D03*
X173050000Y-65615000D03*
%TD*%
D10*
%TO.C,C3*%
X134025000Y-72387500D03*
X134025000Y-74112500D03*
%TD*%
D13*
%TO.C,C14*%
X121100000Y-72087500D03*
X121100000Y-70362500D03*
%TD*%
D14*
%TO.C,IC1*%
X141275000Y-70988000D03*
X141775000Y-70988000D03*
X142275000Y-70988000D03*
X142775000Y-70988000D03*
X143275000Y-70988000D03*
X143775000Y-70988000D03*
X144275000Y-70988000D03*
X144775000Y-70988000D03*
X145275000Y-70988000D03*
X145775000Y-70988000D03*
X146275000Y-70988000D03*
X146775000Y-70988000D03*
D15*
X148263000Y-69500000D03*
X148263000Y-69000000D03*
X148263000Y-68500000D03*
X148263000Y-68000000D03*
X148263000Y-67500000D03*
X148263000Y-67000000D03*
X148263000Y-66500000D03*
X148263000Y-66000000D03*
X148263000Y-65500000D03*
X148263000Y-65000000D03*
X148263000Y-64500000D03*
X148263000Y-64000000D03*
D14*
X146775000Y-62512000D03*
X146275000Y-62512000D03*
X145775000Y-62512000D03*
X145275000Y-62512000D03*
X144775000Y-62512000D03*
X144275000Y-62512000D03*
X143775000Y-62512000D03*
X143275000Y-62512000D03*
X142775000Y-62512000D03*
X142275000Y-62512000D03*
X141775000Y-62512000D03*
X141275000Y-62512000D03*
D15*
X139787000Y-64000000D03*
X139787000Y-64500000D03*
X139787000Y-65000000D03*
X139787000Y-65500000D03*
X139787000Y-66000000D03*
X139787000Y-66500000D03*
X139787000Y-67000000D03*
X139787000Y-67500000D03*
X139787000Y-68000000D03*
X139787000Y-68500000D03*
X139787000Y-69000000D03*
X139787000Y-69500000D03*
%TD*%
D13*
%TO.C,C10*%
X141525000Y-78000000D03*
X141525000Y-76275000D03*
%TD*%
D16*
%TO.C,C15*%
X146675000Y-73025000D03*
X148400000Y-73025000D03*
%TD*%
D10*
%TO.C,C8*%
X156275000Y-65387500D03*
X156275000Y-67112500D03*
%TD*%
D17*
%TO.C,C7*%
X165762500Y-69900000D03*
X164037500Y-69900000D03*
%TD*%
D11*
%TO.C,R5*%
X184525000Y-67337500D03*
X184525000Y-69162500D03*
%TD*%
D13*
%TO.C,C11*%
X147925000Y-77962500D03*
X147925000Y-76237500D03*
%TD*%
D10*
%TO.C,C2*%
X127275000Y-72387500D03*
X127275000Y-74112500D03*
%TD*%
D18*
%TO.C,R2*%
X126737500Y-58525000D03*
X124912500Y-58525000D03*
%TD*%
D19*
%TO.C,R3*%
X121025000Y-68062500D03*
X121025000Y-66237500D03*
%TD*%
D17*
%TO.C,C4*%
X124062500Y-63625000D03*
X122337500Y-63625000D03*
%TD*%
D20*
%TO.C,R6*%
X142612500Y-60500000D03*
X144437500Y-60500000D03*
%TD*%
D21*
%TO.C,IC4*%
X129525000Y-72300000D03*
X129525000Y-73250000D03*
X129525000Y-74200000D03*
X132025000Y-74200000D03*
X132025000Y-72300000D03*
%TD*%
D10*
%TO.C,C13*%
X140000000Y-72925000D03*
X140000000Y-74650000D03*
%TD*%
D17*
%TO.C,C9*%
X182887500Y-66250000D03*
X181162500Y-66250000D03*
%TD*%
D22*
%TO.C,IC5*%
X132325000Y-68580000D03*
X132325000Y-67944000D03*
X132325000Y-67310000D03*
X132325000Y-66674000D03*
X132325000Y-66040000D03*
X132325000Y-65404000D03*
X132325000Y-64770000D03*
X132325000Y-64134000D03*
X132325000Y-63500000D03*
X132325000Y-62864000D03*
X126901000Y-62864000D03*
X126901000Y-63500000D03*
X126901000Y-64134000D03*
X126901000Y-64770000D03*
X126901000Y-65404000D03*
X126901000Y-66040000D03*
X126901000Y-66674000D03*
X126901000Y-67310000D03*
X126901000Y-67944000D03*
X126901000Y-68580000D03*
%TD*%
D23*
%TO.C,Y1*%
X144037500Y-76400000D03*
X145937500Y-76400000D03*
%TD*%
D24*
%TO.C,FB1*%
X123950000Y-65250000D03*
X122600000Y-65250000D03*
%TD*%
D25*
%TO.C,D1*%
X176275000Y-65300000D03*
X176275000Y-67200000D03*
X178150000Y-66250000D03*
%TD*%
D21*
%TO.C,J1*%
X118613000Y-64300000D03*
X118613000Y-65100000D03*
D26*
X118613000Y-66250000D03*
X118613000Y-67250000D03*
X118613000Y-67750000D03*
X118613000Y-68750000D03*
D21*
X118613000Y-70700000D03*
X118613000Y-69900000D03*
D26*
X118613000Y-69250000D03*
X118613000Y-68250000D03*
X118613000Y-66750000D03*
X118613000Y-65750000D03*
D27*
X117963000Y-62405000D03*
X117963000Y-72595000D03*
D28*
X114038000Y-72595000D03*
X114038000Y-62405000D03*
%TD*%
D10*
%TO.C,C1*%
X154525000Y-65387500D03*
X154525000Y-67112500D03*
%TD*%
D20*
%TO.C,R1*%
X124887500Y-60100000D03*
X126712500Y-60100000D03*
%TD*%
D29*
%TO.C,IC3*%
X158525000Y-64370000D03*
X158525000Y-65640000D03*
X158525000Y-66910000D03*
X158525000Y-68180000D03*
X163925000Y-68180000D03*
X163925000Y-66910000D03*
X163925000Y-65640000D03*
X163925000Y-64370000D03*
%TD*%
D13*
%TO.C,C5*%
X122325000Y-58437500D03*
X122325000Y-56712500D03*
%TD*%
D20*
%TO.C,R7*%
X139112500Y-60500000D03*
X140937500Y-60500000D03*
%TD*%
M02*
