%TF.GenerationSoftware,KiCad,Pcbnew,9.0.7*%
%TF.CreationDate,2026-02-18T00:38:32-05:00*%
%TF.ProjectId,RedPink_STM32C09_Board,52656450-696e-46b5-9f53-544d33324330,rev?*%
%TF.SameCoordinates,Original*%
%TF.FileFunction,Copper,L1,Top*%
%TF.FilePolarity,Positive*%
%FSLAX46Y46*%
G04 Gerber Fmt 4.6, Leading zero omitted, Abs format (unit mm)*
G04 Created by KiCad (PCBNEW 9.0.7) date 2026-02-18 00:38:32*
%MOMM*%
%LPD*%
G01*
G04 APERTURE LIST*
G04 Aperture macros list*
%AMRoundRect*
0 Rectangle with rounded corners*
0 $1 Rounding radius*
0 $2 $3 $4 $5 $6 $7 $8 $9 X,Y pos of 4 corners*
0 Add a 4 corners polygon primitive as box body*
4,1,4,$2,$3,$4,$5,$6,$7,$8,$9,$2,$3,0*
0 Add four circle primitives for the rounded corners*
1,1,$1+$1,$2,$3*
1,1,$1+$1,$4,$5*
1,1,$1+$1,$6,$7*
1,1,$1+$1,$8,$9*
0 Add four rect primitives between the rounded corners*
20,1,$1+$1,$2,$3,$4,$5,0*
20,1,$1+$1,$4,$5,$6,$7,0*
20,1,$1+$1,$6,$7,$8,$9,0*
20,1,$1+$1,$8,$9,$2,$3,0*%
%AMFreePoly0*
4,1,23,0.500000,-0.750000,0.000000,-0.750000,0.000000,-0.745722,-0.065263,-0.745722,-0.191342,-0.711940,-0.304381,-0.646677,-0.396677,-0.554381,-0.461940,-0.441342,-0.495722,-0.315263,-0.495722,-0.250000,-0.500000,-0.250000,-0.500000,0.250000,-0.495722,0.250000,-0.495722,0.315263,-0.461940,0.441342,-0.396677,0.554381,-0.304381,0.646677,-0.191342,0.711940,-0.065263,0.745722,0.000000,0.745722,
0.000000,0.750000,0.500000,0.750000,0.500000,-0.750000,0.500000,-0.750000,$1*%
%AMFreePoly1*
4,1,23,0.000000,0.745722,0.065263,0.745722,0.191342,0.711940,0.304381,0.646677,0.396677,0.554381,0.461940,0.441342,0.495722,0.315263,0.495722,0.250000,0.500000,0.250000,0.500000,-0.250000,0.495722,-0.250000,0.495722,-0.315263,0.461940,-0.441342,0.396677,-0.554381,0.304381,-0.646677,0.191342,-0.711940,0.065263,-0.745722,0.000000,-0.745722,0.000000,-0.750000,-0.500000,-0.750000,
-0.500000,0.750000,0.000000,0.750000,0.000000,0.745722,0.000000,0.745722,$1*%
G04 Aperture macros list end*
%TA.AperFunction,ComponentPad*%
%ADD10R,1.700000X1.700000*%
%TD*%
%TA.AperFunction,ComponentPad*%
%ADD11C,1.700000*%
%TD*%
%TA.AperFunction,ComponentPad*%
%ADD12C,5.000000*%
%TD*%
%TA.AperFunction,SMDPad,CuDef*%
%ADD13RoundRect,0.237500X-0.237500X0.300000X-0.237500X-0.300000X0.237500X-0.300000X0.237500X0.300000X0*%
%TD*%
%TA.AperFunction,SMDPad,CuDef*%
%ADD14RoundRect,0.237500X-0.237500X0.250000X-0.237500X-0.250000X0.237500X-0.250000X0.237500X0.250000X0*%
%TD*%
%TA.AperFunction,SMDPad,CuDef*%
%ADD15R,1.850000X0.600000*%
%TD*%
%TA.AperFunction,SMDPad,CuDef*%
%ADD16RoundRect,0.237500X0.237500X-0.300000X0.237500X0.300000X-0.237500X0.300000X-0.237500X-0.300000X0*%
%TD*%
%TA.AperFunction,SMDPad,CuDef*%
%ADD17R,0.300000X1.475000*%
%TD*%
%TA.AperFunction,SMDPad,CuDef*%
%ADD18R,1.475000X0.300000*%
%TD*%
%TA.AperFunction,SMDPad,CuDef*%
%ADD19RoundRect,0.237500X-0.300000X-0.237500X0.300000X-0.237500X0.300000X0.237500X-0.300000X0.237500X0*%
%TD*%
%TA.AperFunction,SMDPad,CuDef*%
%ADD20FreePoly0,90.000000*%
%TD*%
%TA.AperFunction,SMDPad,CuDef*%
%ADD21FreePoly1,90.000000*%
%TD*%
%TA.AperFunction,SMDPad,CuDef*%
%ADD22RoundRect,0.237500X0.300000X0.237500X-0.300000X0.237500X-0.300000X-0.237500X0.300000X-0.237500X0*%
%TD*%
%TA.AperFunction,SMDPad,CuDef*%
%ADD23RoundRect,0.237500X0.250000X0.237500X-0.250000X0.237500X-0.250000X-0.237500X0.250000X-0.237500X0*%
%TD*%
%TA.AperFunction,SMDPad,CuDef*%
%ADD24RoundRect,0.237500X0.237500X-0.250000X0.237500X0.250000X-0.237500X0.250000X-0.237500X-0.250000X0*%
%TD*%
%TA.AperFunction,SMDPad,CuDef*%
%ADD25RoundRect,0.237500X-0.250000X-0.237500X0.250000X-0.237500X0.250000X0.237500X-0.250000X0.237500X0*%
%TD*%
%TA.AperFunction,SMDPad,CuDef*%
%ADD26R,1.150000X0.600000*%
%TD*%
%TA.AperFunction,SMDPad,CuDef*%
%ADD27R,1.526000X0.435000*%
%TD*%
%TA.AperFunction,SMDPad,CuDef*%
%ADD28R,1.500000X2.700000*%
%TD*%
%TA.AperFunction,SMDPad,CuDef*%
%ADD29R,0.650000X0.700000*%
%TD*%
%TA.AperFunction,SMDPad,CuDef*%
%ADD30RoundRect,0.150000X-0.587500X-0.150000X0.587500X-0.150000X0.587500X0.150000X-0.587500X0.150000X0*%
%TD*%
%TA.AperFunction,SMDPad,CuDef*%
%ADD31R,1.150000X0.300000*%
%TD*%
%TA.AperFunction,SMDPad,CuDef*%
%ADD32R,1.250000X1.550000*%
%TD*%
%TA.AperFunction,SMDPad,CuDef*%
%ADD33R,1.500000X1.550000*%
%TD*%
%TA.AperFunction,SMDPad,CuDef*%
%ADD34R,1.500000X0.650000*%
%TD*%
%TA.AperFunction,ViaPad*%
%ADD35C,0.600000*%
%TD*%
%TA.AperFunction,Conductor*%
%ADD36C,0.200000*%
%TD*%
%TA.AperFunction,Conductor*%
%ADD37C,0.450000*%
%TD*%
%TA.AperFunction,Conductor*%
%ADD38C,0.250000*%
%TD*%
G04 APERTURE END LIST*
D10*
%TO.P,J4,1,Pin_1*%
%TO.N,VSS*%
X189500000Y-70250000D03*
D11*
%TO.P,J4,2,Pin_2*%
%TO.N,CANL*%
X189500000Y-67710000D03*
%TO.P,J4,3,Pin_3*%
%TO.N,CANH*%
X189500000Y-65170000D03*
%TD*%
D12*
%TO.P,H4,1,1*%
%TO.N,VSS*%
X114575000Y-77175000D03*
%TD*%
D13*
%TO.P,C6,1*%
%TO.N,D-1*%
X122350000Y-60212500D03*
%TO.P,C6,2*%
%TO.N,VSS*%
X122350000Y-61937500D03*
%TD*%
%TO.P,C12,1*%
%TO.N,3V3*%
X141525000Y-72925000D03*
%TO.P,C12,2*%
%TO.N,VSS*%
X141525000Y-74650000D03*
%TD*%
D14*
%TO.P,R4,1*%
%TO.N,CANH*%
X184525000Y-63337500D03*
%TO.P,R4,2*%
%TO.N,Net-(C9-Pad1)*%
X184525000Y-65162500D03*
%TD*%
D15*
%TO.P,FL1,1,1*%
%TO.N,Net-(IC3-CANH)*%
X168500000Y-65615000D03*
%TO.P,FL1,2,2*%
%TO.N,Net-(IC3-CANL)*%
X168500000Y-66885000D03*
%TO.P,FL1,3,3*%
%TO.N,CANL*%
X173050000Y-66885000D03*
%TO.P,FL1,4,4*%
%TO.N,CANH*%
X173050000Y-65615000D03*
%TD*%
D13*
%TO.P,C3,1*%
%TO.N,3V3*%
X134025000Y-72387500D03*
%TO.P,C3,2*%
%TO.N,VSS*%
X134025000Y-74112500D03*
%TD*%
D16*
%TO.P,C14,1*%
%TO.N,VSS*%
X121100000Y-72087500D03*
%TO.P,C14,2*%
%TO.N,Net-(J1-VBUS_1)*%
X121100000Y-70362500D03*
%TD*%
D17*
%TO.P,IC1,1,PC13*%
%TO.N,unconnected-(IC1-PC13-Pad1)*%
X141275000Y-70988000D03*
%TO.P,IC1,2,PC14-OSCX_IN*%
%TO.N,unconnected-(IC1-PC14-OSCX_IN-Pad2)*%
X141775000Y-70988000D03*
%TO.P,IC1,3,PC15-OSCX_OUT*%
%TO.N,unconnected-(IC1-PC15-OSCX_OUT-Pad3)*%
X142275000Y-70988000D03*
%TO.P,IC1,4,PF3*%
%TO.N,unconnected-(IC1-PF3-Pad4)*%
X142775000Y-70988000D03*
%TO.P,IC1,5,VREF+*%
%TO.N,VREF*%
X143275000Y-70988000D03*
%TO.P,IC1,6,VDD/VDDA*%
%TO.N,3V3*%
X143775000Y-70988000D03*
%TO.P,IC1,7,VSS/VSSA*%
%TO.N,VSS*%
X144275000Y-70988000D03*
%TO.P,IC1,8,PF0-OSC_IN*%
%TO.N,OSC_IN*%
X144775000Y-70988000D03*
%TO.P,IC1,9,PF1-OSC_OUT*%
%TO.N,OSC_OUT*%
X145275000Y-70988000D03*
%TO.P,IC1,10,PF2-NRST*%
%TO.N,NRST*%
X145775000Y-70988000D03*
%TO.P,IC1,11,PA0*%
%TO.N,TXD*%
X146275000Y-70988000D03*
%TO.P,IC1,12,PA1*%
%TO.N,RXD*%
X146775000Y-70988000D03*
D18*
%TO.P,IC1,13,PA2*%
%TO.N,USART2_TX*%
X148263000Y-69500000D03*
%TO.P,IC1,14,PA3*%
%TO.N,USART2_RX*%
X148263000Y-69000000D03*
%TO.P,IC1,15,PA4*%
%TO.N,unconnected-(IC1-PA4-Pad15)*%
X148263000Y-68500000D03*
%TO.P,IC1,16,PA5*%
%TO.N,unconnected-(IC1-PA5-Pad16)*%
X148263000Y-68000000D03*
%TO.P,IC1,17,PA6*%
%TO.N,unconnected-(IC1-PA6-Pad17)*%
X148263000Y-67500000D03*
%TO.P,IC1,18,PA7*%
%TO.N,unconnected-(IC1-PA7-Pad18)*%
X148263000Y-67000000D03*
%TO.P,IC1,19,PB0*%
%TO.N,CANRX*%
X148263000Y-66500000D03*
%TO.P,IC1,20,PB1*%
%TO.N,CANTX*%
X148263000Y-66000000D03*
%TO.P,IC1,21,PB2*%
%TO.N,unconnected-(IC1-PB2-Pad21)*%
X148263000Y-65500000D03*
%TO.P,IC1,22,PB10*%
%TO.N,unconnected-(IC1-PB10-Pad22)*%
X148263000Y-65000000D03*
%TO.P,IC1,23,PB11*%
%TO.N,unconnected-(IC1-PB11-Pad23)*%
X148263000Y-64500000D03*
%TO.P,IC1,24,PB12*%
%TO.N,unconnected-(IC1-PB12-Pad24)*%
X148263000Y-64000000D03*
D17*
%TO.P,IC1,25,PB13*%
%TO.N,unconnected-(IC1-PB13-Pad25)*%
X146775000Y-62512000D03*
%TO.P,IC1,26,PB14*%
%TO.N,unconnected-(IC1-PB14-Pad26)*%
X146275000Y-62512000D03*
%TO.P,IC1,27,PB15*%
%TO.N,unconnected-(IC1-PB15-Pad27)*%
X145775000Y-62512000D03*
%TO.P,IC1,28,PA8*%
%TO.N,unconnected-(IC1-PA8-Pad28)*%
X145275000Y-62512000D03*
%TO.P,IC1,29,PA9*%
%TO.N,unconnected-(IC1-PA9-Pad29)*%
X144775000Y-62512000D03*
%TO.P,IC1,30,PC6*%
%TO.N,unconnected-(IC1-PC6-Pad30)*%
X144275000Y-62512000D03*
%TO.P,IC1,31,PC7*%
%TO.N,unconnected-(IC1-PC7-Pad31)*%
X143775000Y-62512000D03*
%TO.P,IC1,32,PA10*%
%TO.N,unconnected-(IC1-PA10-Pad32)*%
X143275000Y-62512000D03*
%TO.P,IC1,33,PA11_[PA9]*%
%TO.N,unconnected-(IC1-PA11_[PA9]-Pad33)*%
X142775000Y-62512000D03*
%TO.P,IC1,34,PA12_[PA10]*%
%TO.N,unconnected-(IC1-PA12_[PA10]-Pad34)*%
X142275000Y-62512000D03*
%TO.P,IC1,35,PA13*%
%TO.N,SWDIO*%
X141775000Y-62512000D03*
%TO.P,IC1,36,PA14-BOOT0*%
%TO.N,SWCLK*%
X141275000Y-62512000D03*
D18*
%TO.P,IC1,37,PA15*%
%TO.N,unconnected-(IC1-PA15-Pad37)*%
X139787000Y-64000000D03*
%TO.P,IC1,38,PD0*%
%TO.N,unconnected-(IC1-PD0-Pad38)*%
X139787000Y-64500000D03*
%TO.P,IC1,39,PD1*%
%TO.N,unconnected-(IC1-PD1-Pad39)*%
X139787000Y-65000000D03*
%TO.P,IC1,40,PD2*%
%TO.N,unconnected-(IC1-PD2-Pad40)*%
X139787000Y-65500000D03*
%TO.P,IC1,41,PD3*%
%TO.N,unconnected-(IC1-PD3-Pad41)*%
X139787000Y-66000000D03*
%TO.P,IC1,42,PB3*%
%TO.N,unconnected-(IC1-PB3-Pad42)*%
X139787000Y-66500000D03*
%TO.P,IC1,43,PB4*%
%TO.N,unconnected-(IC1-PB4-Pad43)*%
X139787000Y-67000000D03*
%TO.P,IC1,44,PB5*%
%TO.N,unconnected-(IC1-PB5-Pad44)*%
X139787000Y-67500000D03*
%TO.P,IC1,45,PB6*%
%TO.N,unconnected-(IC1-PB6-Pad45)*%
X139787000Y-68000000D03*
%TO.P,IC1,46,PB7*%
%TO.N,unconnected-(IC1-PB7-Pad46)*%
X139787000Y-68500000D03*
%TO.P,IC1,47,PB8*%
%TO.N,unconnected-(IC1-PB8-Pad47)*%
X139787000Y-69000000D03*
%TO.P,IC1,48,PB9*%
%TO.N,unconnected-(IC1-PB9-Pad48)*%
X139787000Y-69500000D03*
%TD*%
D16*
%TO.P,C10,1*%
%TO.N,OSC_IN*%
X141525000Y-78000000D03*
%TO.P,C10,2*%
%TO.N,VSS*%
X141525000Y-76275000D03*
%TD*%
D19*
%TO.P,C15,1*%
%TO.N,NRST*%
X146675000Y-73025000D03*
%TO.P,C15,2*%
%TO.N,VSS*%
X148400000Y-73025000D03*
%TD*%
D13*
%TO.P,C8,1*%
%TO.N,VSS*%
X156275000Y-65387500D03*
%TO.P,C8,2*%
%TO.N,5V*%
X156275000Y-67112500D03*
%TD*%
D20*
%TO.P,JP1,1,A*%
%TO.N,Net-(IC3-STBY)*%
X164025000Y-62150000D03*
D21*
%TO.P,JP1,2,B*%
%TO.N,VSS*%
X164025000Y-60850000D03*
%TD*%
D22*
%TO.P,C7,1*%
%TO.N,VSS*%
X165762500Y-69900000D03*
%TO.P,C7,2*%
%TO.N,3V3*%
X164037500Y-69900000D03*
%TD*%
D14*
%TO.P,R5,1*%
%TO.N,Net-(C9-Pad1)*%
X184525000Y-67337500D03*
%TO.P,R5,2*%
%TO.N,CANL*%
X184525000Y-69162500D03*
%TD*%
D16*
%TO.P,C11,1*%
%TO.N,OSC_OUT*%
X147925000Y-77962500D03*
%TO.P,C11,2*%
%TO.N,VSS*%
X147925000Y-76237500D03*
%TD*%
D10*
%TO.P,J2,1,Pin_1*%
%TO.N,VSS*%
X137965000Y-57500000D03*
D11*
%TO.P,J2,2,Pin_2*%
%TO.N,SWCLK*%
X140505000Y-57500000D03*
%TO.P,J2,3,Pin_3*%
%TO.N,SWDIO*%
X143045000Y-57500000D03*
%TO.P,J2,4,Pin_4*%
%TO.N,3V3*%
X145585000Y-57500000D03*
%TD*%
D13*
%TO.P,C2,1*%
%TO.N,5V*%
X127275000Y-72387500D03*
%TO.P,C2,2*%
%TO.N,VSS*%
X127275000Y-74112500D03*
%TD*%
D23*
%TO.P,R2,1*%
%TO.N,/USBDP*%
X126737500Y-58525000D03*
%TO.P,R2,2*%
%TO.N,D+1*%
X124912500Y-58525000D03*
%TD*%
D24*
%TO.P,R3,1*%
%TO.N,VSS*%
X121025000Y-68062500D03*
%TO.P,R3,2*%
%TO.N,Net-(J1-CC1)*%
X121025000Y-66237500D03*
%TD*%
D22*
%TO.P,C4,1*%
%TO.N,3V3_V1*%
X124062500Y-63625000D03*
%TO.P,C4,2*%
%TO.N,VSS*%
X122337500Y-63625000D03*
%TD*%
D12*
%TO.P,H3,1,1*%
%TO.N,VSS*%
X114575000Y-57825000D03*
%TD*%
%TO.P,H2,1,1*%
%TO.N,VSS*%
X188925000Y-77175000D03*
%TD*%
D25*
%TO.P,R6,1*%
%TO.N,SWDIO*%
X142612500Y-60500000D03*
%TO.P,R6,2*%
%TO.N,3V3*%
X144437500Y-60500000D03*
%TD*%
D26*
%TO.P,IC4,1,IN*%
%TO.N,5V*%
X129525000Y-72300000D03*
%TO.P,IC4,2,GND*%
%TO.N,unconnected-(IC4-GND-Pad2)*%
X129525000Y-73250000D03*
%TO.P,IC4,3,EN*%
%TO.N,5V*%
X129525000Y-74200000D03*
%TO.P,IC4,4,NC*%
%TO.N,unconnected-(IC4-NC-Pad4)*%
X132025000Y-74200000D03*
%TO.P,IC4,5,OUT*%
%TO.N,3V3*%
X132025000Y-72300000D03*
%TD*%
D13*
%TO.P,C13,1*%
%TO.N,3V3*%
X140000000Y-72925000D03*
%TO.P,C13,2*%
%TO.N,VSS*%
X140000000Y-74650000D03*
%TD*%
D22*
%TO.P,C9,1*%
%TO.N,Net-(C9-Pad1)*%
X182887500Y-66250000D03*
%TO.P,C9,2*%
%TO.N,VSS*%
X181162500Y-66250000D03*
%TD*%
D27*
%TO.P,IC5,1,DTR#*%
%TO.N,DTR*%
X132325000Y-68580000D03*
%TO.P,IC5,2,RTS#*%
%TO.N,RTS*%
X132325000Y-67944000D03*
%TO.P,IC5,3,VCCIO*%
%TO.N,3V3_V1*%
X132325000Y-67310000D03*
%TO.P,IC5,4,RXD*%
%TO.N,RXD*%
X132325000Y-66674000D03*
%TO.P,IC5,5,RI#*%
%TO.N,RI*%
X132325000Y-66040000D03*
%TO.P,IC5,6,GND_1*%
%TO.N,VSS*%
X132325000Y-65404000D03*
%TO.P,IC5,7,DSR#*%
%TO.N,DSR*%
X132325000Y-64770000D03*
%TO.P,IC5,8,DCD#*%
%TO.N,DCD*%
X132325000Y-64134000D03*
%TO.P,IC5,9,CTS#*%
%TO.N,CTS*%
X132325000Y-63500000D03*
%TO.P,IC5,10,CBUS2*%
%TO.N,unconnected-(IC5-CBUS2-Pad10)*%
X132325000Y-62864000D03*
%TO.P,IC5,11,USBDP*%
%TO.N,/USBDP*%
X126901000Y-62864000D03*
%TO.P,IC5,12,USBDM*%
%TO.N,/USBDN*%
X126901000Y-63500000D03*
%TO.P,IC5,13,3V3OUT*%
%TO.N,3V3_V1*%
X126901000Y-64134000D03*
%TO.P,IC5,14,RESET#*%
X126901000Y-64770000D03*
%TO.P,IC5,15,VCC*%
%TO.N,5V*%
X126901000Y-65404000D03*
%TO.P,IC5,16,GND_2*%
%TO.N,VSS*%
X126901000Y-66040000D03*
%TO.P,IC5,17,CBUS1*%
%TO.N,unconnected-(IC5-CBUS1-Pad17)*%
X126901000Y-66674000D03*
%TO.P,IC5,18,CBUS0*%
%TO.N,CBUS0*%
X126901000Y-67310000D03*
%TO.P,IC5,19,CBUS3*%
%TO.N,CBUS3*%
X126901000Y-67944000D03*
%TO.P,IC5,20,TXD*%
%TO.N,TXD*%
X126901000Y-68580000D03*
%TD*%
D28*
%TO.P,Y1,1,1*%
%TO.N,OSC_IN*%
X144037500Y-76400000D03*
%TO.P,Y1,2,2*%
%TO.N,OSC_OUT*%
X145937500Y-76400000D03*
%TD*%
D29*
%TO.P,FB1,1,1*%
%TO.N,5V*%
X123950000Y-65250000D03*
%TO.P,FB1,2,2*%
%TO.N,Net-(J1-VBUS_1)*%
X122600000Y-65250000D03*
%TD*%
D30*
%TO.P,D1,1,K*%
%TO.N,CANH*%
X176275000Y-65300000D03*
%TO.P,D1,2,K*%
%TO.N,CANL*%
X176275000Y-67200000D03*
%TO.P,D1,3,A*%
%TO.N,VSS*%
X178150000Y-66250000D03*
%TD*%
D26*
%TO.P,J1,A1,GND_1*%
%TO.N,VSS*%
X118613000Y-64300000D03*
%TO.P,J1,A4,VBUS_1*%
%TO.N,Net-(J1-VBUS_1)*%
X118613000Y-65100000D03*
D31*
%TO.P,J1,A5,CC1*%
%TO.N,Net-(J1-CC1)*%
X118613000Y-66250000D03*
%TO.P,J1,A6,DP1*%
%TO.N,D+1*%
X118613000Y-67250000D03*
%TO.P,J1,A7,DN1*%
%TO.N,D-1*%
X118613000Y-67750000D03*
%TO.P,J1,A8,SBU1*%
%TO.N,unconnected-(J1-SBU1-PadA8)*%
X118613000Y-68750000D03*
D26*
%TO.P,J1,B1,GND_2*%
%TO.N,VSS*%
X118613000Y-70700000D03*
%TO.P,J1,B4,VBUS_2*%
%TO.N,Net-(J1-VBUS_1)*%
X118613000Y-69900000D03*
D31*
%TO.P,J1,B5,CC2*%
%TO.N,unconnected-(J1-CC2-PadB5)*%
X118613000Y-69250000D03*
%TO.P,J1,B6,DP2*%
%TO.N,unconnected-(J1-DP2-PadB6)*%
X118613000Y-68250000D03*
%TO.P,J1,B7,DN2*%
%TO.N,unconnected-(J1-DN2-PadB7)*%
X118613000Y-66750000D03*
%TO.P,J1,B8,SBU2*%
%TO.N,unconnected-(J1-SBU2-PadB8)*%
X118613000Y-65750000D03*
D32*
%TO.P,J1,G1,GND_3*%
%TO.N,VSS*%
X117963000Y-62405000D03*
%TO.P,J1,G2,GND_4*%
X117963000Y-72595000D03*
D33*
%TO.P,J1,G3,GND_5*%
X114038000Y-72595000D03*
%TO.P,J1,G4,GND_6*%
X114038000Y-62405000D03*
%TD*%
D13*
%TO.P,C1,1*%
%TO.N,VSS*%
X154525000Y-65387500D03*
%TO.P,C1,2*%
%TO.N,5V*%
X154525000Y-67112500D03*
%TD*%
D25*
%TO.P,R1,1*%
%TO.N,D-1*%
X124887500Y-60100000D03*
%TO.P,R1,2*%
%TO.N,/USBDN*%
X126712500Y-60100000D03*
%TD*%
D34*
%TO.P,IC3,1,TXD*%
%TO.N,CANTX*%
X158525000Y-64370000D03*
%TO.P,IC3,2,GND*%
%TO.N,VSS*%
X158525000Y-65640000D03*
%TO.P,IC3,3,VCC*%
%TO.N,5V*%
X158525000Y-66910000D03*
%TO.P,IC3,4,RXD*%
%TO.N,CANRX*%
X158525000Y-68180000D03*
%TO.P,IC3,5,VIO*%
%TO.N,3V3*%
X163925000Y-68180000D03*
%TO.P,IC3,6,CANL*%
%TO.N,Net-(IC3-CANL)*%
X163925000Y-66910000D03*
%TO.P,IC3,7,CANH*%
%TO.N,Net-(IC3-CANH)*%
X163925000Y-65640000D03*
%TO.P,IC3,8,STBY*%
%TO.N,Net-(IC3-STBY)*%
X163925000Y-64370000D03*
%TD*%
D16*
%TO.P,C5,1*%
%TO.N,D+1*%
X122325000Y-58437500D03*
%TO.P,C5,2*%
%TO.N,VSS*%
X122325000Y-56712500D03*
%TD*%
D25*
%TO.P,R7,1*%
%TO.N,VSS*%
X139112500Y-60500000D03*
%TO.P,R7,2*%
%TO.N,SWCLK*%
X140937500Y-60500000D03*
%TD*%
D12*
%TO.P,H1,1,1*%
%TO.N,VSS*%
X188925000Y-57825000D03*
%TD*%
D35*
%TO.N,VSS*%
X185150000Y-76000000D03*
X184400000Y-76725000D03*
X185168750Y-76725000D03*
X185168750Y-78275000D03*
X184400000Y-77450000D03*
X185168750Y-77450000D03*
X184400000Y-78275000D03*
X184381250Y-76000000D03*
X165703524Y-71505244D03*
X170316024Y-71505244D03*
X173397274Y-71505244D03*
X171859774Y-71505244D03*
X168778524Y-71505244D03*
X175703524Y-71505244D03*
X172628524Y-71505244D03*
X177241024Y-71505244D03*
X167241024Y-71505244D03*
X174934774Y-71505244D03*
X164934774Y-71505244D03*
X171084774Y-71505244D03*
X168009774Y-71505244D03*
X166472274Y-71505244D03*
X169547274Y-71505244D03*
X178009774Y-71505244D03*
X174166024Y-71505244D03*
X176472274Y-71505244D03*
X151843750Y-71500000D03*
X156456250Y-71500000D03*
X159537500Y-71500000D03*
X158000000Y-71500000D03*
X154918750Y-71500000D03*
X161843750Y-71500000D03*
X158768750Y-71500000D03*
X163381250Y-71500000D03*
X153381250Y-71500000D03*
X161075000Y-71500000D03*
X151075000Y-71500000D03*
X157225000Y-71500000D03*
X154150000Y-71500000D03*
X152612500Y-71500000D03*
X155687500Y-71500000D03*
X164150000Y-71500000D03*
X160306250Y-71500000D03*
X162612500Y-71500000D03*
X148756250Y-58175000D03*
X131706250Y-57475000D03*
X184856250Y-56725000D03*
X158737500Y-56725000D03*
X120318750Y-76375000D03*
X147925000Y-75325000D03*
X168656250Y-57450000D03*
X184106250Y-57450000D03*
X124162500Y-76375000D03*
X181800000Y-57450000D03*
X157218750Y-59000000D03*
X121087500Y-76375000D03*
X152600000Y-58175000D03*
X138431250Y-59818750D03*
X132475000Y-58200000D03*
X119568750Y-78650000D03*
X130168750Y-57475000D03*
X161043750Y-56725000D03*
X123400000Y-61925000D03*
X181800000Y-59000000D03*
X130168750Y-58200000D03*
X183337500Y-58175000D03*
X154137500Y-59000000D03*
X149525000Y-59000000D03*
X121106250Y-77100000D03*
X154118750Y-56725000D03*
X172500000Y-58175000D03*
X151831250Y-58175000D03*
X131687500Y-56750000D03*
X118800000Y-78650000D03*
X156450000Y-57450000D03*
X167100000Y-56725000D03*
X184106250Y-59000000D03*
X121025000Y-68950000D03*
X179775000Y-66250000D03*
X133225000Y-56750000D03*
X183337500Y-57450000D03*
X123393750Y-76375000D03*
X184087500Y-56725000D03*
X131706250Y-58200000D03*
X182568750Y-57450000D03*
X150293750Y-58175000D03*
X156450000Y-58175000D03*
X151043750Y-56725000D03*
X123200000Y-56700000D03*
X157218750Y-58175000D03*
X160293750Y-59000000D03*
X118031250Y-78650000D03*
X180243750Y-56725000D03*
X153350000Y-56725000D03*
X122643750Y-78650000D03*
X181800000Y-58175000D03*
X114050000Y-73725000D03*
X171712500Y-56725000D03*
X119568750Y-77825000D03*
X170193750Y-59000000D03*
X134012500Y-59025000D03*
X118031250Y-77825000D03*
X157987500Y-59000000D03*
X179493750Y-59000000D03*
X151831250Y-57450000D03*
X170943750Y-56725000D03*
X132456250Y-56750000D03*
X166706146Y-69880187D03*
X130937500Y-57475000D03*
X164025000Y-59500000D03*
X161062500Y-58175000D03*
X130918750Y-56750000D03*
X114050000Y-61000000D03*
X157987500Y-57450000D03*
X121875000Y-78650000D03*
X161812500Y-56725000D03*
X143925000Y-72825000D03*
X169425000Y-57450000D03*
X123412500Y-77100000D03*
X133243750Y-58200000D03*
X151062500Y-57450000D03*
X119500000Y-63750000D03*
X170175000Y-56725000D03*
X161831250Y-59000000D03*
X124181250Y-77100000D03*
X167118750Y-57450000D03*
X183337500Y-59000000D03*
X169425000Y-58175000D03*
X124181250Y-77825000D03*
X130937500Y-58200000D03*
X178725000Y-57450000D03*
X161831250Y-58175000D03*
X171731250Y-57450000D03*
X121856250Y-76375000D03*
X133993750Y-56750000D03*
X153368750Y-59000000D03*
X133675000Y-65400000D03*
X131706250Y-59025000D03*
X184875000Y-58175000D03*
X157987500Y-58175000D03*
X150293750Y-59000000D03*
X161062500Y-57450000D03*
X149506250Y-56725000D03*
X132475000Y-59025000D03*
X156431250Y-56725000D03*
X168656250Y-58175000D03*
X154525000Y-64500000D03*
X130150000Y-56750000D03*
X167118750Y-59000000D03*
X167868750Y-56725000D03*
X121106250Y-78650000D03*
X170962500Y-59000000D03*
X167887500Y-59000000D03*
X181781250Y-56725000D03*
X151812500Y-56725000D03*
X134012500Y-57475000D03*
X150293750Y-57450000D03*
X159525000Y-58175000D03*
X159506250Y-56725000D03*
X118781250Y-76375000D03*
X167887500Y-58175000D03*
X119650000Y-71475000D03*
X133243750Y-59025000D03*
X180262500Y-57450000D03*
X166350000Y-57450000D03*
X148756250Y-59000000D03*
X123412500Y-78650000D03*
X178706250Y-56725000D03*
X168656250Y-59000000D03*
X159525000Y-57450000D03*
X132475000Y-57475000D03*
X184106250Y-58175000D03*
X151831250Y-59000000D03*
X170962500Y-58175000D03*
X169406250Y-56725000D03*
X130168750Y-59025000D03*
X150275000Y-56725000D03*
X181012500Y-56725000D03*
X119568750Y-77100000D03*
X118000000Y-73775000D03*
X154906250Y-59000000D03*
X125312500Y-66562500D03*
X118800000Y-77825000D03*
X157218750Y-57450000D03*
X157200000Y-56725000D03*
X182568750Y-59000000D03*
X152600000Y-57450000D03*
X149525000Y-57450000D03*
X120337500Y-77100000D03*
X118031250Y-77100000D03*
X154137500Y-57450000D03*
X168637500Y-56725000D03*
X134025000Y-74975000D03*
X123412500Y-77825000D03*
X148737500Y-56725000D03*
X179493750Y-57450000D03*
X140725000Y-76250000D03*
X155681250Y-58175000D03*
X183318750Y-56725000D03*
X154137500Y-58175000D03*
X178725000Y-58175000D03*
X166350000Y-58175000D03*
X148400000Y-73800000D03*
X127275000Y-75175000D03*
X154906250Y-57450000D03*
X155681250Y-57450000D03*
X167118750Y-58175000D03*
X170962500Y-57450000D03*
X124181250Y-78650000D03*
X122643750Y-77825000D03*
X121106250Y-77825000D03*
X122643750Y-77100000D03*
X153368750Y-57450000D03*
X160293750Y-57450000D03*
X117975000Y-60925000D03*
X122625000Y-76375000D03*
X160293750Y-58175000D03*
X182568750Y-58175000D03*
X159525000Y-59000000D03*
X180262500Y-58175000D03*
X180262500Y-59000000D03*
X120337500Y-78650000D03*
X152600000Y-59000000D03*
X182550000Y-56725000D03*
X167887500Y-57450000D03*
X184875000Y-57450000D03*
X133243750Y-57475000D03*
X179475000Y-56725000D03*
X181031250Y-58175000D03*
X170193750Y-58175000D03*
X148756250Y-57450000D03*
X155681250Y-59000000D03*
X151062500Y-59000000D03*
X154906250Y-58175000D03*
X172500000Y-59000000D03*
X155662500Y-56725000D03*
X171731250Y-59000000D03*
X119550000Y-76375000D03*
X149525000Y-58175000D03*
X178725000Y-59000000D03*
X156275000Y-64500000D03*
X158756250Y-57450000D03*
X172500000Y-57450000D03*
X158756250Y-58175000D03*
X158756250Y-59000000D03*
X179493750Y-58175000D03*
X121875000Y-77100000D03*
X171731250Y-58175000D03*
X160275000Y-56725000D03*
X130937500Y-59025000D03*
X157968750Y-56725000D03*
X153368750Y-58175000D03*
X166350000Y-59000000D03*
X152581250Y-56725000D03*
X161062500Y-59000000D03*
X118012500Y-76375000D03*
X184875000Y-59000000D03*
X121875000Y-77825000D03*
X154887500Y-56725000D03*
X181031250Y-57450000D03*
X170193750Y-57450000D03*
X120337500Y-77825000D03*
X172481250Y-56725000D03*
X140000000Y-75550000D03*
X134012500Y-58200000D03*
X151062500Y-58175000D03*
X181031250Y-59000000D03*
X169425000Y-59000000D03*
X166331250Y-56725000D03*
X161831250Y-57450000D03*
X156450000Y-59000000D03*
X118800000Y-77100000D03*
%TO.N,5V*%
X153261510Y-67102518D03*
X129525000Y-75300000D03*
%TO.N,3V3*%
X143000000Y-72300000D03*
X162100000Y-69950000D03*
%TO.N,D+1*%
X120075000Y-66875000D03*
X121450000Y-58425000D03*
%TO.N,D-1*%
X119975000Y-67750000D03*
X121600000Y-60275000D03*
%TO.N,TXD*%
X129225000Y-68625000D03*
X145650000Y-69275000D03*
%TO.N,RXD*%
X146150000Y-68525000D03*
X134062500Y-66712500D03*
%TD*%
D36*
%TO.N,CANH*%
X189330000Y-65000000D02*
X189500000Y-65170000D01*
X188000000Y-65000000D02*
X189330000Y-65000000D01*
X186337500Y-63337500D02*
X188000000Y-65000000D01*
X184525000Y-63337500D02*
X186337500Y-63337500D01*
%TO.N,CANL*%
X189330000Y-67540000D02*
X189500000Y-67710000D01*
X186337500Y-69162500D02*
X187960000Y-67540000D01*
X184525000Y-69162500D02*
X186337500Y-69162500D01*
X187960000Y-67540000D02*
X189330000Y-67540000D01*
%TO.N,VSS*%
X140000000Y-75550000D02*
X140000000Y-74650000D01*
X114038000Y-61187000D02*
X114038000Y-62405000D01*
X156527500Y-65640000D02*
X156275000Y-65387500D01*
X114050000Y-61000000D02*
X114050000Y-61175000D01*
X122337500Y-61950000D02*
X122350000Y-61937500D01*
X117975000Y-60925000D02*
X117975000Y-61175000D01*
X147925000Y-76237500D02*
X147925000Y-75325000D01*
X118613000Y-64300000D02*
X118950000Y-64300000D01*
X117963000Y-73587000D02*
X117963000Y-72595000D01*
X127275000Y-74112500D02*
X127275000Y-75175000D01*
X118875000Y-70700000D02*
X119650000Y-71475000D01*
X179775000Y-66250000D02*
X181162500Y-66250000D01*
X141525000Y-76275000D02*
X140750000Y-76275000D01*
X122325000Y-56712500D02*
X123187500Y-56712500D01*
X134025000Y-74112500D02*
X134025000Y-74975000D01*
X158525000Y-65640000D02*
X156527500Y-65640000D01*
X156275000Y-64500000D02*
X156275000Y-65387500D01*
X132325000Y-65404000D02*
X133671000Y-65404000D01*
X126901000Y-66040000D02*
X125835000Y-66040000D01*
X123187500Y-56712500D02*
X123200000Y-56700000D01*
X117963000Y-61187000D02*
X117963000Y-62405000D01*
X144275000Y-72350000D02*
X143925000Y-72700000D01*
X120262500Y-72087500D02*
X121100000Y-72087500D01*
X122337500Y-63625000D02*
X122337500Y-61950000D01*
X118950000Y-64300000D02*
X119500000Y-63750000D01*
X164025000Y-60850000D02*
X164025000Y-59500000D01*
X137965000Y-59352500D02*
X138431250Y-59818750D01*
X114050000Y-61175000D02*
X114038000Y-61187000D01*
X114038000Y-72595000D02*
X114038000Y-73713000D01*
X121025000Y-68062500D02*
X121025000Y-68950000D01*
X117975000Y-61175000D02*
X117963000Y-61187000D01*
X125835000Y-66040000D02*
X125312500Y-66562500D01*
X140750000Y-76275000D02*
X140725000Y-76250000D01*
X165762500Y-69900000D02*
X166686333Y-69900000D01*
X137965000Y-57500000D02*
X137965000Y-59352500D01*
X178150000Y-66250000D02*
X179775000Y-66250000D01*
X138431250Y-59818750D02*
X139112500Y-60500000D01*
X118000000Y-73624000D02*
X117963000Y-73587000D01*
X125312500Y-66562500D02*
X125300000Y-66575000D01*
X119650000Y-71475000D02*
X120262500Y-72087500D01*
X122350000Y-61937500D02*
X123387500Y-61937500D01*
X144275000Y-70988000D02*
X144275000Y-72350000D01*
X140000000Y-74650000D02*
X141525000Y-74650000D01*
X148400000Y-73025000D02*
X148400000Y-73800000D01*
X133671000Y-65404000D02*
X133675000Y-65400000D01*
X123387500Y-61937500D02*
X123400000Y-61925000D01*
X114038000Y-73713000D02*
X114050000Y-73725000D01*
X143925000Y-72700000D02*
X143925000Y-72825000D01*
X118613000Y-70700000D02*
X118875000Y-70700000D01*
X154525000Y-64500000D02*
X154525000Y-65387500D01*
X118000000Y-73775000D02*
X118000000Y-73624000D01*
%TO.N,5V*%
X123950000Y-65250000D02*
X124104000Y-65404000D01*
D37*
X129525000Y-74200000D02*
X129525000Y-75300000D01*
X128748000Y-74200000D02*
X129525000Y-74200000D01*
D36*
X156275000Y-67112500D02*
X153271492Y-67112500D01*
X153271492Y-67112500D02*
X153261510Y-67102518D01*
D37*
X128748000Y-72300000D02*
X128524000Y-72524000D01*
X128025000Y-72300000D02*
X129525000Y-72300000D01*
X128475000Y-72750000D02*
X128025000Y-72300000D01*
X128524000Y-72750000D02*
X128524000Y-73976000D01*
D36*
X158525000Y-66910000D02*
X158322500Y-67112500D01*
D37*
X126275000Y-72300000D02*
X128025000Y-72300000D01*
X128524000Y-73976000D02*
X128748000Y-74200000D01*
D36*
X124104000Y-65404000D02*
X126901000Y-65404000D01*
D37*
X128524000Y-72750000D02*
X128475000Y-72750000D01*
X128524000Y-72524000D02*
X128524000Y-72750000D01*
X123950000Y-69975000D02*
X123950000Y-65250000D01*
D36*
X158322500Y-67112500D02*
X156275000Y-67112500D01*
D37*
X129525000Y-72300000D02*
X128748000Y-72300000D01*
X123950000Y-69975000D02*
X126275000Y-72300000D01*
D36*
%TO.N,3V3*%
X144437500Y-58647500D02*
X144437500Y-60500000D01*
D38*
X147575000Y-63148500D02*
X147575000Y-61772500D01*
X145475000Y-60500000D02*
X144437500Y-60500000D01*
D36*
X163925000Y-68180000D02*
X163925000Y-69936541D01*
X141525000Y-72925000D02*
X141525000Y-72350000D01*
X140000000Y-72375000D02*
X140075000Y-72300000D01*
X145585000Y-57500000D02*
X144437500Y-58647500D01*
X141525000Y-72350000D02*
X141475000Y-72300000D01*
X162106354Y-69956354D02*
X162100000Y-69950000D01*
D38*
X143775000Y-66948500D02*
X147575000Y-63148500D01*
X132025000Y-72300000D02*
X140075000Y-72300000D01*
X140075000Y-72300000D02*
X141475000Y-72300000D01*
X146302500Y-60500000D02*
X145475000Y-60500000D01*
X143775000Y-72075500D02*
X143775000Y-70988000D01*
X143550500Y-72300000D02*
X143775000Y-72075500D01*
X143000000Y-72300000D02*
X143550500Y-72300000D01*
D36*
X163925000Y-69936541D02*
X163905187Y-69956354D01*
X140000000Y-72925000D02*
X140000000Y-72375000D01*
D38*
X147575000Y-61772500D02*
X146302500Y-60500000D01*
D36*
X163905187Y-69956354D02*
X162106354Y-69956354D01*
D38*
X141475000Y-72300000D02*
X143000000Y-72300000D01*
X143775000Y-70988000D02*
X143775000Y-66948500D01*
D36*
%TO.N,3V3_V1*%
X124571500Y-64134000D02*
X126901000Y-64134000D01*
X131060000Y-67310000D02*
X132325000Y-67310000D01*
X128520000Y-64770000D02*
X131060000Y-67310000D01*
X124062500Y-63625000D02*
X124571500Y-64134000D01*
X126901000Y-64134000D02*
X126901000Y-64770000D01*
X126901000Y-64770000D02*
X128520000Y-64770000D01*
%TO.N,D+1*%
X122312500Y-58425000D02*
X122325000Y-58437500D01*
X122325000Y-58437500D02*
X122462500Y-58437500D01*
X119925000Y-66875000D02*
X120075000Y-66875000D01*
X121450000Y-58425000D02*
X122312500Y-58425000D01*
X118613000Y-67250000D02*
X119550000Y-67250000D01*
X119550000Y-67250000D02*
X119775000Y-67025000D01*
X122550000Y-58525000D02*
X124912500Y-58525000D01*
X122462500Y-58437500D02*
X122550000Y-58525000D01*
X119775000Y-67025000D02*
X119925000Y-66875000D01*
%TO.N,D-1*%
X122287500Y-60275000D02*
X122350000Y-60212500D01*
X122350000Y-60212500D02*
X122487500Y-60212500D01*
X121600000Y-60275000D02*
X122287500Y-60275000D01*
X122600000Y-60100000D02*
X124887500Y-60100000D01*
X122487500Y-60212500D02*
X122600000Y-60100000D01*
X118613000Y-67750000D02*
X119975000Y-67750000D01*
%TO.N,Net-(C9-Pad1)*%
X184282477Y-66250000D02*
X184532477Y-66250000D01*
X184282477Y-66250000D02*
X184532477Y-66500000D01*
X184532477Y-67177126D02*
X184554038Y-67198687D01*
X184282477Y-66250000D02*
X184532477Y-66000000D01*
X184532477Y-66000000D02*
X184532477Y-66250000D01*
X184532477Y-66250000D02*
X184532477Y-66500000D01*
X184282477Y-66250000D02*
X182887500Y-66250000D01*
X184532477Y-65169977D02*
X184532477Y-66000000D01*
X184532477Y-66500000D02*
X184532477Y-67177126D01*
X184525000Y-65162500D02*
X184532477Y-65169977D01*
%TO.N,OSC_IN*%
X144037500Y-76400000D02*
X144037500Y-74875000D01*
X144037500Y-74875000D02*
X144775000Y-74137500D01*
X144037500Y-76400000D02*
X142437500Y-78000000D01*
X142437500Y-78000000D02*
X141525000Y-78000000D01*
X143775000Y-76137500D02*
X144037500Y-76400000D01*
X144775000Y-74137500D02*
X144775000Y-70988000D01*
%TO.N,OSC_OUT*%
X146312500Y-76025000D02*
X145937500Y-76400000D01*
X147500000Y-77962500D02*
X147925000Y-77962500D01*
X146025000Y-74887500D02*
X145275000Y-74137500D01*
X146025000Y-76312500D02*
X146025000Y-74887500D01*
X145275000Y-74137500D02*
X145275000Y-70988000D01*
X145937500Y-76400000D02*
X146025000Y-76312500D01*
X145937500Y-76400000D02*
X147500000Y-77962500D01*
D37*
%TO.N,Net-(J1-VBUS_1)*%
X122450000Y-65100000D02*
X118613000Y-65100000D01*
D36*
X120637500Y-69900000D02*
X118613000Y-69900000D01*
D37*
X118613000Y-65100000D02*
X117870785Y-65100000D01*
X122600000Y-65250000D02*
X122450000Y-65100000D01*
X117870785Y-65100000D02*
X116537000Y-66433785D01*
X116537000Y-66433785D02*
X116537000Y-68566215D01*
X117870785Y-69900000D02*
X118613000Y-69900000D01*
X116537000Y-68566215D02*
X117870785Y-69900000D01*
D36*
X121100000Y-70362500D02*
X120637500Y-69900000D01*
%TO.N,NRST*%
X145775000Y-70988000D02*
X145775000Y-72125000D01*
X145775000Y-72125000D02*
X146675000Y-73025000D01*
%TO.N,CANL*%
X184525000Y-69162500D02*
X178237500Y-69162500D01*
X175960000Y-66885000D02*
X176275000Y-67200000D01*
X178237500Y-69162500D02*
X176275000Y-67200000D01*
X173050000Y-66885000D02*
X175960000Y-66885000D01*
%TO.N,CANH*%
X176276312Y-65301312D02*
X176275000Y-65300000D01*
X173050000Y-65615000D02*
X175960000Y-65615000D01*
X176275000Y-65300000D02*
X178237500Y-63337500D01*
X178237500Y-63337500D02*
X184525000Y-63337500D01*
X175960000Y-65615000D02*
X176275000Y-65300000D01*
%TO.N,TXD*%
X126901000Y-68580000D02*
X129180000Y-68580000D01*
X146275000Y-70988000D02*
X146275000Y-69900000D01*
X129180000Y-68580000D02*
X129225000Y-68625000D01*
X146275000Y-69900000D02*
X145650000Y-69275000D01*
%TO.N,SWDIO*%
X142612500Y-59412500D02*
X142612500Y-60500000D01*
X142612500Y-60662500D02*
X141775000Y-61500000D01*
X143045000Y-58980000D02*
X142612500Y-59412500D01*
X143045000Y-57500000D02*
X143045000Y-58980000D01*
X142612500Y-60500000D02*
X142612500Y-60662500D01*
X141775000Y-61500000D02*
X141775000Y-62512000D01*
%TO.N,SWCLK*%
X140505000Y-58980000D02*
X140937500Y-59412500D01*
X140937500Y-60500000D02*
X140937500Y-61162500D01*
X140937500Y-59412500D02*
X140937500Y-60500000D01*
X140937500Y-61162500D02*
X141275000Y-61500000D01*
X141275000Y-61500000D02*
X141275000Y-62512000D01*
X140505000Y-57500000D02*
X140505000Y-58980000D01*
%TO.N,CANTX*%
X150349500Y-66000000D02*
X148263000Y-66000000D01*
X158525000Y-64370000D02*
X158054000Y-63899000D01*
X158054000Y-63899000D02*
X152450500Y-63899000D01*
X152450500Y-63899000D02*
X150349500Y-66000000D01*
%TO.N,RXD*%
X146775000Y-69150000D02*
X146150000Y-68525000D01*
X146775000Y-70988000D02*
X146775000Y-69150000D01*
X132325000Y-66674000D02*
X134024000Y-66674000D01*
X134024000Y-66674000D02*
X134062500Y-66712500D01*
%TO.N,CANRX*%
X148263000Y-66500000D02*
X150275000Y-66500000D01*
X157955000Y-68750000D02*
X158525000Y-68180000D01*
X152525000Y-68750000D02*
X157955000Y-68750000D01*
X150275000Y-66500000D02*
X152525000Y-68750000D01*
%TO.N,Net-(IC3-STBY)*%
X164025000Y-62150000D02*
X164025000Y-64270000D01*
X164025000Y-64270000D02*
X163925000Y-64370000D01*
%TO.N,Net-(J1-CC1)*%
X118625500Y-66237500D02*
X118613000Y-66250000D01*
X121025000Y-66237500D02*
X118625500Y-66237500D01*
%TO.N,/USBDN*%
X126712500Y-60100000D02*
X126712500Y-60262500D01*
X125125000Y-63150000D02*
X125475000Y-63500000D01*
X125125000Y-61850000D02*
X125125000Y-63150000D01*
X126712500Y-60262500D02*
X125125000Y-61850000D01*
X125475000Y-63500000D02*
X126901000Y-63500000D01*
%TO.N,/USBDP*%
X126475000Y-61200000D02*
X125525000Y-62150000D01*
X127900000Y-60850000D02*
X127550000Y-61200000D01*
X125525000Y-62150000D02*
X125525000Y-62675000D01*
X127900000Y-58950000D02*
X127900000Y-60850000D01*
X125714000Y-62864000D02*
X126901000Y-62864000D01*
X125525000Y-62675000D02*
X125714000Y-62864000D01*
X127550000Y-61200000D02*
X126475000Y-61200000D01*
X126737500Y-58525000D02*
X127475000Y-58525000D01*
X127475000Y-58525000D02*
X127900000Y-58950000D01*
%TO.N,Net-(IC3-CANH)*%
X168475000Y-65640000D02*
X168500000Y-65615000D01*
X163925000Y-65640000D02*
X168475000Y-65640000D01*
%TO.N,Net-(IC3-CANL)*%
X163925000Y-66910000D02*
X168475000Y-66910000D01*
X168475000Y-66910000D02*
X168500000Y-66885000D01*
%TD*%
%TA.AperFunction,Conductor*%
%TO.N,VSS*%
G36*
X183600522Y-63947729D02*
G01*
X183634221Y-63957551D01*
X183634349Y-63957661D01*
X183634428Y-63957685D01*
X183634714Y-63957977D01*
X183660940Y-63980611D01*
X183667600Y-63988267D01*
X183704660Y-64048350D01*
X183821674Y-64165364D01*
X183824499Y-64168611D01*
X183837353Y-64196610D01*
X183852114Y-64223642D01*
X183851797Y-64228071D01*
X183853651Y-64232109D01*
X183849326Y-64262613D01*
X183847130Y-64293334D01*
X183844468Y-64296889D01*
X183843845Y-64301287D01*
X183818629Y-64337681D01*
X183704661Y-64451648D01*
X183614093Y-64598481D01*
X183614091Y-64598486D01*
X183603011Y-64631923D01*
X183559826Y-64762247D01*
X183559826Y-64762248D01*
X183559825Y-64762248D01*
X183549500Y-64863315D01*
X183549500Y-65183272D01*
X183529815Y-65250311D01*
X183477011Y-65296066D01*
X183407853Y-65306010D01*
X183386496Y-65300978D01*
X183337753Y-65284826D01*
X183337751Y-65284825D01*
X183236678Y-65274500D01*
X182538330Y-65274500D01*
X182538312Y-65274501D01*
X182437247Y-65284825D01*
X182273484Y-65339092D01*
X182273481Y-65339093D01*
X182126648Y-65429661D01*
X182004661Y-65551648D01*
X181914093Y-65698481D01*
X181914091Y-65698486D01*
X181888862Y-65774623D01*
X181859826Y-65862247D01*
X181859826Y-65862248D01*
X181859825Y-65862248D01*
X181849502Y-65963298D01*
X181849500Y-65963328D01*
X181849500Y-66536669D01*
X181849501Y-66536687D01*
X181859825Y-66637752D01*
X181889597Y-66727596D01*
X181914092Y-66801516D01*
X182004660Y-66948350D01*
X182126650Y-67070340D01*
X182273484Y-67160908D01*
X182437247Y-67215174D01*
X182538323Y-67225500D01*
X183236676Y-67225499D01*
X183236684Y-67225498D01*
X183236687Y-67225498D01*
X183292030Y-67219844D01*
X183337753Y-67215174D01*
X183386496Y-67199021D01*
X183456324Y-67196620D01*
X183516366Y-67232351D01*
X183547559Y-67294871D01*
X183549500Y-67316728D01*
X183549500Y-67636668D01*
X183549501Y-67636687D01*
X183559825Y-67737752D01*
X183596109Y-67847249D01*
X183611631Y-67894090D01*
X183614092Y-67901515D01*
X183614093Y-67901518D01*
X183646447Y-67953972D01*
X183691024Y-68026243D01*
X183704661Y-68048351D01*
X183818629Y-68162319D01*
X183820878Y-68166438D01*
X183824822Y-68168984D01*
X183837466Y-68196816D01*
X183852114Y-68223642D01*
X183851779Y-68228322D01*
X183853721Y-68232597D01*
X183849310Y-68262847D01*
X183847130Y-68293334D01*
X183844129Y-68298379D01*
X183843640Y-68301736D01*
X183833273Y-68316634D01*
X183824499Y-68331389D01*
X183821674Y-68334635D01*
X183704660Y-68451650D01*
X183667600Y-68511732D01*
X183660940Y-68519389D01*
X183639714Y-68532970D01*
X183620980Y-68549821D01*
X183609191Y-68552499D01*
X183602087Y-68557046D01*
X183589299Y-68557020D01*
X183567389Y-68562000D01*
X178537597Y-68562000D01*
X178470558Y-68542315D01*
X178449916Y-68525681D01*
X177531944Y-67607709D01*
X177498459Y-67546386D01*
X177500549Y-67485433D01*
X177510098Y-67452569D01*
X177513000Y-67415694D01*
X177513000Y-66984306D01*
X177510098Y-66947431D01*
X177509681Y-66945997D01*
X177464750Y-66791344D01*
X177464244Y-66789602D01*
X177380581Y-66648135D01*
X177380579Y-66648133D01*
X177380576Y-66648129D01*
X177264370Y-66531923D01*
X177264362Y-66531917D01*
X177139690Y-66458187D01*
X177122898Y-66448256D01*
X177122897Y-66448255D01*
X177122896Y-66448255D01*
X177122893Y-66448254D01*
X176965073Y-66402402D01*
X176965067Y-66402401D01*
X176928201Y-66399500D01*
X176928194Y-66399500D01*
X176353315Y-66399500D01*
X176344629Y-66396949D01*
X176335668Y-66398238D01*
X176291318Y-66382888D01*
X176247146Y-66357386D01*
X176198932Y-66306821D01*
X176185708Y-66238214D01*
X176211676Y-66173349D01*
X176247149Y-66142612D01*
X176249585Y-66141206D01*
X176258541Y-66136035D01*
X176291315Y-66117112D01*
X176297466Y-66115464D01*
X176301804Y-66111706D01*
X176322715Y-66108699D01*
X176353315Y-66100500D01*
X176928186Y-66100500D01*
X176928194Y-66100500D01*
X176965069Y-66097598D01*
X176965071Y-66097597D01*
X176965073Y-66097597D01*
X177036005Y-66076989D01*
X177122898Y-66051744D01*
X177264365Y-65968081D01*
X177380581Y-65851865D01*
X177464244Y-65710398D01*
X177510098Y-65552569D01*
X177513000Y-65515694D01*
X177513000Y-65084306D01*
X177510098Y-65047431D01*
X177500549Y-65014563D01*
X177500747Y-64944698D01*
X177531942Y-64892291D01*
X178449916Y-63974319D01*
X178511239Y-63940834D01*
X178537597Y-63938000D01*
X183567389Y-63938000D01*
X183600522Y-63947729D01*
G37*
%TD.AperFunction*%
%TA.AperFunction,Conductor*%
G36*
X189235760Y-55552531D02*
G01*
X189340798Y-55571780D01*
X189355335Y-55575363D01*
X189629172Y-55660695D01*
X189643163Y-55666000D01*
X189904743Y-55783727D01*
X189917989Y-55790680D01*
X190163465Y-55939075D01*
X190175776Y-55947573D01*
X190401573Y-56124473D01*
X190412781Y-56134403D01*
X190615596Y-56337218D01*
X190625526Y-56348426D01*
X190802422Y-56574217D01*
X190810928Y-56586540D01*
X190959316Y-56832004D01*
X190966275Y-56845263D01*
X191083997Y-57106831D01*
X191089306Y-57120832D01*
X191174635Y-57394663D01*
X191178219Y-57409201D01*
X191222469Y-57650660D01*
X191224500Y-57673012D01*
X191224500Y-77326986D01*
X191222469Y-77349338D01*
X191178219Y-77590798D01*
X191174635Y-77605336D01*
X191089306Y-77879167D01*
X191083997Y-77893168D01*
X190966275Y-78154736D01*
X190959316Y-78167995D01*
X190810928Y-78413459D01*
X190802422Y-78425782D01*
X190625526Y-78651573D01*
X190615596Y-78662781D01*
X190412781Y-78865596D01*
X190401573Y-78875526D01*
X190175782Y-79052422D01*
X190163459Y-79060928D01*
X189917995Y-79209316D01*
X189904736Y-79216275D01*
X189643168Y-79333997D01*
X189629167Y-79339306D01*
X189355336Y-79424635D01*
X189340799Y-79428219D01*
X189259004Y-79443209D01*
X189235758Y-79447469D01*
X189213408Y-79449500D01*
X114286592Y-79449500D01*
X114264241Y-79447469D01*
X114235870Y-79442270D01*
X114159200Y-79428219D01*
X114144663Y-79424635D01*
X113870832Y-79339306D01*
X113856831Y-79333997D01*
X113595263Y-79216275D01*
X113582004Y-79209316D01*
X113336540Y-79060928D01*
X113324217Y-79052422D01*
X113305807Y-79037999D01*
X113172821Y-78933811D01*
X113098426Y-78875526D01*
X113087218Y-78865596D01*
X112884403Y-78662781D01*
X112874473Y-78651573D01*
X112844002Y-78612680D01*
X112697573Y-78425776D01*
X112689075Y-78413465D01*
X112540680Y-78167989D01*
X112533727Y-78154743D01*
X112416000Y-77893163D01*
X112410693Y-77879167D01*
X112331115Y-77623791D01*
X112325500Y-77586901D01*
X112325500Y-66362327D01*
X115811500Y-66362327D01*
X115811500Y-68637672D01*
X115837768Y-68769724D01*
X115837770Y-68769732D01*
X115839381Y-68777838D01*
X115894069Y-68909866D01*
X115973469Y-69028697D01*
X115973470Y-69028698D01*
X116896765Y-69951992D01*
X116930250Y-70013315D01*
X116925266Y-70083006D01*
X116896767Y-70127352D01*
X116877488Y-70146631D01*
X116877485Y-70146635D01*
X116801719Y-70277863D01*
X116762500Y-70424234D01*
X116762500Y-70575765D01*
X116801719Y-70722136D01*
X116839602Y-70787750D01*
X116877485Y-70853365D01*
X116984635Y-70960515D01*
X117115865Y-71036281D01*
X117262234Y-71075500D01*
X117262236Y-71075500D01*
X117413764Y-71075500D01*
X117413766Y-71075500D01*
X117560135Y-71036281D01*
X117691365Y-70960515D01*
X117798515Y-70853365D01*
X117852444Y-70759956D01*
X117903011Y-70711741D01*
X117971618Y-70698518D01*
X117972948Y-70698653D01*
X117990127Y-70700500D01*
X119235872Y-70700499D01*
X119295483Y-70694091D01*
X119430331Y-70643796D01*
X119545546Y-70557546D01*
X119551052Y-70550191D01*
X119606985Y-70508319D01*
X119650320Y-70500500D01*
X120000501Y-70500500D01*
X120067540Y-70520185D01*
X120113295Y-70572989D01*
X120124501Y-70624500D01*
X120124501Y-70711686D01*
X120134825Y-70812752D01*
X120155618Y-70875499D01*
X120189092Y-70976516D01*
X120279660Y-71123350D01*
X120401650Y-71245340D01*
X120548484Y-71335908D01*
X120712247Y-71390174D01*
X120813323Y-71400500D01*
X121386676Y-71400499D01*
X121386684Y-71400498D01*
X121386687Y-71400498D01*
X121442030Y-71394844D01*
X121487753Y-71390174D01*
X121651516Y-71335908D01*
X121798350Y-71245340D01*
X121920340Y-71123350D01*
X122010908Y-70976516D01*
X122065174Y-70812753D01*
X122075500Y-70711677D01*
X122075499Y-70013324D01*
X122065174Y-69912247D01*
X122010908Y-69748484D01*
X121920340Y-69601650D01*
X121798350Y-69479660D01*
X121651516Y-69389092D01*
X121487753Y-69334826D01*
X121487751Y-69334825D01*
X121386684Y-69324500D01*
X120826191Y-69324500D01*
X120794099Y-69320275D01*
X120716558Y-69299499D01*
X120716557Y-69299499D01*
X120558443Y-69299499D01*
X120550847Y-69299499D01*
X120550831Y-69299500D01*
X119812500Y-69299500D01*
X119805485Y-69297440D01*
X119798279Y-69298682D01*
X119772407Y-69287727D01*
X119745461Y-69279815D01*
X119740674Y-69274290D01*
X119733939Y-69271439D01*
X119718094Y-69248232D01*
X119699706Y-69227011D01*
X119697696Y-69218356D01*
X119694542Y-69213736D01*
X119690106Y-69185664D01*
X119688548Y-69178954D01*
X119688499Y-69177213D01*
X119688499Y-69052128D01*
X119683793Y-69008360D01*
X119683657Y-69003451D01*
X119684320Y-69000935D01*
X119684320Y-68986747D01*
X119688500Y-68947873D01*
X119688499Y-68660287D01*
X119708183Y-68593249D01*
X119760987Y-68547494D01*
X119830146Y-68537550D01*
X119836677Y-68538668D01*
X119876316Y-68546553D01*
X119896157Y-68550500D01*
X119896158Y-68550500D01*
X120053844Y-68550500D01*
X120053845Y-68550499D01*
X120208497Y-68519737D01*
X120354179Y-68459394D01*
X120485289Y-68371789D01*
X120596789Y-68260289D01*
X120684394Y-68129179D01*
X120686222Y-68124767D01*
X120706703Y-68075320D01*
X120744737Y-67983497D01*
X120775500Y-67828842D01*
X120775500Y-67671158D01*
X120775500Y-67671155D01*
X120775499Y-67671153D01*
X120764080Y-67613746D01*
X120744737Y-67516503D01*
X120718199Y-67452436D01*
X120717351Y-67444544D01*
X120713179Y-67437790D01*
X120713669Y-67410305D01*
X120710731Y-67382970D01*
X120714317Y-67374089D01*
X120714427Y-67367932D01*
X120729656Y-67336099D01*
X120766735Y-67280606D01*
X120820348Y-67235803D01*
X120869837Y-67225499D01*
X121311670Y-67225499D01*
X121311676Y-67225499D01*
X121412753Y-67215174D01*
X121576516Y-67160908D01*
X121723350Y-67070340D01*
X121845340Y-66948350D01*
X121935908Y-66801516D01*
X121990174Y-66637753D01*
X122000500Y-66536677D01*
X122000499Y-66210388D01*
X122020183Y-66143351D01*
X122072987Y-66097596D01*
X122142146Y-66087652D01*
X122165534Y-66093622D01*
X122167508Y-66094089D01*
X122167513Y-66094089D01*
X122167517Y-66094091D01*
X122227127Y-66100500D01*
X122972872Y-66100499D01*
X123032483Y-66094091D01*
X123057165Y-66084884D01*
X123126856Y-66079899D01*
X123188180Y-66113384D01*
X123221666Y-66174706D01*
X123224500Y-66201066D01*
X123224500Y-70046455D01*
X123224500Y-70046457D01*
X123224499Y-70046457D01*
X123245196Y-70150499D01*
X123245196Y-70150500D01*
X123252379Y-70186613D01*
X123252381Y-70186620D01*
X123307070Y-70318651D01*
X123386469Y-70437482D01*
X125812515Y-72863528D01*
X125812522Y-72863534D01*
X125931344Y-72942928D01*
X125966631Y-72957544D01*
X126063380Y-72997619D01*
X126063384Y-72997619D01*
X126063385Y-72997620D01*
X126203542Y-73025500D01*
X126203545Y-73025500D01*
X126309679Y-73025500D01*
X126376718Y-73045185D01*
X126415216Y-73084402D01*
X126454660Y-73148350D01*
X126576650Y-73270340D01*
X126723484Y-73360908D01*
X126887247Y-73415174D01*
X126988323Y-73425500D01*
X127561676Y-73425499D01*
X127661899Y-73415261D01*
X127730591Y-73428031D01*
X127781476Y-73475911D01*
X127798500Y-73538619D01*
X127798500Y-74047455D01*
X127798500Y-74047457D01*
X127798499Y-74047457D01*
X127814630Y-74128545D01*
X127814630Y-74128546D01*
X127826379Y-74187612D01*
X127826381Y-74187620D01*
X127881070Y-74319651D01*
X127960469Y-74438482D01*
X128285517Y-74763530D01*
X128352736Y-74808444D01*
X128404340Y-74842925D01*
X128404346Y-74842928D01*
X128404347Y-74842929D01*
X128536380Y-74897619D01*
X128657629Y-74921737D01*
X128719540Y-74954121D01*
X128754114Y-75014837D01*
X128755055Y-75067545D01*
X128724500Y-75221153D01*
X128724500Y-75378846D01*
X128755261Y-75533489D01*
X128755264Y-75533501D01*
X128815602Y-75679172D01*
X128815609Y-75679185D01*
X128903210Y-75810288D01*
X128903213Y-75810292D01*
X129014707Y-75921786D01*
X129014711Y-75921789D01*
X129145814Y-76009390D01*
X129145827Y-76009397D01*
X129291498Y-76069735D01*
X129291503Y-76069737D01*
X129446153Y-76100499D01*
X129446156Y-76100500D01*
X129446158Y-76100500D01*
X129603844Y-76100500D01*
X129603845Y-76100499D01*
X129758497Y-76069737D01*
X129904179Y-76009394D01*
X130035289Y-75921789D01*
X130146789Y-75810289D01*
X130234394Y-75679179D01*
X130294737Y-75533497D01*
X130325500Y-75378842D01*
X130325500Y-75221158D01*
X130325500Y-75221155D01*
X130294904Y-75067344D01*
X130301131Y-74997752D01*
X130342210Y-74943885D01*
X130342326Y-74943797D01*
X130342331Y-74943796D01*
X130457546Y-74857546D01*
X130543796Y-74742331D01*
X130594091Y-74607483D01*
X130600500Y-74547873D01*
X130600499Y-73852128D01*
X130600499Y-73852127D01*
X130949500Y-73852127D01*
X130949500Y-73852134D01*
X130949500Y-73852135D01*
X130949500Y-74547870D01*
X130949501Y-74547876D01*
X130955908Y-74607483D01*
X131006202Y-74742328D01*
X131006206Y-74742335D01*
X131092452Y-74857544D01*
X131092455Y-74857547D01*
X131207664Y-74943793D01*
X131207671Y-74943797D01*
X131342517Y-74994091D01*
X131342516Y-74994091D01*
X131349444Y-74994835D01*
X131402127Y-75000500D01*
X132647872Y-75000499D01*
X132707483Y-74994091D01*
X132842331Y-74943796D01*
X132957546Y-74857546D01*
X133043796Y-74742331D01*
X133094091Y-74607483D01*
X133100500Y-74547873D01*
X133100499Y-73852128D01*
X133094091Y-73792517D01*
X133068293Y-73723350D01*
X133043797Y-73657671D01*
X133043793Y-73657664D01*
X132957547Y-73542455D01*
X132957544Y-73542452D01*
X132842335Y-73456206D01*
X132842328Y-73456202D01*
X132707482Y-73405908D01*
X132707483Y-73405908D01*
X132647883Y-73399501D01*
X132647881Y-73399500D01*
X132647873Y-73399500D01*
X132647864Y-73399500D01*
X131402129Y-73399500D01*
X131402123Y-73399501D01*
X131342516Y-73405908D01*
X131207671Y-73456202D01*
X131207664Y-73456206D01*
X131092455Y-73542452D01*
X131092452Y-73542455D01*
X131006206Y-73657664D01*
X131006202Y-73657671D01*
X130956854Y-73789983D01*
X130955909Y-73792517D01*
X130949500Y-73852127D01*
X130600499Y-73852127D01*
X130594091Y-73792517D01*
X130585070Y-73768333D01*
X130580085Y-73698644D01*
X130585066Y-73681677D01*
X130594091Y-73657483D01*
X130600500Y-73597873D01*
X130600499Y-72902128D01*
X130594091Y-72842517D01*
X130585070Y-72818333D01*
X130580085Y-72748644D01*
X130585066Y-72731677D01*
X130594091Y-72707483D01*
X130600500Y-72647873D01*
X130600499Y-71952128D01*
X130600499Y-71952127D01*
X130949500Y-71952127D01*
X130949500Y-71952134D01*
X130949500Y-71952135D01*
X130949500Y-72647870D01*
X130949501Y-72647876D01*
X130955908Y-72707483D01*
X131006202Y-72842328D01*
X131006206Y-72842335D01*
X131092452Y-72957544D01*
X131092455Y-72957547D01*
X131207664Y-73043793D01*
X131207671Y-73043797D01*
X131342517Y-73094091D01*
X131342516Y-73094091D01*
X131349444Y-73094835D01*
X131402127Y-73100500D01*
X132647872Y-73100499D01*
X132707483Y-73094091D01*
X132842331Y-73043796D01*
X132937470Y-72972574D01*
X133002931Y-72948158D01*
X133071204Y-72963009D01*
X133117316Y-73006743D01*
X133204660Y-73148350D01*
X133326650Y-73270340D01*
X133473484Y-73360908D01*
X133637247Y-73415174D01*
X133738323Y-73425500D01*
X134311676Y-73425499D01*
X134311684Y-73425498D01*
X134311687Y-73425498D01*
X134367030Y-73419844D01*
X134412753Y-73415174D01*
X134576516Y-73360908D01*
X134723350Y-73270340D01*
X134845340Y-73148350D01*
X134935908Y-73001516D01*
X134935910Y-73001509D01*
X134937967Y-72997100D01*
X134984137Y-72944659D01*
X135050351Y-72925500D01*
X138900501Y-72925500D01*
X138967540Y-72945185D01*
X139013295Y-72997989D01*
X139024501Y-73049500D01*
X139024501Y-73274186D01*
X139034825Y-73375252D01*
X139061651Y-73456206D01*
X139088960Y-73538619D01*
X139089092Y-73539015D01*
X139089093Y-73539018D01*
X139091213Y-73542455D01*
X139179660Y-73685850D01*
X139301650Y-73807840D01*
X139448484Y-73898408D01*
X139612247Y-73952674D01*
X139713323Y-73963000D01*
X140286676Y-73962999D01*
X140286684Y-73962998D01*
X140286687Y-73962998D01*
X140342030Y-73957344D01*
X140387753Y-73952674D01*
X140551516Y-73898408D01*
X140697403Y-73808423D01*
X140764795Y-73789983D01*
X140827597Y-73808424D01*
X140973475Y-73898403D01*
X140973478Y-73898404D01*
X140973484Y-73898408D01*
X141137247Y-73952674D01*
X141238323Y-73963000D01*
X141811676Y-73962999D01*
X141811684Y-73962998D01*
X141811687Y-73962998D01*
X141867030Y-73957344D01*
X141912753Y-73952674D01*
X142076516Y-73898408D01*
X142223350Y-73807840D01*
X142345340Y-73685850D01*
X142435908Y-73539016D01*
X142490174Y-73375253D01*
X142500500Y-73274177D01*
X142500499Y-73145132D01*
X142520183Y-73078095D01*
X142572987Y-73032340D01*
X142642145Y-73022396D01*
X142671951Y-73030573D01*
X142717646Y-73049500D01*
X142766503Y-73069737D01*
X142888938Y-73094091D01*
X142921153Y-73100499D01*
X142921156Y-73100500D01*
X142921158Y-73100500D01*
X143078844Y-73100500D01*
X143078845Y-73100499D01*
X143233497Y-73069737D01*
X143379179Y-73009394D01*
X143473459Y-72946398D01*
X143486710Y-72941606D01*
X143495158Y-72934831D01*
X143517874Y-72930339D01*
X143529376Y-72926181D01*
X143535849Y-72925500D01*
X143612107Y-72925500D01*
X143692159Y-72909577D01*
X143697732Y-72908468D01*
X143697736Y-72908468D01*
X143732942Y-72901465D01*
X143732942Y-72901464D01*
X143732952Y-72901463D01*
X143766292Y-72887652D01*
X143846786Y-72854312D01*
X143912669Y-72810289D01*
X143949233Y-72785858D01*
X143968353Y-72766737D01*
X143974534Y-72761947D01*
X144000069Y-72751931D01*
X144024139Y-72738788D01*
X144032124Y-72739358D01*
X144039579Y-72736435D01*
X144066472Y-72741814D01*
X144093830Y-72743770D01*
X144100240Y-72748568D01*
X144108092Y-72750139D01*
X144127809Y-72769205D01*
X144149765Y-72785640D01*
X144152563Y-72793141D01*
X144158320Y-72798708D01*
X144164598Y-72825406D01*
X144174184Y-72851103D01*
X144174500Y-72859953D01*
X144174500Y-73837402D01*
X144154815Y-73904441D01*
X144138181Y-73925083D01*
X143668786Y-74394478D01*
X143668784Y-74394480D01*
X143556980Y-74506284D01*
X143551233Y-74512031D01*
X143548996Y-74509794D01*
X143504565Y-74542208D01*
X143462669Y-74549500D01*
X143239630Y-74549500D01*
X143239623Y-74549501D01*
X143180016Y-74555908D01*
X143045171Y-74606202D01*
X143045164Y-74606206D01*
X142929955Y-74692452D01*
X142929952Y-74692455D01*
X142843706Y-74807664D01*
X142843702Y-74807671D01*
X142793408Y-74942517D01*
X142787864Y-74994091D01*
X142787001Y-75002123D01*
X142787000Y-75002135D01*
X142787000Y-76749901D01*
X142767315Y-76816940D01*
X142750681Y-76837582D01*
X142434908Y-77153355D01*
X142373585Y-77186840D01*
X142303893Y-77181856D01*
X142259547Y-77153356D01*
X142223351Y-77117161D01*
X142223350Y-77117160D01*
X142076516Y-77026592D01*
X141912753Y-76972326D01*
X141912751Y-76972325D01*
X141811678Y-76962000D01*
X141238330Y-76962000D01*
X141238312Y-76962001D01*
X141137247Y-76972325D01*
X140973484Y-77026592D01*
X140973481Y-77026593D01*
X140826648Y-77117161D01*
X140704661Y-77239148D01*
X140614093Y-77385981D01*
X140614092Y-77385984D01*
X140559826Y-77549747D01*
X140559826Y-77549748D01*
X140559825Y-77549748D01*
X140549500Y-77650815D01*
X140549500Y-78349169D01*
X140549501Y-78349187D01*
X140559825Y-78450252D01*
X140586463Y-78530639D01*
X140613649Y-78612680D01*
X140614092Y-78614015D01*
X140614093Y-78614018D01*
X140648395Y-78669629D01*
X140704660Y-78760850D01*
X140826650Y-78882840D01*
X140973484Y-78973408D01*
X141137247Y-79027674D01*
X141238323Y-79038000D01*
X141811676Y-79037999D01*
X141811684Y-79037998D01*
X141811687Y-79037998D01*
X141867030Y-79032344D01*
X141912753Y-79027674D01*
X142076516Y-78973408D01*
X142223350Y-78882840D01*
X142345340Y-78760850D01*
X142407912Y-78659403D01*
X142459860Y-78612680D01*
X142508505Y-78601624D01*
X142508497Y-78601562D01*
X142509175Y-78601472D01*
X142513451Y-78600501D01*
X142516554Y-78600501D01*
X142516557Y-78600501D01*
X142669285Y-78559577D01*
X142719404Y-78530639D01*
X142806216Y-78480520D01*
X142918020Y-78368716D01*
X142918020Y-78368714D01*
X142928228Y-78358507D01*
X142928230Y-78358504D01*
X143023614Y-78263119D01*
X143084935Y-78229636D01*
X143154623Y-78234619D01*
X143180017Y-78244091D01*
X143239627Y-78250500D01*
X144835372Y-78250499D01*
X144894983Y-78244091D01*
X144944165Y-78225746D01*
X145013855Y-78220761D01*
X145030833Y-78225747D01*
X145080008Y-78244088D01*
X145080011Y-78244088D01*
X145080017Y-78244091D01*
X145139627Y-78250500D01*
X146735372Y-78250499D01*
X146794983Y-78244091D01*
X146794986Y-78244089D01*
X146801598Y-78242528D01*
X146871368Y-78246265D01*
X146928041Y-78287129D01*
X146953477Y-78350601D01*
X146959826Y-78412753D01*
X147014092Y-78576515D01*
X147014093Y-78576518D01*
X147029579Y-78601624D01*
X147104660Y-78723350D01*
X147226650Y-78845340D01*
X147373484Y-78935908D01*
X147537247Y-78990174D01*
X147638323Y-79000500D01*
X148211676Y-79000499D01*
X148211684Y-79000498D01*
X148211687Y-79000498D01*
X148267030Y-78994844D01*
X148312753Y-78990174D01*
X148476516Y-78935908D01*
X148623350Y-78845340D01*
X148745340Y-78723350D01*
X148835908Y-78576516D01*
X148890174Y-78412753D01*
X148900500Y-78311677D01*
X148900499Y-77613324D01*
X148890174Y-77512247D01*
X148835908Y-77348484D01*
X148745340Y-77201650D01*
X148623350Y-77079660D01*
X148476516Y-76989092D01*
X148312753Y-76934826D01*
X148312751Y-76934825D01*
X148211678Y-76924500D01*
X147638330Y-76924500D01*
X147638312Y-76924501D01*
X147537247Y-76934825D01*
X147537240Y-76934827D01*
X147447844Y-76964450D01*
X147432278Y-76964985D01*
X147417686Y-76970428D01*
X147398072Y-76966161D01*
X147378016Y-76966851D01*
X147363692Y-76958682D01*
X147349414Y-76955576D01*
X147321165Y-76934430D01*
X147224316Y-76837581D01*
X147190833Y-76776258D01*
X147187999Y-76749901D01*
X147187999Y-75002129D01*
X147187998Y-75002123D01*
X147187997Y-75002116D01*
X147181729Y-74943797D01*
X147181591Y-74942516D01*
X147131297Y-74807671D01*
X147131293Y-74807664D01*
X147045047Y-74692455D01*
X147045044Y-74692452D01*
X146929835Y-74606206D01*
X146929828Y-74606202D01*
X146794982Y-74555908D01*
X146794983Y-74555908D01*
X146735383Y-74549501D01*
X146735381Y-74549500D01*
X146735373Y-74549500D01*
X146735365Y-74549500D01*
X146587599Y-74549500D01*
X146558162Y-74540856D01*
X146528173Y-74534333D01*
X146523156Y-74530577D01*
X146520560Y-74529815D01*
X146499919Y-74513182D01*
X146425216Y-74438480D01*
X146393716Y-74406980D01*
X146393713Y-74406978D01*
X146195171Y-74208436D01*
X146161686Y-74147113D01*
X146166670Y-74077421D01*
X146208542Y-74021488D01*
X146274006Y-73997071D01*
X146295447Y-73997396D01*
X146325823Y-74000500D01*
X147024176Y-74000499D01*
X147024184Y-74000498D01*
X147024187Y-74000498D01*
X147079530Y-73994844D01*
X147125253Y-73990174D01*
X147289016Y-73935908D01*
X147435850Y-73845340D01*
X147557840Y-73723350D01*
X147648408Y-73576516D01*
X147702674Y-73412753D01*
X147713000Y-73311677D01*
X147712999Y-72738324D01*
X147708954Y-72698729D01*
X147702674Y-72637247D01*
X147677527Y-72561360D01*
X147648408Y-72473484D01*
X147557840Y-72326650D01*
X147435850Y-72204660D01*
X147435846Y-72204657D01*
X147384172Y-72172784D01*
X147337447Y-72120836D01*
X147326226Y-72051874D01*
X147350003Y-71992934D01*
X147368796Y-71967831D01*
X147419091Y-71832983D01*
X147425500Y-71773373D01*
X147425499Y-70274498D01*
X147445184Y-70207460D01*
X147497987Y-70161705D01*
X147549494Y-70150499D01*
X149048372Y-70150499D01*
X149107983Y-70144091D01*
X149242831Y-70093796D01*
X149358046Y-70007546D01*
X149444296Y-69892331D01*
X149448237Y-69881763D01*
X149452194Y-69871153D01*
X161299500Y-69871153D01*
X161299500Y-70028846D01*
X161330261Y-70183489D01*
X161330264Y-70183501D01*
X161390602Y-70329172D01*
X161390609Y-70329185D01*
X161478210Y-70460288D01*
X161478213Y-70460292D01*
X161589707Y-70571786D01*
X161589711Y-70571789D01*
X161720814Y-70659390D01*
X161720827Y-70659397D01*
X161866498Y-70719735D01*
X161866503Y-70719737D01*
X162021153Y-70750499D01*
X162021156Y-70750500D01*
X162021158Y-70750500D01*
X162178844Y-70750500D01*
X162178845Y-70750499D01*
X162333497Y-70719737D01*
X162479179Y-70659394D01*
X162601365Y-70577752D01*
X162668042Y-70556874D01*
X162670256Y-70556854D01*
X163061817Y-70556854D01*
X163128856Y-70576539D01*
X163148443Y-70594352D01*
X163149553Y-70593243D01*
X163154660Y-70598350D01*
X163276650Y-70720340D01*
X163423484Y-70810908D01*
X163587247Y-70865174D01*
X163688323Y-70875500D01*
X164386676Y-70875499D01*
X164386684Y-70875498D01*
X164386687Y-70875498D01*
X164442030Y-70869844D01*
X164487753Y-70865174D01*
X164651516Y-70810908D01*
X164798350Y-70720340D01*
X164920340Y-70598350D01*
X165010908Y-70451516D01*
X165065174Y-70287753D01*
X165075500Y-70186677D01*
X165075499Y-69613324D01*
X165065174Y-69512247D01*
X165010908Y-69348484D01*
X164920340Y-69201650D01*
X164871793Y-69153103D01*
X164838308Y-69091780D01*
X164843292Y-69022088D01*
X164885164Y-68966155D01*
X164916144Y-68949239D01*
X164917328Y-68948797D01*
X164917327Y-68948797D01*
X164917331Y-68948796D01*
X165032546Y-68862546D01*
X165118796Y-68747331D01*
X165169091Y-68612483D01*
X165175500Y-68552873D01*
X165175499Y-67807128D01*
X165169091Y-67747517D01*
X165169090Y-67747513D01*
X165143101Y-67677833D01*
X165138117Y-67608141D01*
X165171602Y-67546818D01*
X165232926Y-67513334D01*
X165259283Y-67510500D01*
X167134046Y-67510500D01*
X167201085Y-67530185D01*
X167210157Y-67537495D01*
X167210355Y-67537232D01*
X167332664Y-67628793D01*
X167332671Y-67628797D01*
X167467517Y-67679091D01*
X167467516Y-67679091D01*
X167474444Y-67679835D01*
X167527127Y-67685500D01*
X169472872Y-67685499D01*
X169532483Y-67679091D01*
X169667331Y-67628796D01*
X169782546Y-67542546D01*
X169868796Y-67427331D01*
X169919091Y-67292483D01*
X169925500Y-67232873D01*
X169925499Y-66537128D01*
X169919922Y-66485248D01*
X169919091Y-66477516D01*
X169868797Y-66342670D01*
X169868796Y-66342669D01*
X169861798Y-66333321D01*
X169855053Y-66324311D01*
X169830635Y-66258850D01*
X169845485Y-66190576D01*
X169855050Y-66175691D01*
X169868796Y-66157331D01*
X169872968Y-66146147D01*
X169885813Y-66111706D01*
X169919091Y-66022483D01*
X169925500Y-65962873D01*
X169925499Y-65267128D01*
X169925499Y-65267127D01*
X171624500Y-65267127D01*
X171624500Y-65267134D01*
X171624500Y-65267135D01*
X171624500Y-65962870D01*
X171624501Y-65962876D01*
X171630908Y-66022483D01*
X171681202Y-66157328D01*
X171681205Y-66157334D01*
X171694947Y-66175691D01*
X171719363Y-66241156D01*
X171704510Y-66309429D01*
X171694947Y-66324309D01*
X171681205Y-66342665D01*
X171681202Y-66342671D01*
X171630910Y-66477513D01*
X171630909Y-66477517D01*
X171624500Y-66537127D01*
X171624500Y-66537134D01*
X171624500Y-66537135D01*
X171624500Y-67232870D01*
X171624501Y-67232876D01*
X171630908Y-67292483D01*
X171681202Y-67427328D01*
X171681206Y-67427335D01*
X171767452Y-67542544D01*
X171767455Y-67542547D01*
X171882664Y-67628793D01*
X171882671Y-67628797D01*
X172017517Y-67679091D01*
X172017516Y-67679091D01*
X172024444Y-67679835D01*
X172077127Y-67685500D01*
X174022872Y-67685499D01*
X174082483Y-67679091D01*
X174217331Y-67628796D01*
X174332546Y-67542546D01*
X174338052Y-67535191D01*
X174393985Y-67493319D01*
X174437320Y-67485500D01*
X174956368Y-67485500D01*
X175023407Y-67505185D01*
X175069162Y-67557989D01*
X175075442Y-67574898D01*
X175085756Y-67610398D01*
X175130171Y-67685500D01*
X175169417Y-67751862D01*
X175169423Y-67751870D01*
X175285629Y-67868076D01*
X175285633Y-67868079D01*
X175285635Y-67868081D01*
X175427102Y-67951744D01*
X175434771Y-67953972D01*
X175584926Y-67997597D01*
X175584929Y-67997597D01*
X175584931Y-67997598D01*
X175621806Y-68000500D01*
X176174903Y-68000500D01*
X176241942Y-68020185D01*
X176262584Y-68036819D01*
X177752639Y-69526874D01*
X177752649Y-69526885D01*
X177756979Y-69531215D01*
X177756980Y-69531216D01*
X177868784Y-69643020D01*
X177947351Y-69688380D01*
X177996060Y-69716503D01*
X178005715Y-69722077D01*
X178158443Y-69763000D01*
X178316557Y-69763000D01*
X183567389Y-69763000D01*
X183634428Y-69782685D01*
X183672928Y-69821904D01*
X183704660Y-69873350D01*
X183826650Y-69995340D01*
X183973484Y-70085908D01*
X184137247Y-70140174D01*
X184238323Y-70150500D01*
X184811676Y-70150499D01*
X184811684Y-70150498D01*
X184811687Y-70150498D01*
X184867030Y-70144844D01*
X184912753Y-70140174D01*
X185076516Y-70085908D01*
X185223350Y-69995340D01*
X185345340Y-69873350D01*
X185377072Y-69821904D01*
X185429020Y-69775179D01*
X185482611Y-69763000D01*
X186250831Y-69763000D01*
X186250847Y-69763001D01*
X186258443Y-69763001D01*
X186416554Y-69763001D01*
X186416557Y-69763001D01*
X186569285Y-69722077D01*
X186627649Y-69688380D01*
X186706216Y-69643020D01*
X186818020Y-69531216D01*
X186818020Y-69531214D01*
X186828224Y-69521011D01*
X186828227Y-69521006D01*
X188084684Y-68264551D01*
X188146006Y-68231067D01*
X188215698Y-68236051D01*
X188271631Y-68277923D01*
X188282849Y-68295938D01*
X188286003Y-68302128D01*
X188331545Y-68391510D01*
X188344951Y-68417819D01*
X188469890Y-68589786D01*
X188620213Y-68740109D01*
X188792179Y-68865048D01*
X188792181Y-68865049D01*
X188792184Y-68865051D01*
X188981588Y-68961557D01*
X189183757Y-69027246D01*
X189393713Y-69060500D01*
X189393714Y-69060500D01*
X189606286Y-69060500D01*
X189606287Y-69060500D01*
X189816243Y-69027246D01*
X190018412Y-68961557D01*
X190207816Y-68865051D01*
X190294446Y-68802111D01*
X190379786Y-68740109D01*
X190379788Y-68740106D01*
X190379792Y-68740104D01*
X190530104Y-68589792D01*
X190530106Y-68589788D01*
X190530109Y-68589786D01*
X190655048Y-68417820D01*
X190655049Y-68417819D01*
X190655051Y-68417816D01*
X190751557Y-68228412D01*
X190817246Y-68026243D01*
X190850500Y-67816287D01*
X190850500Y-67603713D01*
X190817246Y-67393757D01*
X190751557Y-67191588D01*
X190655051Y-67002184D01*
X190655049Y-67002181D01*
X190655048Y-67002179D01*
X190530109Y-66830213D01*
X190379786Y-66679890D01*
X190207820Y-66554951D01*
X190207115Y-66554591D01*
X190199054Y-66550485D01*
X190148259Y-66502512D01*
X190131463Y-66434692D01*
X190153999Y-66368556D01*
X190199054Y-66329515D01*
X190207816Y-66325051D01*
X190239518Y-66302018D01*
X190379786Y-66200109D01*
X190379788Y-66200106D01*
X190379792Y-66200104D01*
X190530104Y-66049792D01*
X190530106Y-66049788D01*
X190530109Y-66049786D01*
X190655048Y-65877820D01*
X190655047Y-65877820D01*
X190655051Y-65877816D01*
X190751557Y-65688412D01*
X190817246Y-65486243D01*
X190850500Y-65276287D01*
X190850500Y-65063713D01*
X190817246Y-64853757D01*
X190751557Y-64651588D01*
X190655051Y-64462184D01*
X190655049Y-64462181D01*
X190655048Y-64462179D01*
X190530109Y-64290213D01*
X190379786Y-64139890D01*
X190207820Y-64014951D01*
X190018414Y-63918444D01*
X190018413Y-63918443D01*
X190018412Y-63918443D01*
X189816243Y-63852754D01*
X189816241Y-63852753D01*
X189816240Y-63852753D01*
X189654957Y-63827208D01*
X189606287Y-63819500D01*
X189393713Y-63819500D01*
X189345042Y-63827208D01*
X189183760Y-63852753D01*
X188981585Y-63918444D01*
X188792179Y-64014951D01*
X188620213Y-64139890D01*
X188469892Y-64290211D01*
X188427629Y-64348384D01*
X188423296Y-64351725D01*
X188421023Y-64356703D01*
X188395923Y-64372833D01*
X188372299Y-64391051D01*
X188365625Y-64392304D01*
X188362245Y-64394477D01*
X188327310Y-64399500D01*
X188300097Y-64399500D01*
X188233058Y-64379815D01*
X188212416Y-64363181D01*
X186825090Y-62975855D01*
X186825088Y-62975852D01*
X186706217Y-62856981D01*
X186706216Y-62856980D01*
X186615594Y-62804660D01*
X186615593Y-62804659D01*
X186569283Y-62777922D01*
X186513381Y-62762943D01*
X186416557Y-62736999D01*
X186258443Y-62736999D01*
X186250847Y-62736999D01*
X186250831Y-62737000D01*
X185482611Y-62737000D01*
X185415572Y-62717315D01*
X185377072Y-62678096D01*
X185345340Y-62626650D01*
X185223351Y-62504661D01*
X185223350Y-62504660D01*
X185076516Y-62414092D01*
X184912753Y-62359826D01*
X184912751Y-62359825D01*
X184811678Y-62349500D01*
X184238330Y-62349500D01*
X184238312Y-62349501D01*
X184137247Y-62359825D01*
X183973484Y-62414092D01*
X183973481Y-62414093D01*
X183826648Y-62504661D01*
X183704659Y-62626650D01*
X183672928Y-62678096D01*
X183620980Y-62724821D01*
X183567389Y-62737000D01*
X178158443Y-62737000D01*
X178005713Y-62777923D01*
X177959406Y-62804660D01*
X177959405Y-62804660D01*
X177868787Y-62856977D01*
X177868782Y-62856981D01*
X177756978Y-62968786D01*
X176262584Y-64463181D01*
X176201261Y-64496666D01*
X176174903Y-64499500D01*
X175621798Y-64499500D01*
X175584932Y-64502401D01*
X175584926Y-64502402D01*
X175427106Y-64548254D01*
X175427103Y-64548255D01*
X175285637Y-64631917D01*
X175285629Y-64631923D01*
X175169423Y-64748129D01*
X175169417Y-64748137D01*
X175089985Y-64882451D01*
X175085756Y-64889602D01*
X175075443Y-64925095D01*
X175037839Y-64983980D01*
X174974366Y-65013187D01*
X174956368Y-65014500D01*
X174437320Y-65014500D01*
X174370281Y-64994815D01*
X174338052Y-64964809D01*
X174332548Y-64957457D01*
X174332546Y-64957454D01*
X174289319Y-64925094D01*
X174217335Y-64871206D01*
X174217328Y-64871202D01*
X174082482Y-64820908D01*
X174082483Y-64820908D01*
X174022883Y-64814501D01*
X174022881Y-64814500D01*
X174022873Y-64814500D01*
X174022864Y-64814500D01*
X172077129Y-64814500D01*
X172077123Y-64814501D01*
X172017516Y-64820908D01*
X171882671Y-64871202D01*
X171882664Y-64871206D01*
X171767455Y-64957452D01*
X171767452Y-64957455D01*
X171681206Y-65072664D01*
X171681202Y-65072671D01*
X171634504Y-65197878D01*
X171630909Y-65207517D01*
X171624500Y-65267127D01*
X169925499Y-65267127D01*
X169919091Y-65207517D01*
X169915492Y-65197868D01*
X169868797Y-65072671D01*
X169868793Y-65072664D01*
X169782547Y-64957455D01*
X169782544Y-64957452D01*
X169667335Y-64871206D01*
X169667328Y-64871202D01*
X169532482Y-64820908D01*
X169532483Y-64820908D01*
X169472883Y-64814501D01*
X169472881Y-64814500D01*
X169472873Y-64814500D01*
X169472864Y-64814500D01*
X167527129Y-64814500D01*
X167527123Y-64814501D01*
X167467516Y-64820908D01*
X167332671Y-64871202D01*
X167332664Y-64871206D01*
X167217457Y-64957451D01*
X167217449Y-64957458D01*
X167193232Y-64989810D01*
X167137299Y-65031682D01*
X167093965Y-65039500D01*
X165259283Y-65039500D01*
X165192244Y-65019815D01*
X165146489Y-64967011D01*
X165136545Y-64897853D01*
X165143101Y-64872167D01*
X165151552Y-64849506D01*
X165169091Y-64802483D01*
X165175500Y-64742873D01*
X165175499Y-63997128D01*
X165169678Y-63942979D01*
X165169091Y-63937516D01*
X165118797Y-63802671D01*
X165118793Y-63802664D01*
X165032547Y-63687455D01*
X165032544Y-63687452D01*
X164917335Y-63601206D01*
X164917328Y-63601202D01*
X164782483Y-63550908D01*
X164736243Y-63545937D01*
X164734124Y-63545059D01*
X164731853Y-63545386D01*
X164702004Y-63531754D01*
X164671693Y-63519199D01*
X164670384Y-63517314D01*
X164668297Y-63516361D01*
X164650557Y-63488757D01*
X164631845Y-63461806D01*
X164631375Y-63458909D01*
X164630523Y-63457583D01*
X164625500Y-63422648D01*
X164625500Y-63176006D01*
X164645185Y-63108967D01*
X164697989Y-63063212D01*
X164702033Y-63061450D01*
X164720743Y-63053701D01*
X164834757Y-62987875D01*
X164939449Y-62907541D01*
X165032541Y-62814449D01*
X165112875Y-62709757D01*
X165178701Y-62595743D01*
X165229200Y-62473829D01*
X165263275Y-62346662D01*
X165280500Y-62215826D01*
X165280500Y-61650000D01*
X165275355Y-61578060D01*
X165272611Y-61568716D01*
X165266929Y-61549365D01*
X165234819Y-61440008D01*
X165219813Y-61416659D01*
X165157032Y-61318969D01*
X165157028Y-61318965D01*
X165048299Y-61224750D01*
X165048297Y-61224748D01*
X165048294Y-61224746D01*
X165048290Y-61224744D01*
X164917419Y-61164976D01*
X164917414Y-61164975D01*
X164775000Y-61144500D01*
X163275000Y-61144500D01*
X163274997Y-61144500D01*
X163203059Y-61149644D01*
X163065005Y-61190182D01*
X162943969Y-61267967D01*
X162943965Y-61267971D01*
X162849750Y-61376700D01*
X162849744Y-61376709D01*
X162789976Y-61507580D01*
X162789976Y-61507583D01*
X162769500Y-61649999D01*
X162769500Y-62215833D01*
X162786724Y-62346658D01*
X162786725Y-62346662D01*
X162787486Y-62349501D01*
X162820800Y-62473829D01*
X162871302Y-62595750D01*
X162871303Y-62595751D01*
X162937120Y-62709749D01*
X162937132Y-62709767D01*
X163009948Y-62804661D01*
X163017459Y-62814449D01*
X163110551Y-62907541D01*
X163110555Y-62907544D01*
X163215232Y-62987867D01*
X163215236Y-62987869D01*
X163215243Y-62987875D01*
X163215250Y-62987879D01*
X163329249Y-63053697D01*
X163329257Y-63053701D01*
X163347951Y-63061444D01*
X163363517Y-63073988D01*
X163381703Y-63082293D01*
X163390166Y-63095461D01*
X163402355Y-63105284D01*
X163408668Y-63124253D01*
X163419477Y-63141071D01*
X163423439Y-63168628D01*
X163424421Y-63171578D01*
X163424500Y-63176006D01*
X163424500Y-63420500D01*
X163404815Y-63487539D01*
X163352011Y-63533294D01*
X163300501Y-63544500D01*
X163127130Y-63544500D01*
X163127123Y-63544501D01*
X163067516Y-63550908D01*
X162932671Y-63601202D01*
X162932664Y-63601206D01*
X162817455Y-63687452D01*
X162817452Y-63687455D01*
X162731206Y-63802664D01*
X162731202Y-63802671D01*
X162680910Y-63937513D01*
X162680909Y-63937517D01*
X162674500Y-63997127D01*
X162674500Y-63997134D01*
X162674500Y-63997135D01*
X162674500Y-64742870D01*
X162674501Y-64742876D01*
X162680908Y-64802483D01*
X162731202Y-64937328D01*
X162735454Y-64945114D01*
X162732280Y-64946846D01*
X162750659Y-64996302D01*
X162735725Y-65064557D01*
X162735117Y-65065502D01*
X162731202Y-65072671D01*
X162684504Y-65197878D01*
X162680909Y-65207517D01*
X162674500Y-65267127D01*
X162674500Y-65267134D01*
X162674500Y-65267135D01*
X162674500Y-66012870D01*
X162674501Y-66012876D01*
X162680908Y-66072483D01*
X162731202Y-66207328D01*
X162735454Y-66215114D01*
X162732280Y-66216846D01*
X162750659Y-66266302D01*
X162735725Y-66334557D01*
X162735117Y-66335502D01*
X162731202Y-66342671D01*
X162680910Y-66477513D01*
X162680909Y-66477517D01*
X162674500Y-66537127D01*
X162674500Y-66537134D01*
X162674500Y-66537135D01*
X162674500Y-67282870D01*
X162674501Y-67282876D01*
X162680908Y-67342483D01*
X162731202Y-67477328D01*
X162735454Y-67485114D01*
X162732280Y-67486846D01*
X162750659Y-67536302D01*
X162735725Y-67604557D01*
X162735117Y-67605502D01*
X162731202Y-67612671D01*
X162680910Y-67747513D01*
X162680909Y-67747517D01*
X162674500Y-67807127D01*
X162674500Y-67807134D01*
X162674500Y-67807135D01*
X162674500Y-68552870D01*
X162674501Y-68552876D01*
X162680908Y-68612483D01*
X162731202Y-68747328D01*
X162731206Y-68747335D01*
X162817452Y-68862544D01*
X162817455Y-68862547D01*
X162932664Y-68948793D01*
X162932671Y-68948797D01*
X163067513Y-68999090D01*
X163067514Y-68999090D01*
X163067517Y-68999091D01*
X163072121Y-68999586D01*
X163073657Y-69000222D01*
X163075302Y-68999969D01*
X163105791Y-69013531D01*
X163136671Y-69026321D01*
X163137621Y-69027690D01*
X163139141Y-69028366D01*
X163157470Y-69056276D01*
X163176520Y-69083713D01*
X163176579Y-69085375D01*
X163177494Y-69086768D01*
X163177823Y-69120177D01*
X163179016Y-69153538D01*
X163178171Y-69155503D01*
X163178183Y-69156634D01*
X163175071Y-69162722D01*
X163163839Y-69188882D01*
X163157759Y-69198550D01*
X163154660Y-69201650D01*
X163095549Y-69297482D01*
X163095312Y-69297861D01*
X163069477Y-69320697D01*
X163043931Y-69343675D01*
X163043327Y-69343812D01*
X163042962Y-69344135D01*
X163039695Y-69344637D01*
X162990340Y-69355854D01*
X162688340Y-69355854D01*
X162621301Y-69336169D01*
X162611241Y-69328847D01*
X162479185Y-69240609D01*
X162479172Y-69240602D01*
X162333501Y-69180264D01*
X162333489Y-69180261D01*
X162178845Y-69149500D01*
X162178842Y-69149500D01*
X162021158Y-69149500D01*
X162021155Y-69149500D01*
X161866510Y-69180261D01*
X161866498Y-69180264D01*
X161720827Y-69240602D01*
X161720814Y-69240609D01*
X161589711Y-69328210D01*
X161589707Y-69328213D01*
X161478213Y-69439707D01*
X161478210Y-69439711D01*
X161390609Y-69570814D01*
X161390602Y-69570827D01*
X161330264Y-69716498D01*
X161330261Y-69716510D01*
X161299500Y-69871153D01*
X149452194Y-69871153D01*
X149470628Y-69821733D01*
X149470628Y-69821732D01*
X149494589Y-69757488D01*
X149494588Y-69757488D01*
X149494591Y-69757483D01*
X149501000Y-69697873D01*
X149500999Y-69302128D01*
X149500999Y-69302127D01*
X149500998Y-69302111D01*
X149496820Y-69263253D01*
X149496820Y-69236745D01*
X149501000Y-69197873D01*
X149500999Y-68802128D01*
X149500999Y-68802127D01*
X149500998Y-68802111D01*
X149496820Y-68763253D01*
X149496820Y-68736745D01*
X149501000Y-68697873D01*
X149500999Y-68302128D01*
X149500999Y-68302127D01*
X149500998Y-68302111D01*
X149496820Y-68263253D01*
X149496820Y-68236745D01*
X149501000Y-68197873D01*
X149500999Y-67802128D01*
X149500999Y-67802127D01*
X149500998Y-67802111D01*
X149496820Y-67763253D01*
X149496820Y-67736745D01*
X149501000Y-67697873D01*
X149500999Y-67302128D01*
X149500999Y-67302127D01*
X149500998Y-67302111D01*
X149496820Y-67263253D01*
X149496820Y-67236745D01*
X149499562Y-67211239D01*
X149526302Y-67146691D01*
X149583695Y-67106844D01*
X149622851Y-67100500D01*
X149974903Y-67100500D01*
X150041942Y-67120185D01*
X150062583Y-67136818D01*
X152156284Y-69230520D01*
X152156286Y-69230521D01*
X152156290Y-69230524D01*
X152293209Y-69309573D01*
X152293212Y-69309575D01*
X152293216Y-69309577D01*
X152445943Y-69350501D01*
X152445945Y-69350501D01*
X152611654Y-69350501D01*
X152611670Y-69350500D01*
X157868331Y-69350500D01*
X157868347Y-69350501D01*
X157875943Y-69350501D01*
X158034054Y-69350501D01*
X158034057Y-69350501D01*
X158186785Y-69309577D01*
X158242550Y-69277381D01*
X158242551Y-69277381D01*
X158323709Y-69230524D01*
X158323708Y-69230524D01*
X158323716Y-69230520D01*
X158435520Y-69118716D01*
X158435521Y-69118714D01*
X158474575Y-69079660D01*
X158512417Y-69041818D01*
X158573740Y-69008333D01*
X158600098Y-69005499D01*
X159322871Y-69005499D01*
X159322872Y-69005499D01*
X159382483Y-68999091D01*
X159517331Y-68948796D01*
X159632546Y-68862546D01*
X159718796Y-68747331D01*
X159769091Y-68612483D01*
X159775500Y-68552873D01*
X159775499Y-67807128D01*
X159769091Y-67747517D01*
X159769090Y-67747513D01*
X159718797Y-67612670D01*
X159714547Y-67604888D01*
X159717757Y-67603134D01*
X159699361Y-67554001D01*
X159714127Y-67485709D01*
X159714752Y-67484736D01*
X159718797Y-67477329D01*
X159737446Y-67427328D01*
X159769091Y-67342483D01*
X159775500Y-67282873D01*
X159775499Y-66537128D01*
X159769922Y-66485248D01*
X159769091Y-66477516D01*
X159718797Y-66342671D01*
X159718793Y-66342664D01*
X159632547Y-66227455D01*
X159632544Y-66227452D01*
X159517335Y-66141206D01*
X159517328Y-66141202D01*
X159382482Y-66090908D01*
X159382483Y-66090908D01*
X159322883Y-66084501D01*
X159322881Y-66084500D01*
X159322873Y-66084500D01*
X159322864Y-66084500D01*
X157727129Y-66084500D01*
X157727123Y-66084501D01*
X157667516Y-66090908D01*
X157532671Y-66141202D01*
X157532664Y-66141206D01*
X157417455Y-66227452D01*
X157417452Y-66227455D01*
X157331206Y-66342664D01*
X157331201Y-66342674D01*
X157328844Y-66348994D01*
X157286972Y-66404927D01*
X157221508Y-66429343D01*
X157153235Y-66414491D01*
X157107124Y-66370755D01*
X157095340Y-66351650D01*
X156973351Y-66229661D01*
X156973350Y-66229660D01*
X156856086Y-66157331D01*
X156826518Y-66139093D01*
X156826513Y-66139091D01*
X156817288Y-66136034D01*
X156662753Y-66084826D01*
X156662751Y-66084825D01*
X156561678Y-66074500D01*
X155988330Y-66074500D01*
X155988312Y-66074501D01*
X155887247Y-66084825D01*
X155723484Y-66139092D01*
X155723481Y-66139093D01*
X155576648Y-66229661D01*
X155487681Y-66318629D01*
X155426358Y-66352114D01*
X155356666Y-66347130D01*
X155312319Y-66318629D01*
X155223351Y-66229661D01*
X155223350Y-66229660D01*
X155106086Y-66157331D01*
X155076518Y-66139093D01*
X155076513Y-66139091D01*
X155067288Y-66136034D01*
X154912753Y-66084826D01*
X154912751Y-66084825D01*
X154811678Y-66074500D01*
X154238330Y-66074500D01*
X154238312Y-66074501D01*
X154137247Y-66084825D01*
X153973484Y-66139092D01*
X153973481Y-66139093D01*
X153826648Y-66229661D01*
X153715181Y-66341127D01*
X153653858Y-66374611D01*
X153584166Y-66369626D01*
X153580049Y-66368006D01*
X153495011Y-66332782D01*
X153494999Y-66332779D01*
X153340355Y-66302018D01*
X153340352Y-66302018D01*
X153182668Y-66302018D01*
X153182665Y-66302018D01*
X153028020Y-66332779D01*
X153028008Y-66332782D01*
X152882337Y-66393120D01*
X152882324Y-66393127D01*
X152751221Y-66480728D01*
X152751217Y-66480731D01*
X152639723Y-66592225D01*
X152639720Y-66592229D01*
X152552119Y-66723332D01*
X152552112Y-66723345D01*
X152491774Y-66869016D01*
X152491771Y-66869028D01*
X152461010Y-67023671D01*
X152461010Y-67181364D01*
X152491771Y-67336007D01*
X152491774Y-67336019D01*
X152552112Y-67481690D01*
X152552119Y-67481703D01*
X152639720Y-67612806D01*
X152639723Y-67612810D01*
X152751217Y-67724304D01*
X152751221Y-67724307D01*
X152882324Y-67811908D01*
X152882337Y-67811915D01*
X153021980Y-67869756D01*
X153028013Y-67872255D01*
X153028017Y-67872255D01*
X153028018Y-67872256D01*
X153187014Y-67903883D01*
X153248924Y-67936268D01*
X153260704Y-67956954D01*
X153266485Y-67944297D01*
X153325263Y-67906523D01*
X153336006Y-67903883D01*
X153451945Y-67880820D01*
X153495007Y-67872255D01*
X153565936Y-67842875D01*
X153635401Y-67835407D01*
X153697880Y-67866681D01*
X153701066Y-67869756D01*
X153769129Y-67937819D01*
X153802614Y-67999142D01*
X153797630Y-68068834D01*
X153755758Y-68124767D01*
X153690294Y-68149184D01*
X153681448Y-68149500D01*
X153360198Y-68149500D01*
X153293159Y-68129815D01*
X153261025Y-68092731D01*
X153238892Y-68123425D01*
X153173874Y-68149006D01*
X153162822Y-68149500D01*
X152825098Y-68149500D01*
X152758059Y-68129815D01*
X152737417Y-68113181D01*
X150999166Y-66374930D01*
X150965681Y-66313607D01*
X150970665Y-66243915D01*
X150999166Y-66199568D01*
X151396607Y-65802128D01*
X152241284Y-64957451D01*
X152662917Y-64535819D01*
X152724240Y-64502334D01*
X152750598Y-64499500D01*
X157150501Y-64499500D01*
X157217540Y-64519185D01*
X157263295Y-64571989D01*
X157274501Y-64623500D01*
X157274501Y-64742876D01*
X157280908Y-64802483D01*
X157331202Y-64937328D01*
X157331206Y-64937335D01*
X157417452Y-65052544D01*
X157417455Y-65052547D01*
X157532664Y-65138793D01*
X157532671Y-65138797D01*
X157667517Y-65189091D01*
X157667516Y-65189091D01*
X157674444Y-65189835D01*
X157727127Y-65195500D01*
X159322872Y-65195499D01*
X159382483Y-65189091D01*
X159517331Y-65138796D01*
X159632546Y-65052546D01*
X159718796Y-64937331D01*
X159769091Y-64802483D01*
X159775500Y-64742873D01*
X159775499Y-63997128D01*
X159769678Y-63942979D01*
X159769091Y-63937516D01*
X159718797Y-63802671D01*
X159718793Y-63802664D01*
X159632547Y-63687455D01*
X159632544Y-63687452D01*
X159517335Y-63601206D01*
X159517328Y-63601202D01*
X159382482Y-63550908D01*
X159382483Y-63550908D01*
X159322883Y-63544501D01*
X159322881Y-63544500D01*
X159322873Y-63544500D01*
X159322865Y-63544500D01*
X158600098Y-63544500D01*
X158533059Y-63524815D01*
X158512417Y-63508181D01*
X158422717Y-63418481D01*
X158422709Y-63418475D01*
X158303241Y-63349501D01*
X158303238Y-63349500D01*
X158285785Y-63339423D01*
X158281650Y-63338315D01*
X158133057Y-63298499D01*
X157974943Y-63298499D01*
X157967347Y-63298499D01*
X157967331Y-63298500D01*
X152537170Y-63298500D01*
X152537154Y-63298499D01*
X152529558Y-63298499D01*
X152371443Y-63298499D01*
X152296076Y-63318694D01*
X152218714Y-63339423D01*
X152218709Y-63339426D01*
X152081790Y-63418475D01*
X152081782Y-63418481D01*
X150137084Y-65363181D01*
X150075761Y-65396666D01*
X150049403Y-65399500D01*
X149622851Y-65399500D01*
X149620649Y-65398853D01*
X149618426Y-65399421D01*
X149587283Y-65389056D01*
X149555812Y-65379815D01*
X149554310Y-65378081D01*
X149552132Y-65377357D01*
X149531534Y-65351796D01*
X149510057Y-65327011D01*
X149509281Y-65324182D01*
X149508290Y-65322953D01*
X149499562Y-65288756D01*
X149496820Y-65263253D01*
X149496820Y-65236745D01*
X149501000Y-65197873D01*
X149500999Y-64802128D01*
X149500999Y-64802127D01*
X149500998Y-64802111D01*
X149496820Y-64763253D01*
X149496820Y-64736745D01*
X149501000Y-64697873D01*
X149500999Y-64302128D01*
X149500999Y-64302127D01*
X149500998Y-64302111D01*
X149496820Y-64263253D01*
X149496820Y-64236745D01*
X149501000Y-64197873D01*
X149500999Y-63802128D01*
X149494591Y-63742517D01*
X149474054Y-63687455D01*
X149444297Y-63607671D01*
X149444293Y-63607664D01*
X149358047Y-63492455D01*
X149358044Y-63492452D01*
X149242835Y-63406206D01*
X149242828Y-63406202D01*
X149107982Y-63355908D01*
X149107983Y-63355908D01*
X149048383Y-63349501D01*
X149048381Y-63349500D01*
X149048373Y-63349500D01*
X149048365Y-63349500D01*
X148323585Y-63349500D01*
X148314518Y-63346837D01*
X148305157Y-63348123D01*
X148281533Y-63337152D01*
X148256546Y-63329815D01*
X148250359Y-63322674D01*
X148241787Y-63318694D01*
X148227843Y-63296690D01*
X148210791Y-63277011D01*
X148208451Y-63266089D01*
X148204388Y-63259677D01*
X148202409Y-63237882D01*
X148199588Y-63224711D01*
X148199653Y-63214364D01*
X148200501Y-63210106D01*
X148200501Y-63086893D01*
X148200500Y-63086887D01*
X148200500Y-61710894D01*
X148194458Y-61680520D01*
X148182066Y-61618216D01*
X148176463Y-61590048D01*
X148142305Y-61507584D01*
X148139940Y-61501876D01*
X148139939Y-61501870D01*
X148131412Y-61481285D01*
X148129312Y-61476215D01*
X148129310Y-61476212D01*
X148129309Y-61476209D01*
X148092381Y-61420944D01*
X148092379Y-61420942D01*
X148089517Y-61416659D01*
X148060858Y-61373767D01*
X148060856Y-61373764D01*
X147970637Y-61283545D01*
X147970606Y-61283516D01*
X146795650Y-60108560D01*
X146788360Y-60101270D01*
X146788358Y-60101267D01*
X146701233Y-60014142D01*
X146650009Y-59979915D01*
X146598786Y-59945688D01*
X146598783Y-59945686D01*
X146598780Y-59945685D01*
X146525103Y-59915168D01*
X146525101Y-59915167D01*
X146518292Y-59912347D01*
X146484952Y-59898537D01*
X146424529Y-59886518D01*
X146419806Y-59885578D01*
X146419804Y-59885578D01*
X146364110Y-59874500D01*
X146364107Y-59874500D01*
X146364106Y-59874500D01*
X145536606Y-59874500D01*
X145384481Y-59874500D01*
X145317442Y-59854815D01*
X145278942Y-59815596D01*
X145275000Y-59809205D01*
X145270340Y-59801650D01*
X145148350Y-59679660D01*
X145148349Y-59679659D01*
X145096902Y-59647926D01*
X145050178Y-59595978D01*
X145038000Y-59542388D01*
X145038000Y-58947597D01*
X145046644Y-58918157D01*
X145053167Y-58888172D01*
X145056922Y-58883154D01*
X145057685Y-58880558D01*
X145074314Y-58859920D01*
X145100478Y-58833756D01*
X145161798Y-58800272D01*
X145226476Y-58803507D01*
X145268757Y-58817246D01*
X145478713Y-58850500D01*
X145478714Y-58850500D01*
X145691286Y-58850500D01*
X145691287Y-58850500D01*
X145901243Y-58817246D01*
X146103412Y-58751557D01*
X146292816Y-58655051D01*
X146314789Y-58639086D01*
X146464786Y-58530109D01*
X146464788Y-58530106D01*
X146464792Y-58530104D01*
X146615104Y-58379792D01*
X146615106Y-58379788D01*
X146615109Y-58379786D01*
X146740048Y-58207820D01*
X146740047Y-58207820D01*
X146740051Y-58207816D01*
X146836557Y-58018412D01*
X146902246Y-57816243D01*
X146935500Y-57606287D01*
X146935500Y-57393713D01*
X146902246Y-57183757D01*
X146836557Y-56981588D01*
X146740051Y-56792184D01*
X146740049Y-56792181D01*
X146740048Y-56792179D01*
X146615109Y-56620213D01*
X146464786Y-56469890D01*
X146292820Y-56344951D01*
X146103414Y-56248444D01*
X146103413Y-56248443D01*
X146103412Y-56248443D01*
X145901243Y-56182754D01*
X145901241Y-56182753D01*
X145901240Y-56182753D01*
X145739957Y-56157208D01*
X145691287Y-56149500D01*
X145478713Y-56149500D01*
X145430042Y-56157208D01*
X145268760Y-56182753D01*
X145066585Y-56248444D01*
X144877179Y-56344951D01*
X144705213Y-56469890D01*
X144554890Y-56620213D01*
X144429949Y-56792182D01*
X144425484Y-56800946D01*
X144377509Y-56851742D01*
X144309688Y-56868536D01*
X144243553Y-56845998D01*
X144204516Y-56800946D01*
X144200050Y-56792182D01*
X144075109Y-56620213D01*
X143924786Y-56469890D01*
X143752820Y-56344951D01*
X143563414Y-56248444D01*
X143563413Y-56248443D01*
X143563412Y-56248443D01*
X143361243Y-56182754D01*
X143361241Y-56182753D01*
X143361240Y-56182753D01*
X143199957Y-56157208D01*
X143151287Y-56149500D01*
X142938713Y-56149500D01*
X142890042Y-56157208D01*
X142728760Y-56182753D01*
X142526585Y-56248444D01*
X142337179Y-56344951D01*
X142165213Y-56469890D01*
X142014890Y-56620213D01*
X141889949Y-56792182D01*
X141885484Y-56800946D01*
X141837509Y-56851742D01*
X141769688Y-56868536D01*
X141703553Y-56845998D01*
X141664516Y-56800946D01*
X141660050Y-56792182D01*
X141535109Y-56620213D01*
X141384786Y-56469890D01*
X141212820Y-56344951D01*
X141023414Y-56248444D01*
X141023413Y-56248443D01*
X141023412Y-56248443D01*
X140821243Y-56182754D01*
X140821241Y-56182753D01*
X140821240Y-56182753D01*
X140659957Y-56157208D01*
X140611287Y-56149500D01*
X140398713Y-56149500D01*
X140350042Y-56157208D01*
X140188760Y-56182753D01*
X139986585Y-56248444D01*
X139797179Y-56344951D01*
X139625213Y-56469890D01*
X139474890Y-56620213D01*
X139349951Y-56792179D01*
X139253444Y-56981585D01*
X139187753Y-57183760D01*
X139154500Y-57393713D01*
X139154500Y-57606286D01*
X139185689Y-57803210D01*
X139187754Y-57816243D01*
X139223248Y-57925483D01*
X139253444Y-58018414D01*
X139349951Y-58207820D01*
X139474890Y-58379786D01*
X139625213Y-58530109D01*
X139797184Y-58655051D01*
X139797184Y-58655052D01*
X139836793Y-58675233D01*
X139847856Y-58685681D01*
X139861703Y-58692005D01*
X139872744Y-58709185D01*
X139887590Y-58723206D01*
X139891831Y-58738886D01*
X139899477Y-58750783D01*
X139904500Y-58785718D01*
X139904500Y-58893330D01*
X139904499Y-58893348D01*
X139904499Y-59059054D01*
X139904498Y-59059054D01*
X139904499Y-59059057D01*
X139945423Y-59211785D01*
X139945424Y-59211786D01*
X139961188Y-59239092D01*
X139961189Y-59239093D01*
X140024475Y-59348709D01*
X140024481Y-59348717D01*
X140143349Y-59467585D01*
X140143355Y-59467590D01*
X140203356Y-59527591D01*
X140236841Y-59588914D01*
X140231857Y-59658606D01*
X140203357Y-59702953D01*
X140104659Y-59801651D01*
X140014093Y-59948481D01*
X140014092Y-59948484D01*
X139959826Y-60112247D01*
X139959826Y-60112248D01*
X139959825Y-60112248D01*
X139949500Y-60213315D01*
X139949500Y-60786669D01*
X139949501Y-60786687D01*
X139959825Y-60887752D01*
X140014092Y-61051515D01*
X140014093Y-61051518D01*
X140028885Y-61075499D01*
X140104660Y-61198350D01*
X140226650Y-61320340D01*
X140368645Y-61407923D01*
X140410933Y-61451461D01*
X140456975Y-61531209D01*
X140456981Y-61531217D01*
X140575849Y-61650085D01*
X140575855Y-61650090D01*
X140588181Y-61662416D01*
X140621666Y-61723739D01*
X140624500Y-61750097D01*
X140624500Y-63225500D01*
X140604815Y-63292539D01*
X140552011Y-63338294D01*
X140500500Y-63349500D01*
X139001629Y-63349500D01*
X139001623Y-63349501D01*
X138942016Y-63355908D01*
X138807171Y-63406202D01*
X138807164Y-63406206D01*
X138691955Y-63492452D01*
X138691952Y-63492455D01*
X138605706Y-63607664D01*
X138605702Y-63607671D01*
X138555410Y-63742513D01*
X138555409Y-63742517D01*
X138549000Y-63802127D01*
X138549000Y-63802134D01*
X138549000Y-63802135D01*
X138549000Y-64197869D01*
X138549001Y-64197878D01*
X138553179Y-64236745D01*
X138553179Y-64263250D01*
X138549000Y-64302122D01*
X138549000Y-64697869D01*
X138549001Y-64697878D01*
X138553179Y-64736745D01*
X138553179Y-64763250D01*
X138549000Y-64802122D01*
X138549000Y-65197869D01*
X138549001Y-65197878D01*
X138553179Y-65236745D01*
X138553179Y-65263250D01*
X138549000Y-65302122D01*
X138549000Y-65697869D01*
X138549001Y-65697878D01*
X138553179Y-65736745D01*
X138553179Y-65763250D01*
X138549000Y-65802122D01*
X138549000Y-66197869D01*
X138549001Y-66197878D01*
X138553179Y-66236745D01*
X138553179Y-66263250D01*
X138549000Y-66302122D01*
X138549000Y-66697869D01*
X138549001Y-66697872D01*
X138553179Y-66736745D01*
X138553179Y-66763250D01*
X138549000Y-66802122D01*
X138549000Y-67197869D01*
X138549001Y-67197878D01*
X138553179Y-67236745D01*
X138553179Y-67263250D01*
X138549000Y-67302122D01*
X138549000Y-67697869D01*
X138549001Y-67697878D01*
X138553179Y-67736745D01*
X138553179Y-67763250D01*
X138549000Y-67802122D01*
X138549000Y-68197869D01*
X138549001Y-68197878D01*
X138553179Y-68236745D01*
X138553179Y-68263250D01*
X138549000Y-68302122D01*
X138549000Y-68302127D01*
X138549000Y-68499999D01*
X138549001Y-68697868D01*
X138549001Y-68697878D01*
X138553179Y-68736745D01*
X138553179Y-68763250D01*
X138549000Y-68802122D01*
X138549000Y-69197869D01*
X138549001Y-69197878D01*
X138553179Y-69236745D01*
X138553179Y-69263250D01*
X138549000Y-69302122D01*
X138549000Y-69697870D01*
X138549001Y-69697874D01*
X138555408Y-69757483D01*
X138605702Y-69892328D01*
X138605706Y-69892335D01*
X138691952Y-70007544D01*
X138691955Y-70007547D01*
X138807164Y-70093793D01*
X138807171Y-70093797D01*
X138942017Y-70144091D01*
X138942016Y-70144091D01*
X138948944Y-70144835D01*
X139001627Y-70150500D01*
X140500500Y-70150499D01*
X140567539Y-70170184D01*
X140613294Y-70222987D01*
X140624500Y-70274499D01*
X140624501Y-71550500D01*
X140604816Y-71617539D01*
X140552013Y-71663294D01*
X140500501Y-71674500D01*
X134943208Y-71674500D01*
X134876169Y-71654815D01*
X134850584Y-71631619D01*
X134850447Y-71631757D01*
X134847647Y-71628957D01*
X134845945Y-71627414D01*
X134845344Y-71626654D01*
X134723351Y-71504661D01*
X134723350Y-71504660D01*
X134576516Y-71414092D01*
X134412753Y-71359826D01*
X134412751Y-71359825D01*
X134311678Y-71349500D01*
X133738330Y-71349500D01*
X133738312Y-71349501D01*
X133637247Y-71359825D01*
X133473484Y-71414092D01*
X133473481Y-71414093D01*
X133326648Y-71504661D01*
X133204655Y-71626654D01*
X133204055Y-71627414D01*
X133203510Y-71627799D01*
X133201259Y-71630050D01*
X133200505Y-71631703D01*
X133173354Y-71649151D01*
X133147032Y-71667789D01*
X133143414Y-71668392D01*
X133141727Y-71669477D01*
X133106792Y-71674500D01*
X133040954Y-71674500D01*
X132973915Y-71654815D01*
X132964842Y-71647504D01*
X132964645Y-71647768D01*
X132842335Y-71556206D01*
X132842328Y-71556202D01*
X132707482Y-71505908D01*
X132707483Y-71505908D01*
X132647883Y-71499501D01*
X132647881Y-71499500D01*
X132647873Y-71499500D01*
X132647864Y-71499500D01*
X131402129Y-71499500D01*
X131402123Y-71499501D01*
X131342516Y-71505908D01*
X131207671Y-71556202D01*
X131207664Y-71556206D01*
X131092455Y-71642452D01*
X131092452Y-71642455D01*
X131006206Y-71757664D01*
X131006202Y-71757671D01*
X130955910Y-71892513D01*
X130955909Y-71892517D01*
X130949500Y-71952127D01*
X130600499Y-71952127D01*
X130594091Y-71892517D01*
X130571886Y-71832983D01*
X130543797Y-71757671D01*
X130543793Y-71757664D01*
X130457547Y-71642455D01*
X130457544Y-71642452D01*
X130342335Y-71556206D01*
X130342328Y-71556202D01*
X130207482Y-71505908D01*
X130207483Y-71505908D01*
X130147883Y-71499501D01*
X130147881Y-71499500D01*
X130147873Y-71499500D01*
X130147864Y-71499500D01*
X128902129Y-71499500D01*
X128902123Y-71499501D01*
X128842516Y-71505908D01*
X128707669Y-71556203D01*
X128701942Y-71559331D01*
X128642513Y-71574500D01*
X128094552Y-71574500D01*
X128027513Y-71554815D01*
X128006871Y-71538181D01*
X127973351Y-71504661D01*
X127973350Y-71504660D01*
X127826516Y-71414092D01*
X127662753Y-71359826D01*
X127662751Y-71359825D01*
X127561678Y-71349500D01*
X126988330Y-71349500D01*
X126988312Y-71349501D01*
X126887247Y-71359825D01*
X126723484Y-71414092D01*
X126723477Y-71414095D01*
X126616197Y-71480266D01*
X126548805Y-71498706D01*
X126482141Y-71477783D01*
X126463420Y-71462408D01*
X124711819Y-69710807D01*
X124678334Y-69649484D01*
X124675500Y-69623126D01*
X124675500Y-66128500D01*
X124695185Y-66061461D01*
X124747989Y-66015706D01*
X124799500Y-66004500D01*
X125603440Y-66004500D01*
X125670479Y-66024185D01*
X125716234Y-66076989D01*
X125726178Y-66146147D01*
X125702706Y-66202812D01*
X125694204Y-66214168D01*
X125694202Y-66214171D01*
X125643910Y-66349013D01*
X125643909Y-66349017D01*
X125637500Y-66408627D01*
X125637500Y-66408634D01*
X125637500Y-66408635D01*
X125637500Y-66939369D01*
X125637501Y-66939378D01*
X125641733Y-66978745D01*
X125641733Y-67005251D01*
X125637500Y-67044624D01*
X125637500Y-67575369D01*
X125637501Y-67575380D01*
X125641625Y-67613746D01*
X125641625Y-67640250D01*
X125637500Y-67678622D01*
X125637500Y-68209369D01*
X125637501Y-68209378D01*
X125641733Y-68248745D01*
X125641733Y-68275251D01*
X125637500Y-68314624D01*
X125637500Y-68845370D01*
X125637501Y-68845376D01*
X125643908Y-68904983D01*
X125694202Y-69039828D01*
X125694206Y-69039835D01*
X125780452Y-69155044D01*
X125780455Y-69155047D01*
X125895664Y-69241293D01*
X125895671Y-69241297D01*
X126030517Y-69291591D01*
X126030516Y-69291591D01*
X126037444Y-69292335D01*
X126090127Y-69298000D01*
X127711872Y-69297999D01*
X127771483Y-69291591D01*
X127906331Y-69241296D01*
X127954505Y-69205233D01*
X128019969Y-69180816D01*
X128028816Y-69180500D01*
X128597059Y-69180500D01*
X128664098Y-69200185D01*
X128684740Y-69216819D01*
X128714707Y-69246786D01*
X128714711Y-69246789D01*
X128845814Y-69334390D01*
X128845827Y-69334397D01*
X128977877Y-69389093D01*
X128991503Y-69394737D01*
X129146153Y-69425499D01*
X129146156Y-69425500D01*
X129146158Y-69425500D01*
X129303844Y-69425500D01*
X129303845Y-69425499D01*
X129458497Y-69394737D01*
X129603136Y-69334826D01*
X129604172Y-69334397D01*
X129604172Y-69334396D01*
X129604179Y-69334394D01*
X129735289Y-69246789D01*
X129846789Y-69135289D01*
X129934394Y-69004179D01*
X129994737Y-68858497D01*
X130025500Y-68703842D01*
X130025500Y-68546158D01*
X130025500Y-68546155D01*
X130025499Y-68546153D01*
X130020245Y-68519738D01*
X129994737Y-68391503D01*
X129968857Y-68329022D01*
X129934397Y-68245827D01*
X129934390Y-68245814D01*
X129846789Y-68114711D01*
X129846786Y-68114707D01*
X129735292Y-68003213D01*
X129735288Y-68003210D01*
X129604185Y-67915609D01*
X129604172Y-67915602D01*
X129458501Y-67855264D01*
X129458489Y-67855261D01*
X129303845Y-67824500D01*
X129303842Y-67824500D01*
X129146158Y-67824500D01*
X129146155Y-67824500D01*
X128991510Y-67855261D01*
X128991498Y-67855264D01*
X128845827Y-67915602D01*
X128845815Y-67915609D01*
X128781473Y-67958602D01*
X128714796Y-67979480D01*
X128712582Y-67979500D01*
X128288500Y-67979500D01*
X128281082Y-67977321D01*
X128273454Y-67978584D01*
X128248026Y-67967615D01*
X128221461Y-67959815D01*
X128216398Y-67953972D01*
X128209299Y-67950910D01*
X128193837Y-67927936D01*
X128175706Y-67907011D01*
X128173622Y-67897897D01*
X128170289Y-67892945D01*
X128165693Y-67863222D01*
X128164528Y-67858124D01*
X128164499Y-67856781D01*
X128164499Y-67678628D01*
X128159803Y-67634952D01*
X128159691Y-67629621D01*
X128160373Y-67627100D01*
X128160373Y-67613746D01*
X128164500Y-67575373D01*
X128164499Y-67044628D01*
X128164499Y-67044624D01*
X128164498Y-67044614D01*
X128160266Y-67005254D01*
X128160266Y-66978745D01*
X128164500Y-66939373D01*
X128164499Y-66408628D01*
X128158091Y-66349017D01*
X128158082Y-66348994D01*
X128107797Y-66214171D01*
X128107793Y-66214164D01*
X128032294Y-66113311D01*
X128007876Y-66047847D01*
X128022727Y-65979574D01*
X128032294Y-65964689D01*
X128107793Y-65863835D01*
X128107792Y-65863835D01*
X128107796Y-65863831D01*
X128158091Y-65728983D01*
X128164500Y-65669373D01*
X128164499Y-65563094D01*
X128184183Y-65496057D01*
X128236987Y-65450302D01*
X128306145Y-65440358D01*
X128369701Y-65469382D01*
X128376180Y-65475415D01*
X130575139Y-67674374D01*
X130575149Y-67674385D01*
X130579479Y-67678715D01*
X130579480Y-67678716D01*
X130691284Y-67790520D01*
X130691286Y-67790521D01*
X130691290Y-67790524D01*
X130828209Y-67869573D01*
X130828216Y-67869577D01*
X130919704Y-67894091D01*
X130969595Y-67907459D01*
X130969596Y-67907460D01*
X130982666Y-67915426D01*
X131029254Y-67943824D01*
X131029254Y-67943825D01*
X131029256Y-67943826D01*
X131059784Y-68006673D01*
X131059783Y-68006677D01*
X131061500Y-68027233D01*
X131061500Y-68209369D01*
X131061501Y-68209376D01*
X131065733Y-68248744D01*
X131065733Y-68275251D01*
X131061500Y-68314624D01*
X131061500Y-68845370D01*
X131061501Y-68845376D01*
X131067908Y-68904983D01*
X131118202Y-69039828D01*
X131118206Y-69039835D01*
X131204452Y-69155044D01*
X131204455Y-69155047D01*
X131319664Y-69241293D01*
X131319671Y-69241297D01*
X131454517Y-69291591D01*
X131454516Y-69291591D01*
X131461444Y-69292335D01*
X131514127Y-69298000D01*
X133135872Y-69297999D01*
X133195483Y-69291591D01*
X133330331Y-69241296D01*
X133445546Y-69155046D01*
X133531796Y-69039831D01*
X133582091Y-68904983D01*
X133588500Y-68845373D01*
X133588499Y-68314628D01*
X133588499Y-68314624D01*
X133588498Y-68314614D01*
X133584266Y-68275254D01*
X133584266Y-68248744D01*
X133588500Y-68209373D01*
X133588499Y-67678628D01*
X133584372Y-67640245D01*
X133584080Y-67616833D01*
X133584203Y-67615336D01*
X133588500Y-67575373D01*
X133588499Y-67563090D01*
X133588916Y-67558032D01*
X133599714Y-67529997D01*
X133608177Y-67501166D01*
X133612144Y-67497727D01*
X133614030Y-67492832D01*
X133638270Y-67475085D01*
X133660977Y-67455407D01*
X133666170Y-67454659D01*
X133670406Y-67451559D01*
X133700392Y-67449735D01*
X133730134Y-67445456D01*
X133737507Y-67447478D01*
X133740147Y-67447318D01*
X133743243Y-67449051D01*
X133759949Y-67453634D01*
X133829003Y-67482237D01*
X133944370Y-67505185D01*
X133983653Y-67512999D01*
X133983656Y-67513000D01*
X133983658Y-67513000D01*
X134141344Y-67513000D01*
X134141345Y-67512999D01*
X134295997Y-67482237D01*
X134441679Y-67421894D01*
X134572789Y-67334289D01*
X134684289Y-67222789D01*
X134771894Y-67091679D01*
X134832237Y-66945997D01*
X134863000Y-66791342D01*
X134863000Y-66633658D01*
X134863000Y-66633655D01*
X134862999Y-66633653D01*
X134847344Y-66554951D01*
X134832237Y-66479003D01*
X134832235Y-66478998D01*
X134771897Y-66333327D01*
X134771890Y-66333314D01*
X134684289Y-66202211D01*
X134684286Y-66202207D01*
X134572792Y-66090713D01*
X134572788Y-66090710D01*
X134441685Y-66003109D01*
X134441672Y-66003102D01*
X134296001Y-65942764D01*
X134295989Y-65942761D01*
X134141345Y-65912000D01*
X134141342Y-65912000D01*
X133983658Y-65912000D01*
X133983655Y-65912000D01*
X133829010Y-65942761D01*
X133829003Y-65942763D01*
X133759950Y-65971365D01*
X133690481Y-65978833D01*
X133628002Y-65947557D01*
X133592350Y-65887468D01*
X133588499Y-65856803D01*
X133588499Y-65774629D01*
X133588498Y-65774623D01*
X133585851Y-65750000D01*
X133582091Y-65715017D01*
X133580368Y-65710398D01*
X133531797Y-65580171D01*
X133531793Y-65580164D01*
X133456294Y-65479311D01*
X133431876Y-65413847D01*
X133446727Y-65345574D01*
X133456294Y-65330689D01*
X133531793Y-65229835D01*
X133531792Y-65229835D01*
X133531796Y-65229831D01*
X133582091Y-65094983D01*
X133588500Y-65035373D01*
X133588499Y-64504628D01*
X133588499Y-64504624D01*
X133588498Y-64504614D01*
X133584266Y-64465254D01*
X133584266Y-64438745D01*
X133588500Y-64399373D01*
X133588499Y-63868628D01*
X133584373Y-63830246D01*
X133584373Y-63803746D01*
X133588500Y-63765373D01*
X133588499Y-63234628D01*
X133588499Y-63234624D01*
X133588498Y-63234614D01*
X133584266Y-63195254D01*
X133584266Y-63168745D01*
X133588500Y-63129373D01*
X133588499Y-62598628D01*
X133582091Y-62539017D01*
X133577049Y-62525500D01*
X133531797Y-62404171D01*
X133531793Y-62404164D01*
X133445547Y-62288955D01*
X133445544Y-62288952D01*
X133330335Y-62202706D01*
X133330328Y-62202702D01*
X133195482Y-62152408D01*
X133195483Y-62152408D01*
X133135883Y-62146001D01*
X133135881Y-62146000D01*
X133135873Y-62146000D01*
X133135864Y-62146000D01*
X131514129Y-62146000D01*
X131514123Y-62146001D01*
X131454516Y-62152408D01*
X131319671Y-62202702D01*
X131319664Y-62202706D01*
X131204455Y-62288952D01*
X131204452Y-62288955D01*
X131118206Y-62404164D01*
X131118202Y-62404171D01*
X131067910Y-62539013D01*
X131067909Y-62539017D01*
X131061500Y-62598627D01*
X131061500Y-62598634D01*
X131061500Y-62598635D01*
X131061500Y-63129369D01*
X131061501Y-63129378D01*
X131065733Y-63168745D01*
X131065733Y-63195251D01*
X131061500Y-63234624D01*
X131061500Y-63765369D01*
X131061501Y-63765380D01*
X131065625Y-63803746D01*
X131065625Y-63830250D01*
X131061500Y-63868622D01*
X131061500Y-64399369D01*
X131061501Y-64399378D01*
X131065733Y-64438745D01*
X131065733Y-64465251D01*
X131061500Y-64504624D01*
X131061500Y-65035370D01*
X131061501Y-65035376D01*
X131067908Y-65094983D01*
X131118202Y-65229828D01*
X131118204Y-65229831D01*
X131193706Y-65330689D01*
X131218123Y-65396153D01*
X131203271Y-65464426D01*
X131193706Y-65479311D01*
X131118204Y-65580168D01*
X131118202Y-65580171D01*
X131067910Y-65715013D01*
X131067909Y-65715017D01*
X131061500Y-65774627D01*
X131061500Y-65774634D01*
X131061500Y-65774635D01*
X131061500Y-66162903D01*
X131041815Y-66229942D01*
X130989011Y-66275697D01*
X130919853Y-66285641D01*
X130856297Y-66256616D01*
X130849819Y-66250584D01*
X129007590Y-64408355D01*
X129007588Y-64408352D01*
X128888717Y-64289481D01*
X128888709Y-64289475D01*
X128801442Y-64239092D01*
X128801441Y-64239092D01*
X128751785Y-64210423D01*
X128599057Y-64169499D01*
X128440943Y-64169499D01*
X128433347Y-64169499D01*
X128433331Y-64169500D01*
X128288500Y-64169500D01*
X128221461Y-64149815D01*
X128175706Y-64097011D01*
X128164500Y-64045501D01*
X128164499Y-63868630D01*
X128164499Y-63868629D01*
X128164499Y-63868628D01*
X128160373Y-63830246D01*
X128160373Y-63803746D01*
X128164500Y-63765373D01*
X128164499Y-63234628D01*
X128164499Y-63234624D01*
X128164498Y-63234614D01*
X128160266Y-63195254D01*
X128160266Y-63168745D01*
X128164500Y-63129373D01*
X128164499Y-62598628D01*
X128158091Y-62539017D01*
X128153049Y-62525500D01*
X128107797Y-62404171D01*
X128107793Y-62404164D01*
X128021547Y-62288955D01*
X128021544Y-62288952D01*
X127906335Y-62202706D01*
X127906328Y-62202702D01*
X127771482Y-62152408D01*
X127771483Y-62152408D01*
X127711883Y-62146001D01*
X127711881Y-62146000D01*
X127711873Y-62146000D01*
X127711865Y-62146000D01*
X126677597Y-62146000D01*
X126656351Y-62139761D01*
X126634263Y-62138182D01*
X126623479Y-62130109D01*
X126610558Y-62126315D01*
X126596058Y-62109581D01*
X126578330Y-62096310D01*
X126573622Y-62083689D01*
X126564803Y-62073511D01*
X126561651Y-62051593D01*
X126553913Y-62030846D01*
X126556775Y-62017685D01*
X126554859Y-62004353D01*
X126564058Y-61984209D01*
X126568765Y-61962573D01*
X126582033Y-61944847D01*
X126583884Y-61940797D01*
X126589916Y-61934319D01*
X126687416Y-61836819D01*
X126748739Y-61803334D01*
X126775097Y-61800500D01*
X127463331Y-61800500D01*
X127463347Y-61800501D01*
X127470943Y-61800501D01*
X127629054Y-61800501D01*
X127629057Y-61800501D01*
X127781785Y-61759577D01*
X127838854Y-61726628D01*
X127918716Y-61680520D01*
X128030520Y-61568716D01*
X128030521Y-61568714D01*
X128380520Y-61218716D01*
X128459577Y-61081784D01*
X128500501Y-60929057D01*
X128500501Y-60770942D01*
X128500501Y-60763347D01*
X128500500Y-60763329D01*
X128500500Y-59039060D01*
X128500501Y-59039047D01*
X128500501Y-58870944D01*
X128500501Y-58870943D01*
X128459577Y-58718216D01*
X128423109Y-58655051D01*
X128380524Y-58581290D01*
X128380518Y-58581282D01*
X127843717Y-58044481D01*
X127843709Y-58044475D01*
X127749284Y-57989959D01*
X127749275Y-57989954D01*
X127744585Y-57987247D01*
X127706785Y-57965423D01*
X127682974Y-57959043D01*
X127673145Y-57954460D01*
X127654733Y-57938250D01*
X127633788Y-57925483D01*
X127621128Y-57908664D01*
X127620703Y-57908290D01*
X127620615Y-57907983D01*
X127620009Y-57907178D01*
X127570340Y-57826650D01*
X127448350Y-57704660D01*
X127318390Y-57624500D01*
X127301518Y-57614093D01*
X127301513Y-57614091D01*
X127277959Y-57606286D01*
X127137753Y-57559826D01*
X127137751Y-57559825D01*
X127036678Y-57549500D01*
X126438330Y-57549500D01*
X126438312Y-57549501D01*
X126337247Y-57559825D01*
X126173484Y-57614092D01*
X126173481Y-57614093D01*
X126026648Y-57704661D01*
X125912681Y-57818629D01*
X125851358Y-57852114D01*
X125781666Y-57847130D01*
X125737319Y-57818629D01*
X125623351Y-57704661D01*
X125623350Y-57704660D01*
X125493390Y-57624500D01*
X125476518Y-57614093D01*
X125476513Y-57614091D01*
X125452959Y-57606286D01*
X125312753Y-57559826D01*
X125312751Y-57559825D01*
X125211678Y-57549500D01*
X124613330Y-57549500D01*
X124613312Y-57549501D01*
X124512247Y-57559825D01*
X124348484Y-57614092D01*
X124348481Y-57614093D01*
X124201648Y-57704661D01*
X124079659Y-57826650D01*
X124055638Y-57865596D01*
X124003690Y-57912321D01*
X123950099Y-57924500D01*
X123358923Y-57924500D01*
X123291884Y-57904815D01*
X123246129Y-57852011D01*
X123241218Y-57839507D01*
X123235908Y-57823485D01*
X123235908Y-57823484D01*
X123145340Y-57676650D01*
X123023350Y-57554660D01*
X122876516Y-57464092D01*
X122712753Y-57409826D01*
X122712751Y-57409825D01*
X122611678Y-57399500D01*
X122038330Y-57399500D01*
X122038312Y-57399501D01*
X121937247Y-57409825D01*
X121773484Y-57464092D01*
X121773481Y-57464093D01*
X121626646Y-57554662D01*
X121593128Y-57588181D01*
X121531805Y-57621666D01*
X121505447Y-57624500D01*
X121371155Y-57624500D01*
X121216510Y-57655261D01*
X121216498Y-57655264D01*
X121070827Y-57715602D01*
X121070814Y-57715609D01*
X120939711Y-57803210D01*
X120939707Y-57803213D01*
X120828213Y-57914707D01*
X120828210Y-57914711D01*
X120740609Y-58045814D01*
X120740602Y-58045827D01*
X120680264Y-58191498D01*
X120680261Y-58191510D01*
X120649500Y-58346153D01*
X120649500Y-58503846D01*
X120680261Y-58658489D01*
X120680264Y-58658501D01*
X120740602Y-58804172D01*
X120740609Y-58804185D01*
X120828210Y-58935288D01*
X120828213Y-58935292D01*
X120939707Y-59046786D01*
X120939711Y-59046789D01*
X121070814Y-59134390D01*
X121070827Y-59134397D01*
X121216498Y-59194735D01*
X121216503Y-59194737D01*
X121302209Y-59211785D01*
X121371153Y-59225499D01*
X121371156Y-59225500D01*
X121456448Y-59225500D01*
X121477696Y-59231739D01*
X121499786Y-59233320D01*
X121510567Y-59241391D01*
X121523487Y-59245185D01*
X121537986Y-59261918D01*
X121555718Y-59275193D01*
X121560424Y-59287812D01*
X121569242Y-59297989D01*
X121572393Y-59319908D01*
X121580132Y-59340658D01*
X121577269Y-59353816D01*
X121579186Y-59367147D01*
X121569985Y-59387292D01*
X121565278Y-59408931D01*
X121552011Y-59426651D01*
X121550161Y-59430703D01*
X121544126Y-59437184D01*
X121529843Y-59451466D01*
X121468519Y-59484949D01*
X121466358Y-59485399D01*
X121366506Y-59505261D01*
X121366500Y-59505263D01*
X121220827Y-59565602D01*
X121220814Y-59565609D01*
X121089711Y-59653210D01*
X121089707Y-59653213D01*
X120978213Y-59764707D01*
X120978210Y-59764711D01*
X120890609Y-59895814D01*
X120890602Y-59895827D01*
X120830264Y-60041498D01*
X120830261Y-60041510D01*
X120799500Y-60196153D01*
X120799500Y-60353846D01*
X120830261Y-60508489D01*
X120830264Y-60508501D01*
X120890602Y-60654172D01*
X120890609Y-60654185D01*
X120978210Y-60785288D01*
X120978213Y-60785292D01*
X121089707Y-60896786D01*
X121089711Y-60896789D01*
X121220814Y-60984390D01*
X121220827Y-60984397D01*
X121366498Y-61044735D01*
X121366503Y-61044737D01*
X121489486Y-61069200D01*
X121521153Y-61075499D01*
X121521156Y-61075500D01*
X121521158Y-61075500D01*
X121584318Y-61075500D01*
X121649415Y-61093961D01*
X121651648Y-61095338D01*
X121651650Y-61095340D01*
X121798484Y-61185908D01*
X121962247Y-61240174D01*
X122063323Y-61250500D01*
X122636676Y-61250499D01*
X122636684Y-61250498D01*
X122636687Y-61250498D01*
X122692030Y-61244844D01*
X122737753Y-61240174D01*
X122901516Y-61185908D01*
X123048350Y-61095340D01*
X123170340Y-60973350D01*
X123260908Y-60826516D01*
X123274501Y-60785494D01*
X123314274Y-60728050D01*
X123378790Y-60701228D01*
X123392207Y-60700500D01*
X123925099Y-60700500D01*
X123992138Y-60720185D01*
X124030638Y-60759404D01*
X124054660Y-60798350D01*
X124176650Y-60920340D01*
X124323484Y-61010908D01*
X124487247Y-61065174D01*
X124588323Y-61075500D01*
X124750903Y-61075499D01*
X124772148Y-61081737D01*
X124794235Y-61083317D01*
X124805017Y-61091388D01*
X124817941Y-61095183D01*
X124832441Y-61111917D01*
X124850169Y-61125188D01*
X124854876Y-61137808D01*
X124863696Y-61147987D01*
X124866847Y-61169904D01*
X124874586Y-61190652D01*
X124871723Y-61203813D01*
X124873640Y-61217145D01*
X124864442Y-61237285D01*
X124859735Y-61258925D01*
X124846462Y-61276655D01*
X124844615Y-61280701D01*
X124838584Y-61287180D01*
X124756286Y-61369478D01*
X124756285Y-61369478D01*
X124756284Y-61369479D01*
X124685759Y-61440005D01*
X124644480Y-61481284D01*
X124615652Y-61531216D01*
X124565423Y-61618215D01*
X124524499Y-61770943D01*
X124524499Y-61770945D01*
X124524499Y-61939046D01*
X124524500Y-61939059D01*
X124524500Y-62525500D01*
X124504815Y-62592539D01*
X124452011Y-62638294D01*
X124400500Y-62649500D01*
X123713330Y-62649500D01*
X123713312Y-62649501D01*
X123612247Y-62659825D01*
X123448484Y-62714092D01*
X123448481Y-62714093D01*
X123301648Y-62804661D01*
X123179661Y-62926648D01*
X123089093Y-63073481D01*
X123089091Y-63073486D01*
X123078554Y-63105284D01*
X123034826Y-63237247D01*
X123034826Y-63237248D01*
X123034825Y-63237248D01*
X123024500Y-63338315D01*
X123024500Y-63911669D01*
X123024501Y-63911687D01*
X123034825Y-64012752D01*
X123062746Y-64097011D01*
X123089092Y-64176516D01*
X123104576Y-64201620D01*
X123111765Y-64213274D01*
X123130205Y-64280667D01*
X123109282Y-64347330D01*
X123055640Y-64392100D01*
X122992974Y-64401661D01*
X122980676Y-64400338D01*
X122972873Y-64399500D01*
X122972872Y-64399500D01*
X122659348Y-64399500D01*
X122635156Y-64397117D01*
X122521457Y-64374500D01*
X122521455Y-64374500D01*
X119495487Y-64374500D01*
X119436058Y-64359331D01*
X119430330Y-64356203D01*
X119295482Y-64305908D01*
X119295483Y-64305908D01*
X119235883Y-64299501D01*
X119235881Y-64299500D01*
X119235873Y-64299500D01*
X119235864Y-64299500D01*
X117990129Y-64299500D01*
X117990108Y-64299502D01*
X117973078Y-64301332D01*
X117904319Y-64288922D01*
X117853185Y-64241309D01*
X117852444Y-64240042D01*
X117815768Y-64176518D01*
X117798515Y-64146635D01*
X117691365Y-64039485D01*
X117578495Y-63974319D01*
X117560136Y-63963719D01*
X117464149Y-63938000D01*
X117413766Y-63924500D01*
X117262234Y-63924500D01*
X117115863Y-63963719D01*
X116984635Y-64039485D01*
X116984632Y-64039487D01*
X116877487Y-64146632D01*
X116877485Y-64146635D01*
X116801719Y-64277863D01*
X116766755Y-64408355D01*
X116762500Y-64424234D01*
X116762500Y-64575766D01*
X116777546Y-64631919D01*
X116801719Y-64722136D01*
X116827200Y-64766269D01*
X116877485Y-64853365D01*
X116877487Y-64853367D01*
X116896765Y-64872645D01*
X116930250Y-64933968D01*
X116925266Y-65003660D01*
X116896765Y-65048007D01*
X115973470Y-65971301D01*
X115973464Y-65971309D01*
X115897615Y-66084825D01*
X115897616Y-66084826D01*
X115894071Y-66090130D01*
X115839381Y-66222164D01*
X115839379Y-66222170D01*
X115811500Y-66362327D01*
X112325500Y-66362327D01*
X112325500Y-57413098D01*
X112331115Y-57376208D01*
X112391085Y-57183757D01*
X112410695Y-57120825D01*
X112415999Y-57106837D01*
X112533731Y-56845249D01*
X112540676Y-56832016D01*
X112689080Y-56586526D01*
X112697567Y-56574230D01*
X112874480Y-56348417D01*
X112884395Y-56337226D01*
X113087226Y-56134395D01*
X113098417Y-56124480D01*
X113324230Y-55947567D01*
X113336526Y-55939080D01*
X113582016Y-55790676D01*
X113595249Y-55783731D01*
X113856841Y-55665998D01*
X113870822Y-55660696D01*
X114144668Y-55575362D01*
X114159202Y-55571780D01*
X114264241Y-55552531D01*
X114286592Y-55550500D01*
X189213408Y-55550500D01*
X189235760Y-55552531D01*
G37*
%TD.AperFunction*%
%TD*%
M02*
