%TF.GenerationSoftware,KiCad,Pcbnew,9.0.7*%
%TF.CreationDate,2026-02-18T00:38:32-05:00*%
%TF.ProjectId,RedPink_STM32C09_Board,52656450-696e-46b5-9f53-544d33324330,rev?*%
%TF.SameCoordinates,Original*%
%TF.FileFunction,Profile,NP*%
%FSLAX46Y46*%
G04 Gerber Fmt 4.6, Leading zero omitted, Abs format (unit mm)*
G04 Created by KiCad (PCBNEW 9.0.7) date 2026-02-18 00:38:32*
%MOMM*%
%LPD*%
G01*
G04 APERTURE LIST*
%TA.AperFunction,Profile*%
%ADD10C,0.100000*%
%TD*%
%ADD11C,0.150000*%
%TA.AperFunction,Profile*%
%ADD12C,0.050000*%
%TD*%
G04 APERTURE END LIST*
D10*
X114750000Y-80000000D02*
G75*
G02*
X111750000Y-77000000I0J3000000D01*
G01*
X111750000Y-58000000D02*
G75*
G02*
X114750000Y-55000000I3000000J0D01*
G01*
X191750000Y-77000000D02*
G75*
G02*
X188750000Y-80000000I-3000000J0D01*
G01*
X188750000Y-55000000D02*
G75*
G02*
X191750000Y-58000000I0J-3000000D01*
G01*
X111750000Y-77000000D02*
X111750000Y-58000000D01*
X188750000Y-80000000D02*
X114750000Y-80000000D01*
X114750000Y-55000000D02*
X188750000Y-55000000D01*
X191750000Y-58000000D02*
X191750000Y-77000000D01*
D11*
X151178571Y-51008390D02*
X151083333Y-50960771D01*
X151083333Y-50960771D02*
X151035714Y-50913152D01*
X151035714Y-50913152D02*
X150988095Y-50817914D01*
X150988095Y-50817914D02*
X150988095Y-50770295D01*
X150988095Y-50770295D02*
X151035714Y-50675057D01*
X151035714Y-50675057D02*
X151083333Y-50627438D01*
X151083333Y-50627438D02*
X151178571Y-50579819D01*
X151178571Y-50579819D02*
X151369047Y-50579819D01*
X151369047Y-50579819D02*
X151464285Y-50627438D01*
X151464285Y-50627438D02*
X151511904Y-50675057D01*
X151511904Y-50675057D02*
X151559523Y-50770295D01*
X151559523Y-50770295D02*
X151559523Y-50817914D01*
X151559523Y-50817914D02*
X151511904Y-50913152D01*
X151511904Y-50913152D02*
X151464285Y-50960771D01*
X151464285Y-50960771D02*
X151369047Y-51008390D01*
X151369047Y-51008390D02*
X151178571Y-51008390D01*
X151178571Y-51008390D02*
X151083333Y-51056009D01*
X151083333Y-51056009D02*
X151035714Y-51103628D01*
X151035714Y-51103628D02*
X150988095Y-51198866D01*
X150988095Y-51198866D02*
X150988095Y-51389342D01*
X150988095Y-51389342D02*
X151035714Y-51484580D01*
X151035714Y-51484580D02*
X151083333Y-51532200D01*
X151083333Y-51532200D02*
X151178571Y-51579819D01*
X151178571Y-51579819D02*
X151369047Y-51579819D01*
X151369047Y-51579819D02*
X151464285Y-51532200D01*
X151464285Y-51532200D02*
X151511904Y-51484580D01*
X151511904Y-51484580D02*
X151559523Y-51389342D01*
X151559523Y-51389342D02*
X151559523Y-51198866D01*
X151559523Y-51198866D02*
X151511904Y-51103628D01*
X151511904Y-51103628D02*
X151464285Y-51056009D01*
X151464285Y-51056009D02*
X151369047Y-51008390D01*
X152178571Y-50579819D02*
X152273809Y-50579819D01*
X152273809Y-50579819D02*
X152369047Y-50627438D01*
X152369047Y-50627438D02*
X152416666Y-50675057D01*
X152416666Y-50675057D02*
X152464285Y-50770295D01*
X152464285Y-50770295D02*
X152511904Y-50960771D01*
X152511904Y-50960771D02*
X152511904Y-51198866D01*
X152511904Y-51198866D02*
X152464285Y-51389342D01*
X152464285Y-51389342D02*
X152416666Y-51484580D01*
X152416666Y-51484580D02*
X152369047Y-51532200D01*
X152369047Y-51532200D02*
X152273809Y-51579819D01*
X152273809Y-51579819D02*
X152178571Y-51579819D01*
X152178571Y-51579819D02*
X152083333Y-51532200D01*
X152083333Y-51532200D02*
X152035714Y-51484580D01*
X152035714Y-51484580D02*
X151988095Y-51389342D01*
X151988095Y-51389342D02*
X151940476Y-51198866D01*
X151940476Y-51198866D02*
X151940476Y-50960771D01*
X151940476Y-50960771D02*
X151988095Y-50770295D01*
X151988095Y-50770295D02*
X152035714Y-50675057D01*
X152035714Y-50675057D02*
X152083333Y-50627438D01*
X152083333Y-50627438D02*
X152178571Y-50579819D01*
D12*
X111750000Y-54500000D02*
X111750000Y-51688580D01*
X191750000Y-51688580D02*
X191750000Y-54500000D01*
X111750000Y-52275000D02*
X191750000Y-52275000D01*
X111750000Y-52275000D02*
X112876504Y-51688579D01*
X111750000Y-52275000D02*
X112876504Y-52861421D01*
X191750000Y-52275000D02*
X190623496Y-52861421D01*
X191750000Y-52275000D02*
X190623496Y-51688579D01*
M02*
