%TF.GenerationSoftware,KiCad,Pcbnew,9.0.7*%
%TF.CreationDate,2026-02-18T00:38:32-05:00*%
%TF.ProjectId,RedPink_STM32C09_Board,52656450-696e-46b5-9f53-544d33324330,rev?*%
%TF.SameCoordinates,Original*%
%TF.FileFunction,Copper,L2,Bot*%
%TF.FilePolarity,Positive*%
%FSLAX46Y46*%
G04 Gerber Fmt 4.6, Leading zero omitted, Abs format (unit mm)*
G04 Created by KiCad (PCBNEW 9.0.7) date 2026-02-18 00:38:32*
%MOMM*%
%LPD*%
G01*
G04 APERTURE LIST*
%TA.AperFunction,ComponentPad*%
%ADD10R,1.700000X1.700000*%
%TD*%
%TA.AperFunction,ComponentPad*%
%ADD11C,1.700000*%
%TD*%
%TA.AperFunction,ComponentPad*%
%ADD12C,5.000000*%
%TD*%
%TA.AperFunction,ViaPad*%
%ADD13C,0.600000*%
%TD*%
%TA.AperFunction,Conductor*%
%ADD14C,0.250000*%
%TD*%
%TA.AperFunction,Conductor*%
%ADD15C,0.450000*%
%TD*%
%TA.AperFunction,Conductor*%
%ADD16C,0.200000*%
%TD*%
G04 APERTURE END LIST*
D10*
%TO.P,J4,1,Pin_1*%
%TO.N,VSS*%
X189500000Y-70250000D03*
D11*
%TO.P,J4,2,Pin_2*%
%TO.N,CANL*%
X189500000Y-67710000D03*
%TO.P,J4,3,Pin_3*%
%TO.N,CANH*%
X189500000Y-65170000D03*
%TD*%
D12*
%TO.P,H4,1,1*%
%TO.N,VSS*%
X114575000Y-77175000D03*
%TD*%
D10*
%TO.P,J2,1,Pin_1*%
%TO.N,VSS*%
X137965000Y-57500000D03*
D11*
%TO.P,J2,2,Pin_2*%
%TO.N,SWCLK*%
X140505000Y-57500000D03*
%TO.P,J2,3,Pin_3*%
%TO.N,SWDIO*%
X143045000Y-57500000D03*
%TO.P,J2,4,Pin_4*%
%TO.N,3V3*%
X145585000Y-57500000D03*
%TD*%
D12*
%TO.P,H3,1,1*%
%TO.N,VSS*%
X114575000Y-57825000D03*
%TD*%
%TO.P,H2,1,1*%
%TO.N,VSS*%
X188925000Y-77175000D03*
%TD*%
%TO.P,H1,1,1*%
%TO.N,VSS*%
X188925000Y-57825000D03*
%TD*%
D13*
%TO.N,VSS*%
X185150000Y-76000000D03*
X184400000Y-76725000D03*
X185168750Y-76725000D03*
X185168750Y-78275000D03*
X184400000Y-77450000D03*
X185168750Y-77450000D03*
X184400000Y-78275000D03*
X184381250Y-76000000D03*
X165703524Y-71505244D03*
X170316024Y-71505244D03*
X173397274Y-71505244D03*
X171859774Y-71505244D03*
X168778524Y-71505244D03*
X175703524Y-71505244D03*
X172628524Y-71505244D03*
X177241024Y-71505244D03*
X167241024Y-71505244D03*
X174934774Y-71505244D03*
X164934774Y-71505244D03*
X171084774Y-71505244D03*
X168009774Y-71505244D03*
X166472274Y-71505244D03*
X169547274Y-71505244D03*
X178009774Y-71505244D03*
X174166024Y-71505244D03*
X176472274Y-71505244D03*
X151843750Y-71500000D03*
X156456250Y-71500000D03*
X159537500Y-71500000D03*
X158000000Y-71500000D03*
X154918750Y-71500000D03*
X161843750Y-71500000D03*
X158768750Y-71500000D03*
X163381250Y-71500000D03*
X153381250Y-71500000D03*
X161075000Y-71500000D03*
X151075000Y-71500000D03*
X157225000Y-71500000D03*
X154150000Y-71500000D03*
X152612500Y-71500000D03*
X155687500Y-71500000D03*
X164150000Y-71500000D03*
X160306250Y-71500000D03*
X162612500Y-71500000D03*
X148756250Y-58175000D03*
X131706250Y-57475000D03*
X184856250Y-56725000D03*
X158737500Y-56725000D03*
X120318750Y-76375000D03*
X147925000Y-75325000D03*
X168656250Y-57450000D03*
X184106250Y-57450000D03*
X124162500Y-76375000D03*
X181800000Y-57450000D03*
X157218750Y-59000000D03*
X121087500Y-76375000D03*
X152600000Y-58175000D03*
X138431250Y-59818750D03*
X132475000Y-58200000D03*
X119568750Y-78650000D03*
X130168750Y-57475000D03*
X161043750Y-56725000D03*
X123400000Y-61925000D03*
X181800000Y-59000000D03*
X130168750Y-58200000D03*
X183337500Y-58175000D03*
X154137500Y-59000000D03*
X149525000Y-59000000D03*
X121106250Y-77100000D03*
X154118750Y-56725000D03*
X172500000Y-58175000D03*
X151831250Y-58175000D03*
X131687500Y-56750000D03*
X118800000Y-78650000D03*
X156450000Y-57450000D03*
X167100000Y-56725000D03*
X184106250Y-59000000D03*
X121025000Y-68950000D03*
X179775000Y-66250000D03*
X133225000Y-56750000D03*
X183337500Y-57450000D03*
X123393750Y-76375000D03*
X184087500Y-56725000D03*
X131706250Y-58200000D03*
X182568750Y-57450000D03*
X150293750Y-58175000D03*
X156450000Y-58175000D03*
X151043750Y-56725000D03*
X123200000Y-56700000D03*
X157218750Y-58175000D03*
X160293750Y-59000000D03*
X118031250Y-78650000D03*
X180243750Y-56725000D03*
X153350000Y-56725000D03*
X122643750Y-78650000D03*
X181800000Y-58175000D03*
X114050000Y-73725000D03*
X171712500Y-56725000D03*
X119568750Y-77825000D03*
X170193750Y-59000000D03*
X134012500Y-59025000D03*
X118031250Y-77825000D03*
X157987500Y-59000000D03*
X179493750Y-59000000D03*
X151831250Y-57450000D03*
X170943750Y-56725000D03*
X132456250Y-56750000D03*
X166706146Y-69880187D03*
X130937500Y-57475000D03*
X164025000Y-59500000D03*
X161062500Y-58175000D03*
X130918750Y-56750000D03*
X114050000Y-61000000D03*
X157987500Y-57450000D03*
X121875000Y-78650000D03*
X161812500Y-56725000D03*
X143925000Y-72825000D03*
X169425000Y-57450000D03*
X123412500Y-77100000D03*
X133243750Y-58200000D03*
X151062500Y-57450000D03*
X119500000Y-63750000D03*
X170175000Y-56725000D03*
X161831250Y-59000000D03*
X124181250Y-77100000D03*
X167118750Y-57450000D03*
X183337500Y-59000000D03*
X169425000Y-58175000D03*
X124181250Y-77825000D03*
X130937500Y-58200000D03*
X178725000Y-57450000D03*
X161831250Y-58175000D03*
X171731250Y-57450000D03*
X121856250Y-76375000D03*
X133993750Y-56750000D03*
X153368750Y-59000000D03*
X133675000Y-65400000D03*
X131706250Y-59025000D03*
X184875000Y-58175000D03*
X157987500Y-58175000D03*
X150293750Y-59000000D03*
X161062500Y-57450000D03*
X149506250Y-56725000D03*
X132475000Y-59025000D03*
X156431250Y-56725000D03*
X168656250Y-58175000D03*
X154525000Y-64500000D03*
X130150000Y-56750000D03*
X167118750Y-59000000D03*
X167868750Y-56725000D03*
X121106250Y-78650000D03*
X170962500Y-59000000D03*
X167887500Y-59000000D03*
X181781250Y-56725000D03*
X151812500Y-56725000D03*
X134012500Y-57475000D03*
X150293750Y-57450000D03*
X159525000Y-58175000D03*
X159506250Y-56725000D03*
X118781250Y-76375000D03*
X167887500Y-58175000D03*
X119650000Y-71475000D03*
X133243750Y-59025000D03*
X180262500Y-57450000D03*
X166350000Y-57450000D03*
X148756250Y-59000000D03*
X123412500Y-78650000D03*
X178706250Y-56725000D03*
X168656250Y-59000000D03*
X159525000Y-57450000D03*
X132475000Y-57475000D03*
X184106250Y-58175000D03*
X151831250Y-59000000D03*
X170962500Y-58175000D03*
X169406250Y-56725000D03*
X130168750Y-59025000D03*
X150275000Y-56725000D03*
X181012500Y-56725000D03*
X119568750Y-77100000D03*
X118000000Y-73775000D03*
X154906250Y-59000000D03*
X125312500Y-66562500D03*
X118800000Y-77825000D03*
X157218750Y-57450000D03*
X157200000Y-56725000D03*
X182568750Y-59000000D03*
X152600000Y-57450000D03*
X149525000Y-57450000D03*
X120337500Y-77100000D03*
X118031250Y-77100000D03*
X154137500Y-57450000D03*
X168637500Y-56725000D03*
X134025000Y-74975000D03*
X123412500Y-77825000D03*
X148737500Y-56725000D03*
X179493750Y-57450000D03*
X140725000Y-76250000D03*
X155681250Y-58175000D03*
X183318750Y-56725000D03*
X154137500Y-58175000D03*
X178725000Y-58175000D03*
X166350000Y-58175000D03*
X148400000Y-73800000D03*
X127275000Y-75175000D03*
X154906250Y-57450000D03*
X155681250Y-57450000D03*
X167118750Y-58175000D03*
X170962500Y-57450000D03*
X124181250Y-78650000D03*
X122643750Y-77825000D03*
X121106250Y-77825000D03*
X122643750Y-77100000D03*
X153368750Y-57450000D03*
X160293750Y-57450000D03*
X117975000Y-60925000D03*
X122625000Y-76375000D03*
X160293750Y-58175000D03*
X182568750Y-58175000D03*
X159525000Y-59000000D03*
X180262500Y-58175000D03*
X180262500Y-59000000D03*
X120337500Y-78650000D03*
X152600000Y-59000000D03*
X182550000Y-56725000D03*
X167887500Y-57450000D03*
X184875000Y-57450000D03*
X133243750Y-57475000D03*
X179475000Y-56725000D03*
X181031250Y-58175000D03*
X170193750Y-58175000D03*
X148756250Y-57450000D03*
X155681250Y-59000000D03*
X151062500Y-59000000D03*
X154906250Y-58175000D03*
X172500000Y-59000000D03*
X155662500Y-56725000D03*
X171731250Y-59000000D03*
X119550000Y-76375000D03*
X149525000Y-58175000D03*
X178725000Y-59000000D03*
X156275000Y-64500000D03*
X158756250Y-57450000D03*
X172500000Y-57450000D03*
X158756250Y-58175000D03*
X158756250Y-59000000D03*
X179493750Y-58175000D03*
X121875000Y-77100000D03*
X171731250Y-58175000D03*
X160275000Y-56725000D03*
X130937500Y-59025000D03*
X157968750Y-56725000D03*
X153368750Y-58175000D03*
X166350000Y-59000000D03*
X152581250Y-56725000D03*
X161062500Y-59000000D03*
X118012500Y-76375000D03*
X184875000Y-59000000D03*
X121875000Y-77825000D03*
X154887500Y-56725000D03*
X181031250Y-57450000D03*
X170193750Y-57450000D03*
X120337500Y-77825000D03*
X172481250Y-56725000D03*
X140000000Y-75550000D03*
X134012500Y-58200000D03*
X151062500Y-58175000D03*
X181031250Y-59000000D03*
X169425000Y-59000000D03*
X166331250Y-56725000D03*
X161831250Y-57450000D03*
X156450000Y-59000000D03*
X118800000Y-77100000D03*
%TO.N,5V*%
X153261510Y-67102518D03*
X129525000Y-75300000D03*
%TO.N,3V3*%
X143000000Y-72300000D03*
X162100000Y-69950000D03*
%TO.N,D+1*%
X120075000Y-66875000D03*
X121450000Y-58425000D03*
%TO.N,D-1*%
X119975000Y-67750000D03*
X121600000Y-60275000D03*
%TO.N,TXD*%
X129225000Y-68625000D03*
X145650000Y-69275000D03*
%TO.N,RXD*%
X146150000Y-68525000D03*
X134062500Y-66712500D03*
%TD*%
D14*
%TO.N,3V3*%
X158450000Y-69950000D02*
X162100000Y-69950000D01*
X157500000Y-69000000D02*
X158450000Y-69950000D01*
X157500000Y-64000000D02*
X157500000Y-69000000D01*
X153500000Y-63500000D02*
X157000000Y-63500000D01*
X157000000Y-63500000D02*
X157500000Y-64000000D01*
X143665702Y-72199000D02*
X143665702Y-71834298D01*
X143564702Y-72300000D02*
X143665702Y-72199000D01*
X143665702Y-71834298D02*
X144000000Y-71500000D01*
X144000000Y-71500000D02*
X145500000Y-71500000D01*
X143000000Y-72300000D02*
X143564702Y-72300000D01*
X145500000Y-71500000D02*
X153500000Y-63500000D01*
D15*
%TO.N,5V*%
X135900000Y-76600000D02*
X137900000Y-74600000D01*
X130825000Y-76600000D02*
X135900000Y-76600000D01*
X146607014Y-73757014D02*
X147194514Y-73169514D01*
X137900000Y-74600000D02*
X145764028Y-74600000D01*
X129525000Y-75300000D02*
X130825000Y-76600000D01*
X147100000Y-73264028D02*
X147194514Y-73169514D01*
X145764028Y-74600000D02*
X146182014Y-74182014D01*
X146182014Y-74182014D02*
X146607014Y-73757014D01*
X147194514Y-73169514D02*
X153261510Y-67102518D01*
D16*
%TO.N,D+1*%
X121300000Y-59462500D02*
X120550000Y-60212500D01*
X120550000Y-66400000D02*
X120075000Y-66875000D01*
X121300000Y-58575000D02*
X121300000Y-59462500D01*
X121450000Y-58425000D02*
X121300000Y-58575000D01*
X120550000Y-60212500D02*
X120550000Y-66400000D01*
%TO.N,D-1*%
X120225000Y-67750000D02*
X119975000Y-67750000D01*
X121600000Y-60962500D02*
X121100000Y-61462500D01*
X121600000Y-60275000D02*
X121600000Y-60962500D01*
X121100000Y-61462500D02*
X121100000Y-66875000D01*
X121100000Y-66875000D02*
X120225000Y-67750000D01*
%TO.N,TXD*%
X145650000Y-69275000D02*
X129875000Y-69275000D01*
X129875000Y-69275000D02*
X129225000Y-68625000D01*
X129225000Y-68625000D02*
X129175000Y-68575000D01*
%TO.N,RXD*%
X135875000Y-68525000D02*
X134062500Y-66712500D01*
X146150000Y-68525000D02*
X135875000Y-68525000D01*
X134062500Y-66712500D02*
X134050000Y-66700000D01*
%TD*%
%TA.AperFunction,Conductor*%
%TO.N,VSS*%
G36*
X189235760Y-55552531D02*
G01*
X189340798Y-55571780D01*
X189355335Y-55575363D01*
X189629172Y-55660695D01*
X189643163Y-55666000D01*
X189904743Y-55783727D01*
X189917989Y-55790680D01*
X190163465Y-55939075D01*
X190175776Y-55947573D01*
X190401573Y-56124473D01*
X190412781Y-56134403D01*
X190615596Y-56337218D01*
X190625526Y-56348426D01*
X190802422Y-56574217D01*
X190810928Y-56586540D01*
X190959316Y-56832004D01*
X190966275Y-56845263D01*
X191083997Y-57106831D01*
X191089306Y-57120832D01*
X191174635Y-57394663D01*
X191178219Y-57409201D01*
X191222469Y-57650660D01*
X191224500Y-57673012D01*
X191224500Y-77326986D01*
X191222469Y-77349338D01*
X191178219Y-77590798D01*
X191174635Y-77605336D01*
X191089306Y-77879167D01*
X191083997Y-77893168D01*
X190966275Y-78154736D01*
X190959316Y-78167995D01*
X190810928Y-78413459D01*
X190802422Y-78425782D01*
X190625526Y-78651573D01*
X190615596Y-78662781D01*
X190412781Y-78865596D01*
X190401573Y-78875526D01*
X190175782Y-79052422D01*
X190163459Y-79060928D01*
X189917995Y-79209316D01*
X189904736Y-79216275D01*
X189643168Y-79333997D01*
X189629167Y-79339306D01*
X189355336Y-79424635D01*
X189340799Y-79428219D01*
X189259004Y-79443209D01*
X189235758Y-79447469D01*
X189213408Y-79449500D01*
X114286592Y-79449500D01*
X114264241Y-79447469D01*
X114235870Y-79442270D01*
X114159200Y-79428219D01*
X114144663Y-79424635D01*
X113870832Y-79339306D01*
X113856831Y-79333997D01*
X113595263Y-79216275D01*
X113582004Y-79209316D01*
X113336540Y-79060928D01*
X113324217Y-79052422D01*
X113098426Y-78875526D01*
X113087218Y-78865596D01*
X112884403Y-78662781D01*
X112874473Y-78651573D01*
X112697577Y-78425782D01*
X112689075Y-78413465D01*
X112540680Y-78167989D01*
X112533727Y-78154743D01*
X112416000Y-77893163D01*
X112410693Y-77879167D01*
X112331115Y-77623791D01*
X112325500Y-77586901D01*
X112325500Y-75221153D01*
X128724500Y-75221153D01*
X128724500Y-75378846D01*
X128755261Y-75533489D01*
X128755264Y-75533501D01*
X128815602Y-75679172D01*
X128815609Y-75679185D01*
X128903210Y-75810288D01*
X128903213Y-75810292D01*
X129014707Y-75921786D01*
X129014711Y-75921789D01*
X129145817Y-76009392D01*
X129145819Y-76009392D01*
X129145821Y-76009394D01*
X129229830Y-76044191D01*
X129270059Y-76071071D01*
X130362515Y-77163528D01*
X130362522Y-77163534D01*
X130481344Y-77242928D01*
X130481349Y-77242930D01*
X130613380Y-77297619D01*
X130613384Y-77297619D01*
X130613385Y-77297620D01*
X130753542Y-77325500D01*
X130753545Y-77325500D01*
X135971457Y-77325500D01*
X136065751Y-77306742D01*
X136111620Y-77297619D01*
X136243653Y-77242929D01*
X136318099Y-77193186D01*
X136362480Y-77163532D01*
X138164193Y-75361819D01*
X138225516Y-75328334D01*
X138251874Y-75325500D01*
X145835485Y-75325500D01*
X145929779Y-75306742D01*
X145975648Y-75297619D01*
X146107681Y-75242929D01*
X146140264Y-75221158D01*
X146226508Y-75163532D01*
X146745546Y-74644494D01*
X146745546Y-74644493D01*
X147059284Y-74330753D01*
X147059289Y-74330750D01*
X147069492Y-74320546D01*
X147069494Y-74320546D01*
X147758046Y-73631994D01*
X153516451Y-67873587D01*
X153556673Y-67846711D01*
X153640689Y-67811912D01*
X153771799Y-67724307D01*
X153883299Y-67612807D01*
X153970904Y-67481697D01*
X154031247Y-67336015D01*
X154062010Y-67181360D01*
X154062010Y-67023676D01*
X154062010Y-67023673D01*
X154062009Y-67023671D01*
X154048119Y-66953842D01*
X154031247Y-66869021D01*
X154022365Y-66847577D01*
X153970907Y-66723345D01*
X153970900Y-66723332D01*
X153883299Y-66592229D01*
X153883296Y-66592225D01*
X153771802Y-66480731D01*
X153771798Y-66480728D01*
X153640695Y-66393127D01*
X153640682Y-66393120D01*
X153495011Y-66332782D01*
X153494999Y-66332779D01*
X153340355Y-66302018D01*
X153340352Y-66302018D01*
X153182668Y-66302018D01*
X153182665Y-66302018D01*
X153028020Y-66332779D01*
X153028008Y-66332782D01*
X152882337Y-66393120D01*
X152882324Y-66393127D01*
X152751221Y-66480728D01*
X152751217Y-66480731D01*
X152639723Y-66592225D01*
X152639720Y-66592229D01*
X152552119Y-66723332D01*
X152552116Y-66723338D01*
X152517317Y-66807350D01*
X152490437Y-66847577D01*
X146732034Y-72605982D01*
X146043480Y-73294536D01*
X145702093Y-73635922D01*
X145702092Y-73635923D01*
X145499835Y-73838181D01*
X145438512Y-73871666D01*
X145412154Y-73874500D01*
X137828543Y-73874500D01*
X137688385Y-73902379D01*
X137688379Y-73902381D01*
X137556348Y-73957070D01*
X137437517Y-74036469D01*
X137437516Y-74036470D01*
X135635807Y-75838181D01*
X135574484Y-75871666D01*
X135548126Y-75874500D01*
X131176874Y-75874500D01*
X131109835Y-75854815D01*
X131089193Y-75838181D01*
X130296071Y-75045059D01*
X130269191Y-75004830D01*
X130234396Y-74920827D01*
X130234394Y-74920821D01*
X130234392Y-74920819D01*
X130234392Y-74920817D01*
X130146789Y-74789711D01*
X130146786Y-74789707D01*
X130035292Y-74678213D01*
X130035288Y-74678210D01*
X129904185Y-74590609D01*
X129904172Y-74590602D01*
X129758501Y-74530264D01*
X129758489Y-74530261D01*
X129603845Y-74499500D01*
X129603842Y-74499500D01*
X129446158Y-74499500D01*
X129446155Y-74499500D01*
X129291510Y-74530261D01*
X129291498Y-74530264D01*
X129145827Y-74590602D01*
X129145814Y-74590609D01*
X129014711Y-74678210D01*
X129014707Y-74678213D01*
X128903213Y-74789707D01*
X128903210Y-74789711D01*
X128815609Y-74920814D01*
X128815602Y-74920827D01*
X128755264Y-75066498D01*
X128755261Y-75066510D01*
X128724500Y-75221153D01*
X112325500Y-75221153D01*
X112325500Y-70424234D01*
X116762500Y-70424234D01*
X116762500Y-70575765D01*
X116801719Y-70722136D01*
X116839602Y-70787750D01*
X116877485Y-70853365D01*
X116984635Y-70960515D01*
X117115865Y-71036281D01*
X117262234Y-71075500D01*
X117262236Y-71075500D01*
X117413764Y-71075500D01*
X117413766Y-71075500D01*
X117560135Y-71036281D01*
X117691365Y-70960515D01*
X117798515Y-70853365D01*
X117874281Y-70722135D01*
X117913500Y-70575766D01*
X117913500Y-70424234D01*
X117874281Y-70277865D01*
X117798515Y-70146635D01*
X117691365Y-70039485D01*
X117625750Y-70001602D01*
X117560136Y-69963719D01*
X117486950Y-69944109D01*
X117413766Y-69924500D01*
X117262234Y-69924500D01*
X117115863Y-69963719D01*
X116984635Y-70039485D01*
X116984632Y-70039487D01*
X116877487Y-70146632D01*
X116877485Y-70146635D01*
X116801719Y-70277863D01*
X116762500Y-70424234D01*
X112325500Y-70424234D01*
X112325500Y-67671153D01*
X119174500Y-67671153D01*
X119174500Y-67828846D01*
X119205261Y-67983489D01*
X119205264Y-67983501D01*
X119265602Y-68129172D01*
X119265609Y-68129185D01*
X119353210Y-68260288D01*
X119353213Y-68260292D01*
X119464707Y-68371786D01*
X119464711Y-68371789D01*
X119595814Y-68459390D01*
X119595827Y-68459397D01*
X119741498Y-68519735D01*
X119741503Y-68519737D01*
X119896153Y-68550499D01*
X119896156Y-68550500D01*
X119896158Y-68550500D01*
X120053844Y-68550500D01*
X120053845Y-68550499D01*
X120075694Y-68546153D01*
X128424500Y-68546153D01*
X128424500Y-68703846D01*
X128455261Y-68858489D01*
X128455264Y-68858501D01*
X128515602Y-69004172D01*
X128515609Y-69004185D01*
X128603210Y-69135288D01*
X128603213Y-69135292D01*
X128714707Y-69246786D01*
X128714711Y-69246789D01*
X128845814Y-69334390D01*
X128845827Y-69334397D01*
X128991498Y-69394735D01*
X128991503Y-69394737D01*
X129056147Y-69407595D01*
X129146849Y-69425638D01*
X129208760Y-69458023D01*
X129210339Y-69459574D01*
X129390139Y-69639374D01*
X129390149Y-69639385D01*
X129394479Y-69643715D01*
X129394480Y-69643716D01*
X129506284Y-69755520D01*
X129557847Y-69785289D01*
X129593095Y-69805639D01*
X129593097Y-69805641D01*
X129631151Y-69827611D01*
X129643215Y-69834577D01*
X129795943Y-69875501D01*
X129795946Y-69875501D01*
X129961653Y-69875501D01*
X129961669Y-69875500D01*
X145070234Y-69875500D01*
X145137273Y-69895185D01*
X145139125Y-69896398D01*
X145270814Y-69984390D01*
X145270827Y-69984397D01*
X145378138Y-70028846D01*
X145416503Y-70044737D01*
X145571078Y-70075484D01*
X145571153Y-70075499D01*
X145571156Y-70075500D01*
X145571158Y-70075500D01*
X145728831Y-70075500D01*
X145728842Y-70075500D01*
X145728852Y-70075497D01*
X145728993Y-70075484D01*
X145729077Y-70075500D01*
X145734934Y-70075500D01*
X145734934Y-70076610D01*
X145797641Y-70088496D01*
X145848356Y-70136555D01*
X145865038Y-70204404D01*
X145842390Y-70270501D01*
X145828842Y-70286567D01*
X145277229Y-70838181D01*
X145215906Y-70871666D01*
X145189548Y-70874500D01*
X143938389Y-70874500D01*
X143887535Y-70884615D01*
X143887530Y-70884616D01*
X143877971Y-70886518D01*
X143817548Y-70898537D01*
X143770397Y-70918067D01*
X143703715Y-70945688D01*
X143703714Y-70945689D01*
X143681347Y-70960633D01*
X143681344Y-70960635D01*
X143601268Y-71014140D01*
X143579129Y-71036280D01*
X143514142Y-71101267D01*
X143179846Y-71435562D01*
X143179841Y-71435568D01*
X143173948Y-71444389D01*
X143120337Y-71489195D01*
X143070845Y-71499500D01*
X142921155Y-71499500D01*
X142766510Y-71530261D01*
X142766498Y-71530264D01*
X142620827Y-71590602D01*
X142620814Y-71590609D01*
X142489711Y-71678210D01*
X142489707Y-71678213D01*
X142378213Y-71789707D01*
X142378210Y-71789711D01*
X142290609Y-71920814D01*
X142290602Y-71920827D01*
X142230264Y-72066498D01*
X142230261Y-72066510D01*
X142199500Y-72221153D01*
X142199500Y-72378846D01*
X142230261Y-72533489D01*
X142230264Y-72533501D01*
X142290602Y-72679172D01*
X142290609Y-72679185D01*
X142378210Y-72810288D01*
X142378213Y-72810292D01*
X142489707Y-72921786D01*
X142489711Y-72921789D01*
X142620814Y-73009390D01*
X142620827Y-73009397D01*
X142766498Y-73069735D01*
X142766503Y-73069737D01*
X142921153Y-73100499D01*
X142921156Y-73100500D01*
X142921158Y-73100500D01*
X143078844Y-73100500D01*
X143078845Y-73100499D01*
X143233497Y-73069737D01*
X143379179Y-73009394D01*
X143473459Y-72946398D01*
X143487715Y-72941400D01*
X143497414Y-72933929D01*
X143522404Y-72929241D01*
X143531794Y-72925950D01*
X143537061Y-72925500D01*
X143626309Y-72925500D01*
X143686731Y-72913481D01*
X143747154Y-72901463D01*
X143747157Y-72901461D01*
X143747160Y-72901461D01*
X143780489Y-72887654D01*
X143780488Y-72887654D01*
X143780494Y-72887652D01*
X143860988Y-72854312D01*
X143926871Y-72810289D01*
X143963435Y-72785858D01*
X144050560Y-72698733D01*
X144050560Y-72698732D01*
X144050561Y-72698732D01*
X144101060Y-72648232D01*
X144151560Y-72597733D01*
X144220014Y-72495285D01*
X144267165Y-72381451D01*
X144291203Y-72260606D01*
X144291203Y-72249500D01*
X144310888Y-72182461D01*
X144363692Y-72136706D01*
X144415203Y-72125500D01*
X145561608Y-72125500D01*
X145561608Y-72125499D01*
X145638245Y-72110256D01*
X145682452Y-72101463D01*
X145715792Y-72087652D01*
X145796286Y-72054312D01*
X145852802Y-72016548D01*
X145898733Y-71985858D01*
X145985858Y-71898733D01*
X145985858Y-71898731D01*
X145996066Y-71888524D01*
X145996067Y-71888521D01*
X153722772Y-64161819D01*
X153784095Y-64128334D01*
X153810453Y-64125500D01*
X156689548Y-64125500D01*
X156718988Y-64134144D01*
X156748975Y-64140668D01*
X156753990Y-64144422D01*
X156756587Y-64145185D01*
X156777229Y-64161819D01*
X156838181Y-64222771D01*
X156871666Y-64284094D01*
X156874500Y-64310452D01*
X156874500Y-69061610D01*
X156898535Y-69182444D01*
X156898537Y-69182452D01*
X156912347Y-69215792D01*
X156945688Y-69296286D01*
X156971152Y-69334394D01*
X156975428Y-69340794D01*
X156975431Y-69340799D01*
X157014141Y-69398732D01*
X157014144Y-69398736D01*
X157105586Y-69490178D01*
X157105608Y-69490198D01*
X157961016Y-70345606D01*
X157961045Y-70345637D01*
X158051264Y-70435856D01*
X158087829Y-70460288D01*
X158087831Y-70460289D01*
X158153715Y-70504312D01*
X158207198Y-70526465D01*
X158267548Y-70551463D01*
X158327971Y-70563481D01*
X158388393Y-70575500D01*
X158388394Y-70575500D01*
X161557650Y-70575500D01*
X161624689Y-70595185D01*
X161626541Y-70596398D01*
X161720821Y-70659394D01*
X161720823Y-70659395D01*
X161720827Y-70659397D01*
X161866498Y-70719735D01*
X161866503Y-70719737D01*
X162021153Y-70750499D01*
X162021156Y-70750500D01*
X162021158Y-70750500D01*
X162178844Y-70750500D01*
X162178845Y-70750499D01*
X162333497Y-70719737D01*
X162479179Y-70659394D01*
X162610289Y-70571789D01*
X162721789Y-70460289D01*
X162809394Y-70329179D01*
X162869737Y-70183497D01*
X162900500Y-70028842D01*
X162900500Y-69871158D01*
X162900500Y-69871155D01*
X162900499Y-69871153D01*
X162869737Y-69716503D01*
X162837794Y-69639385D01*
X162809397Y-69570827D01*
X162809390Y-69570814D01*
X162721789Y-69439711D01*
X162721786Y-69439707D01*
X162610292Y-69328213D01*
X162610288Y-69328210D01*
X162479185Y-69240609D01*
X162479172Y-69240602D01*
X162333501Y-69180264D01*
X162333489Y-69180261D01*
X162178845Y-69149500D01*
X162178842Y-69149500D01*
X162021158Y-69149500D01*
X162021155Y-69149500D01*
X161866510Y-69180261D01*
X161866498Y-69180264D01*
X161720827Y-69240602D01*
X161720815Y-69240609D01*
X161626541Y-69303602D01*
X161559864Y-69324480D01*
X161557650Y-69324500D01*
X158760452Y-69324500D01*
X158693413Y-69304815D01*
X158672771Y-69288181D01*
X158161819Y-68777229D01*
X158128334Y-68715906D01*
X158125500Y-68689548D01*
X158125500Y-65063713D01*
X188149500Y-65063713D01*
X188149500Y-65276286D01*
X188182753Y-65486239D01*
X188248444Y-65688414D01*
X188344951Y-65877820D01*
X188469890Y-66049786D01*
X188620213Y-66200109D01*
X188792182Y-66325050D01*
X188800946Y-66329516D01*
X188851742Y-66377491D01*
X188868536Y-66445312D01*
X188845998Y-66511447D01*
X188800946Y-66550484D01*
X188792182Y-66554949D01*
X188620213Y-66679890D01*
X188469890Y-66830213D01*
X188344951Y-67002179D01*
X188248444Y-67191585D01*
X188182753Y-67393760D01*
X188149500Y-67603713D01*
X188149500Y-67816286D01*
X188175983Y-67983497D01*
X188182754Y-68026243D01*
X188229940Y-68171467D01*
X188248444Y-68228414D01*
X188344951Y-68417820D01*
X188469890Y-68589786D01*
X188620213Y-68740109D01*
X188792179Y-68865048D01*
X188792181Y-68865049D01*
X188792184Y-68865051D01*
X188981588Y-68961557D01*
X189183757Y-69027246D01*
X189393713Y-69060500D01*
X189393714Y-69060500D01*
X189606286Y-69060500D01*
X189606287Y-69060500D01*
X189816243Y-69027246D01*
X190018412Y-68961557D01*
X190207816Y-68865051D01*
X190229789Y-68849086D01*
X190379786Y-68740109D01*
X190379788Y-68740106D01*
X190379792Y-68740104D01*
X190530104Y-68589792D01*
X190530106Y-68589788D01*
X190530109Y-68589786D01*
X190655048Y-68417820D01*
X190655047Y-68417820D01*
X190655051Y-68417816D01*
X190751557Y-68228412D01*
X190817246Y-68026243D01*
X190850500Y-67816287D01*
X190850500Y-67603713D01*
X190817246Y-67393757D01*
X190751557Y-67191588D01*
X190655051Y-67002184D01*
X190655049Y-67002181D01*
X190655048Y-67002179D01*
X190530109Y-66830213D01*
X190379786Y-66679890D01*
X190207820Y-66554951D01*
X190207115Y-66554591D01*
X190199054Y-66550485D01*
X190148259Y-66502512D01*
X190131463Y-66434692D01*
X190153999Y-66368556D01*
X190199054Y-66329515D01*
X190207816Y-66325051D01*
X190239518Y-66302018D01*
X190379786Y-66200109D01*
X190379788Y-66200106D01*
X190379792Y-66200104D01*
X190530104Y-66049792D01*
X190530106Y-66049788D01*
X190530109Y-66049786D01*
X190655048Y-65877820D01*
X190655047Y-65877820D01*
X190655051Y-65877816D01*
X190751557Y-65688412D01*
X190817246Y-65486243D01*
X190850500Y-65276287D01*
X190850500Y-65063713D01*
X190817246Y-64853757D01*
X190751557Y-64651588D01*
X190655051Y-64462184D01*
X190655049Y-64462181D01*
X190655048Y-64462179D01*
X190530109Y-64290213D01*
X190379786Y-64139890D01*
X190207820Y-64014951D01*
X190018414Y-63918444D01*
X190018413Y-63918443D01*
X190018412Y-63918443D01*
X189816243Y-63852754D01*
X189816241Y-63852753D01*
X189816240Y-63852753D01*
X189654957Y-63827208D01*
X189606287Y-63819500D01*
X189393713Y-63819500D01*
X189345042Y-63827208D01*
X189183760Y-63852753D01*
X188981585Y-63918444D01*
X188792179Y-64014951D01*
X188620213Y-64139890D01*
X188469890Y-64290213D01*
X188344951Y-64462179D01*
X188248444Y-64651585D01*
X188182753Y-64853760D01*
X188149500Y-65063713D01*
X158125500Y-65063713D01*
X158125500Y-63938389D01*
X158122737Y-63924502D01*
X158122736Y-63924497D01*
X158101464Y-63817556D01*
X158101463Y-63817549D01*
X158054312Y-63703715D01*
X158037256Y-63678190D01*
X157985858Y-63601267D01*
X157898733Y-63514142D01*
X157898729Y-63514139D01*
X157490198Y-63105608D01*
X157490178Y-63105586D01*
X157398733Y-63014141D01*
X157353325Y-62983801D01*
X157353324Y-62983800D01*
X157347509Y-62979915D01*
X157296286Y-62945688D01*
X157215792Y-62912347D01*
X157200457Y-62905995D01*
X157182453Y-62898537D01*
X157172427Y-62896543D01*
X157122029Y-62886518D01*
X157061610Y-62874500D01*
X157061607Y-62874500D01*
X157061606Y-62874500D01*
X153561606Y-62874500D01*
X153438393Y-62874500D01*
X153438388Y-62874500D01*
X153317555Y-62898535D01*
X153317547Y-62898537D01*
X153203716Y-62945687D01*
X153101265Y-63014142D01*
X153101262Y-63014145D01*
X147041154Y-69074255D01*
X146979831Y-69107740D01*
X146910139Y-69102756D01*
X146854206Y-69060884D01*
X146829789Y-68995420D01*
X146844641Y-68927147D01*
X146850372Y-68917681D01*
X146859394Y-68904179D01*
X146919737Y-68758497D01*
X146950500Y-68603842D01*
X146950500Y-68446158D01*
X146950500Y-68446155D01*
X146950499Y-68446153D01*
X146919738Y-68291510D01*
X146919737Y-68291503D01*
X146906808Y-68260289D01*
X146859397Y-68145827D01*
X146859390Y-68145814D01*
X146771789Y-68014711D01*
X146771786Y-68014707D01*
X146660292Y-67903213D01*
X146660288Y-67903210D01*
X146529185Y-67815609D01*
X146529172Y-67815602D01*
X146383501Y-67755264D01*
X146383489Y-67755261D01*
X146228845Y-67724500D01*
X146228842Y-67724500D01*
X146071158Y-67724500D01*
X146071155Y-67724500D01*
X145916510Y-67755261D01*
X145916498Y-67755264D01*
X145770827Y-67815602D01*
X145770814Y-67815609D01*
X145639125Y-67903602D01*
X145572447Y-67924480D01*
X145570234Y-67924500D01*
X136175097Y-67924500D01*
X136108058Y-67904815D01*
X136087416Y-67888181D01*
X134897074Y-66697839D01*
X134863589Y-66636516D01*
X134863138Y-66634349D01*
X134845095Y-66543647D01*
X134832237Y-66479003D01*
X134813883Y-66434692D01*
X134771897Y-66333327D01*
X134771890Y-66333314D01*
X134684289Y-66202211D01*
X134684286Y-66202207D01*
X134572792Y-66090713D01*
X134572788Y-66090710D01*
X134441685Y-66003109D01*
X134441672Y-66003102D01*
X134296001Y-65942764D01*
X134295989Y-65942761D01*
X134141345Y-65912000D01*
X134141342Y-65912000D01*
X133983658Y-65912000D01*
X133983655Y-65912000D01*
X133829010Y-65942761D01*
X133828998Y-65942764D01*
X133683327Y-66003102D01*
X133683314Y-66003109D01*
X133552211Y-66090710D01*
X133552207Y-66090713D01*
X133440713Y-66202207D01*
X133440710Y-66202211D01*
X133353109Y-66333314D01*
X133353102Y-66333327D01*
X133292764Y-66478998D01*
X133292761Y-66479010D01*
X133262000Y-66633653D01*
X133262000Y-66791346D01*
X133292761Y-66945989D01*
X133292763Y-66945997D01*
X133353102Y-67091672D01*
X133353109Y-67091685D01*
X133440710Y-67222788D01*
X133440713Y-67222792D01*
X133552207Y-67334286D01*
X133552211Y-67334289D01*
X133683314Y-67421890D01*
X133683327Y-67421897D01*
X133827682Y-67481690D01*
X133829003Y-67482237D01*
X133893647Y-67495095D01*
X133984349Y-67513138D01*
X134046260Y-67545523D01*
X134047839Y-67547074D01*
X134963584Y-68462819D01*
X134997069Y-68524142D01*
X134992085Y-68593834D01*
X134950213Y-68649767D01*
X134884749Y-68674184D01*
X134875903Y-68674500D01*
X130175097Y-68674500D01*
X130145656Y-68665855D01*
X130115670Y-68659332D01*
X130110654Y-68655577D01*
X130108058Y-68654815D01*
X130087416Y-68638181D01*
X130059574Y-68610339D01*
X130026089Y-68549016D01*
X130025638Y-68546849D01*
X129994738Y-68391510D01*
X129994737Y-68391503D01*
X129940389Y-68260294D01*
X129934397Y-68245827D01*
X129934390Y-68245814D01*
X129846789Y-68114711D01*
X129846786Y-68114707D01*
X129735292Y-68003213D01*
X129735288Y-68003210D01*
X129604185Y-67915609D01*
X129604172Y-67915602D01*
X129458501Y-67855264D01*
X129458489Y-67855261D01*
X129303845Y-67824500D01*
X129303842Y-67824500D01*
X129146158Y-67824500D01*
X129146155Y-67824500D01*
X128991510Y-67855261D01*
X128991498Y-67855264D01*
X128845827Y-67915602D01*
X128845814Y-67915609D01*
X128714711Y-68003210D01*
X128714707Y-68003213D01*
X128603213Y-68114707D01*
X128603210Y-68114711D01*
X128515609Y-68245814D01*
X128515602Y-68245827D01*
X128455264Y-68391498D01*
X128455261Y-68391510D01*
X128424500Y-68546153D01*
X120075694Y-68546153D01*
X120208497Y-68519737D01*
X120354179Y-68459394D01*
X120354185Y-68459390D01*
X120387749Y-68436964D01*
X120455792Y-68391498D01*
X120485289Y-68371789D01*
X120596789Y-68260289D01*
X120618088Y-68228412D01*
X120656138Y-68171467D01*
X120671557Y-68152678D01*
X120678421Y-68145814D01*
X120705520Y-68118716D01*
X120705521Y-68118713D01*
X121458506Y-67365728D01*
X121458511Y-67365724D01*
X121468714Y-67355520D01*
X121468716Y-67355520D01*
X121580520Y-67243716D01*
X121634915Y-67149500D01*
X121659577Y-67106785D01*
X121700501Y-66954057D01*
X121700501Y-66795943D01*
X121700501Y-66788348D01*
X121700500Y-66788330D01*
X121700500Y-61762597D01*
X121720185Y-61695558D01*
X121736819Y-61674916D01*
X122080520Y-61331216D01*
X122159577Y-61194284D01*
X122200501Y-61041557D01*
X122200501Y-60883442D01*
X122200501Y-60875847D01*
X122200500Y-60875829D01*
X122200500Y-60854765D01*
X122220185Y-60787726D01*
X122221398Y-60785874D01*
X122309390Y-60654185D01*
X122309390Y-60654184D01*
X122309394Y-60654179D01*
X122369737Y-60508497D01*
X122400500Y-60353842D01*
X122400500Y-60196158D01*
X122400500Y-60196155D01*
X122400499Y-60196153D01*
X122369737Y-60041503D01*
X122344557Y-59980713D01*
X122309397Y-59895827D01*
X122309390Y-59895814D01*
X122221789Y-59764711D01*
X122221786Y-59764707D01*
X122110292Y-59653213D01*
X122110288Y-59653210D01*
X121979185Y-59565609D01*
X121979169Y-59565601D01*
X121977038Y-59564718D01*
X121976094Y-59563957D01*
X121973809Y-59562736D01*
X121974040Y-59562302D01*
X121922638Y-59520873D01*
X121900579Y-59454577D01*
X121900500Y-59450161D01*
X121900500Y-59153017D01*
X121920185Y-59085978D01*
X121955612Y-59049913D01*
X121960289Y-59046789D01*
X122071789Y-58935289D01*
X122159394Y-58804179D01*
X122219737Y-58658497D01*
X122250500Y-58503842D01*
X122250500Y-58346158D01*
X122250500Y-58346155D01*
X122250499Y-58346153D01*
X122219737Y-58191503D01*
X122219735Y-58191498D01*
X122159397Y-58045827D01*
X122159390Y-58045814D01*
X122071789Y-57914711D01*
X122071786Y-57914707D01*
X121960292Y-57803213D01*
X121960288Y-57803210D01*
X121829185Y-57715609D01*
X121829172Y-57715602D01*
X121683501Y-57655264D01*
X121683489Y-57655261D01*
X121528845Y-57624500D01*
X121528842Y-57624500D01*
X121371158Y-57624500D01*
X121371155Y-57624500D01*
X121216510Y-57655261D01*
X121216498Y-57655264D01*
X121070827Y-57715602D01*
X121070814Y-57715609D01*
X120939711Y-57803210D01*
X120939707Y-57803213D01*
X120828213Y-57914707D01*
X120828210Y-57914711D01*
X120740609Y-58045814D01*
X120740602Y-58045827D01*
X120680264Y-58191498D01*
X120680261Y-58191510D01*
X120649500Y-58346153D01*
X120649500Y-58503846D01*
X120680261Y-58658489D01*
X120680263Y-58658497D01*
X120690061Y-58682151D01*
X120699500Y-58729604D01*
X120699500Y-59162402D01*
X120679815Y-59229441D01*
X120663181Y-59250083D01*
X120183210Y-59730053D01*
X120183199Y-59730064D01*
X120181286Y-59731978D01*
X120181284Y-59731980D01*
X120069480Y-59843784D01*
X120059927Y-59860331D01*
X119990423Y-59980715D01*
X119949499Y-60133443D01*
X119949499Y-60133445D01*
X119949499Y-60301546D01*
X119949500Y-60301559D01*
X119949500Y-65982016D01*
X119929815Y-66049055D01*
X119877011Y-66094810D01*
X119849696Y-66103632D01*
X119841512Y-66105260D01*
X119841500Y-66105263D01*
X119695827Y-66165602D01*
X119695814Y-66165609D01*
X119564711Y-66253210D01*
X119564707Y-66253213D01*
X119453213Y-66364707D01*
X119453210Y-66364711D01*
X119365609Y-66495814D01*
X119365602Y-66495827D01*
X119305264Y-66641498D01*
X119305261Y-66641510D01*
X119274500Y-66796153D01*
X119274500Y-66953846D01*
X119305261Y-67108489D01*
X119305263Y-67108497D01*
X119331799Y-67172560D01*
X119339268Y-67242030D01*
X119320341Y-67288903D01*
X119265608Y-67370816D01*
X119265602Y-67370827D01*
X119205264Y-67516498D01*
X119205261Y-67516510D01*
X119174500Y-67671153D01*
X112325500Y-67671153D01*
X112325500Y-64424234D01*
X116762500Y-64424234D01*
X116762500Y-64575765D01*
X116801719Y-64722136D01*
X116839602Y-64787750D01*
X116877485Y-64853365D01*
X116984635Y-64960515D01*
X117115865Y-65036281D01*
X117262234Y-65075500D01*
X117262236Y-65075500D01*
X117413764Y-65075500D01*
X117413766Y-65075500D01*
X117560135Y-65036281D01*
X117691365Y-64960515D01*
X117798515Y-64853365D01*
X117874281Y-64722135D01*
X117913500Y-64575766D01*
X117913500Y-64424234D01*
X117874281Y-64277865D01*
X117798515Y-64146635D01*
X117691365Y-64039485D01*
X117625750Y-64001602D01*
X117560136Y-63963719D01*
X117486950Y-63944109D01*
X117413766Y-63924500D01*
X117262234Y-63924500D01*
X117115863Y-63963719D01*
X116984635Y-64039485D01*
X116984632Y-64039487D01*
X116877487Y-64146632D01*
X116877485Y-64146635D01*
X116801719Y-64277863D01*
X116762500Y-64424234D01*
X112325500Y-64424234D01*
X112325500Y-57413098D01*
X112325706Y-57411741D01*
X112325517Y-57411054D01*
X112328303Y-57393713D01*
X139154500Y-57393713D01*
X139154500Y-57606286D01*
X139185689Y-57803210D01*
X139187754Y-57816243D01*
X139219748Y-57914711D01*
X139253444Y-58018414D01*
X139349951Y-58207820D01*
X139474890Y-58379786D01*
X139625213Y-58530109D01*
X139797179Y-58655048D01*
X139797181Y-58655049D01*
X139797184Y-58655051D01*
X139986588Y-58751557D01*
X140188757Y-58817246D01*
X140398713Y-58850500D01*
X140398714Y-58850500D01*
X140611286Y-58850500D01*
X140611287Y-58850500D01*
X140821243Y-58817246D01*
X141023412Y-58751557D01*
X141212816Y-58655051D01*
X141234789Y-58639086D01*
X141384786Y-58530109D01*
X141384788Y-58530106D01*
X141384792Y-58530104D01*
X141535104Y-58379792D01*
X141535106Y-58379788D01*
X141535109Y-58379786D01*
X141660048Y-58207820D01*
X141660047Y-58207820D01*
X141660051Y-58207816D01*
X141664514Y-58199054D01*
X141712488Y-58148259D01*
X141780308Y-58131463D01*
X141846444Y-58153999D01*
X141885486Y-58199056D01*
X141889951Y-58207820D01*
X142014890Y-58379786D01*
X142165213Y-58530109D01*
X142337179Y-58655048D01*
X142337181Y-58655049D01*
X142337184Y-58655051D01*
X142526588Y-58751557D01*
X142728757Y-58817246D01*
X142938713Y-58850500D01*
X142938714Y-58850500D01*
X143151286Y-58850500D01*
X143151287Y-58850500D01*
X143361243Y-58817246D01*
X143563412Y-58751557D01*
X143752816Y-58655051D01*
X143774789Y-58639086D01*
X143924786Y-58530109D01*
X143924788Y-58530106D01*
X143924792Y-58530104D01*
X144075104Y-58379792D01*
X144075106Y-58379788D01*
X144075109Y-58379786D01*
X144200048Y-58207820D01*
X144200047Y-58207820D01*
X144200051Y-58207816D01*
X144204514Y-58199054D01*
X144252488Y-58148259D01*
X144320308Y-58131463D01*
X144386444Y-58153999D01*
X144425486Y-58199056D01*
X144429951Y-58207820D01*
X144554890Y-58379786D01*
X144705213Y-58530109D01*
X144877179Y-58655048D01*
X144877181Y-58655049D01*
X144877184Y-58655051D01*
X145066588Y-58751557D01*
X145268757Y-58817246D01*
X145478713Y-58850500D01*
X145478714Y-58850500D01*
X145691286Y-58850500D01*
X145691287Y-58850500D01*
X145901243Y-58817246D01*
X146103412Y-58751557D01*
X146292816Y-58655051D01*
X146314789Y-58639086D01*
X146464786Y-58530109D01*
X146464788Y-58530106D01*
X146464792Y-58530104D01*
X146615104Y-58379792D01*
X146615106Y-58379788D01*
X146615109Y-58379786D01*
X146740048Y-58207820D01*
X146740047Y-58207820D01*
X146740051Y-58207816D01*
X146836557Y-58018412D01*
X146902246Y-57816243D01*
X146935500Y-57606287D01*
X146935500Y-57393713D01*
X146902246Y-57183757D01*
X146836557Y-56981588D01*
X146740051Y-56792184D01*
X146740049Y-56792181D01*
X146740048Y-56792179D01*
X146615109Y-56620213D01*
X146464786Y-56469890D01*
X146292820Y-56344951D01*
X146103414Y-56248444D01*
X146103413Y-56248443D01*
X146103412Y-56248443D01*
X145901243Y-56182754D01*
X145901241Y-56182753D01*
X145901240Y-56182753D01*
X145739957Y-56157208D01*
X145691287Y-56149500D01*
X145478713Y-56149500D01*
X145430042Y-56157208D01*
X145268760Y-56182753D01*
X145066585Y-56248444D01*
X144877179Y-56344951D01*
X144705213Y-56469890D01*
X144554890Y-56620213D01*
X144429949Y-56792182D01*
X144425484Y-56800946D01*
X144377509Y-56851742D01*
X144309688Y-56868536D01*
X144243553Y-56845998D01*
X144204516Y-56800946D01*
X144200050Y-56792182D01*
X144075109Y-56620213D01*
X143924786Y-56469890D01*
X143752820Y-56344951D01*
X143563414Y-56248444D01*
X143563413Y-56248443D01*
X143563412Y-56248443D01*
X143361243Y-56182754D01*
X143361241Y-56182753D01*
X143361240Y-56182753D01*
X143199957Y-56157208D01*
X143151287Y-56149500D01*
X142938713Y-56149500D01*
X142890042Y-56157208D01*
X142728760Y-56182753D01*
X142526585Y-56248444D01*
X142337179Y-56344951D01*
X142165213Y-56469890D01*
X142014890Y-56620213D01*
X141889949Y-56792182D01*
X141885484Y-56800946D01*
X141837509Y-56851742D01*
X141769688Y-56868536D01*
X141703553Y-56845998D01*
X141664516Y-56800946D01*
X141660050Y-56792182D01*
X141535109Y-56620213D01*
X141384786Y-56469890D01*
X141212820Y-56344951D01*
X141023414Y-56248444D01*
X141023413Y-56248443D01*
X141023412Y-56248443D01*
X140821243Y-56182754D01*
X140821241Y-56182753D01*
X140821240Y-56182753D01*
X140659957Y-56157208D01*
X140611287Y-56149500D01*
X140398713Y-56149500D01*
X140350042Y-56157208D01*
X140188760Y-56182753D01*
X139986585Y-56248444D01*
X139797179Y-56344951D01*
X139625213Y-56469890D01*
X139474890Y-56620213D01*
X139349951Y-56792179D01*
X139253444Y-56981585D01*
X139187753Y-57183760D01*
X139154500Y-57393713D01*
X112328303Y-57393713D01*
X112331115Y-57376207D01*
X112338674Y-57351950D01*
X112338674Y-57351949D01*
X112410694Y-57120832D01*
X112410695Y-57120825D01*
X112415999Y-57106837D01*
X112533731Y-56845249D01*
X112540676Y-56832016D01*
X112689080Y-56586526D01*
X112697567Y-56574230D01*
X112874480Y-56348417D01*
X112884395Y-56337226D01*
X113087226Y-56134395D01*
X113098417Y-56124480D01*
X113324230Y-55947567D01*
X113336526Y-55939080D01*
X113582016Y-55790676D01*
X113595249Y-55783731D01*
X113856841Y-55665998D01*
X113870822Y-55660696D01*
X114144668Y-55575362D01*
X114159202Y-55571780D01*
X114264241Y-55552531D01*
X114286592Y-55550500D01*
X189213408Y-55550500D01*
X189235760Y-55552531D01*
G37*
%TD.AperFunction*%
%TD*%
M02*
