M48
; DRILL file {KiCad 9.0.7} date 2026-02-18T00:38:35-0500
; FORMAT={-:-/ absolute / metric / decimal}
; #@! TF.CreationDate,2026-02-18T00:38:35-05:00
; #@! TF.GenerationSoftware,Kicad,Pcbnew,9.0.7
; #@! TF.FileFunction,Plated,1,2,PTH
FMAT,2
METRIC
; #@! TA.AperFunction,Plated,PTH,ViaDrill
T1C0.300
; #@! TA.AperFunction,Plated,PTH,ComponentDrill
T2C1.000
; #@! TA.AperFunction,Plated,PTH,ComponentDrill
T3C2.500
%
G90
G05
T1
X114.05Y-61.0
X114.05Y-73.725
X117.975Y-60.925
X118.0Y-73.775
X118.012Y-76.375
X118.031Y-77.1
X118.031Y-77.825
X118.031Y-78.65
X118.781Y-76.375
X118.8Y-77.1
X118.8Y-77.825
X118.8Y-78.65
X119.5Y-63.75
X119.55Y-76.375
X119.569Y-77.1
X119.569Y-77.825
X119.569Y-78.65
X119.65Y-71.475
X119.975Y-67.75
X120.075Y-66.875
X120.319Y-76.375
X120.337Y-77.1
X120.337Y-77.825
X120.337Y-78.65
X121.025Y-68.95
X121.087Y-76.375
X121.106Y-77.1
X121.106Y-77.825
X121.106Y-78.65
X121.45Y-58.425
X121.6Y-60.275
X121.856Y-76.375
X121.875Y-77.1
X121.875Y-77.825
X121.875Y-78.65
X122.625Y-76.375
X122.644Y-77.1
X122.644Y-77.825
X122.644Y-78.65
X123.2Y-56.7
X123.394Y-76.375
X123.4Y-61.925
X123.412Y-77.1
X123.412Y-77.825
X123.412Y-78.65
X124.162Y-76.375
X124.181Y-77.1
X124.181Y-77.825
X124.181Y-78.65
X125.312Y-66.562
X127.275Y-75.175
X129.225Y-68.625
X129.525Y-75.3
X130.15Y-56.75
X130.169Y-57.475
X130.169Y-58.2
X130.169Y-59.025
X130.919Y-56.75
X130.938Y-57.475
X130.938Y-58.2
X130.938Y-59.025
X131.688Y-56.75
X131.706Y-57.475
X131.706Y-58.2
X131.706Y-59.025
X132.456Y-56.75
X132.475Y-57.475
X132.475Y-58.2
X132.475Y-59.025
X133.225Y-56.75
X133.244Y-57.475
X133.244Y-58.2
X133.244Y-59.025
X133.675Y-65.4
X133.994Y-56.75
X134.012Y-57.475
X134.012Y-58.2
X134.012Y-59.025
X134.025Y-74.975
X134.062Y-66.712
X138.431Y-59.819
X140.0Y-75.55
X140.725Y-76.25
X143.0Y-72.3
X143.925Y-72.825
X145.65Y-69.275
X146.15Y-68.525
X147.925Y-75.325
X148.4Y-73.8
X148.737Y-56.725
X148.756Y-57.45
X148.756Y-58.175
X148.756Y-59.0
X149.506Y-56.725
X149.525Y-57.45
X149.525Y-58.175
X149.525Y-59.0
X150.275Y-56.725
X150.294Y-57.45
X150.294Y-58.175
X150.294Y-59.0
X151.044Y-56.725
X151.062Y-57.45
X151.062Y-58.175
X151.062Y-59.0
X151.075Y-71.5
X151.812Y-56.725
X151.831Y-57.45
X151.831Y-58.175
X151.831Y-59.0
X151.844Y-71.5
X152.581Y-56.725
X152.6Y-57.45
X152.6Y-58.175
X152.6Y-59.0
X152.612Y-71.5
X153.262Y-67.103
X153.35Y-56.725
X153.369Y-57.45
X153.369Y-58.175
X153.369Y-59.0
X153.381Y-71.5
X154.119Y-56.725
X154.137Y-57.45
X154.137Y-58.175
X154.137Y-59.0
X154.15Y-71.5
X154.525Y-64.5
X154.887Y-56.725
X154.906Y-57.45
X154.906Y-58.175
X154.906Y-59.0
X154.919Y-71.5
X155.662Y-56.725
X155.681Y-57.45
X155.681Y-58.175
X155.681Y-59.0
X155.688Y-71.5
X156.275Y-64.5
X156.431Y-56.725
X156.45Y-57.45
X156.45Y-58.175
X156.45Y-59.0
X156.456Y-71.5
X157.2Y-56.725
X157.219Y-57.45
X157.219Y-58.175
X157.219Y-59.0
X157.225Y-71.5
X157.969Y-56.725
X157.987Y-57.45
X157.987Y-58.175
X157.987Y-59.0
X158.0Y-71.5
X158.737Y-56.725
X158.756Y-57.45
X158.756Y-58.175
X158.756Y-59.0
X158.769Y-71.5
X159.506Y-56.725
X159.525Y-57.45
X159.525Y-58.175
X159.525Y-59.0
X159.537Y-71.5
X160.275Y-56.725
X160.294Y-57.45
X160.294Y-58.175
X160.294Y-59.0
X160.306Y-71.5
X161.044Y-56.725
X161.062Y-57.45
X161.062Y-58.175
X161.062Y-59.0
X161.075Y-71.5
X161.812Y-56.725
X161.831Y-57.45
X161.831Y-58.175
X161.831Y-59.0
X161.844Y-71.5
X162.1Y-69.95
X162.612Y-71.5
X163.381Y-71.5
X164.025Y-59.5
X164.15Y-71.5
X164.935Y-71.505
X165.704Y-71.505
X166.331Y-56.725
X166.35Y-57.45
X166.35Y-58.175
X166.35Y-59.0
X166.472Y-71.505
X166.706Y-69.88
X167.1Y-56.725
X167.119Y-57.45
X167.119Y-58.175
X167.119Y-59.0
X167.241Y-71.505
X167.869Y-56.725
X167.887Y-57.45
X167.887Y-58.175
X167.887Y-59.0
X168.01Y-71.505
X168.637Y-56.725
X168.656Y-57.45
X168.656Y-58.175
X168.656Y-59.0
X168.779Y-71.505
X169.406Y-56.725
X169.425Y-57.45
X169.425Y-58.175
X169.425Y-59.0
X169.547Y-71.505
X170.175Y-56.725
X170.194Y-57.45
X170.194Y-58.175
X170.194Y-59.0
X170.316Y-71.505
X170.944Y-56.725
X170.963Y-57.45
X170.963Y-58.175
X170.963Y-59.0
X171.085Y-71.505
X171.713Y-56.725
X171.731Y-57.45
X171.731Y-58.175
X171.731Y-59.0
X171.86Y-71.505
X172.481Y-56.725
X172.5Y-57.45
X172.5Y-58.175
X172.5Y-59.0
X172.629Y-71.505
X173.397Y-71.505
X174.166Y-71.505
X174.935Y-71.505
X175.704Y-71.505
X176.472Y-71.505
X177.241Y-71.505
X178.01Y-71.505
X178.706Y-56.725
X178.725Y-57.45
X178.725Y-58.175
X178.725Y-59.0
X179.475Y-56.725
X179.494Y-57.45
X179.494Y-58.175
X179.494Y-59.0
X179.775Y-66.25
X180.244Y-56.725
X180.262Y-57.45
X180.262Y-58.175
X180.262Y-59.0
X181.012Y-56.725
X181.031Y-57.45
X181.031Y-58.175
X181.031Y-59.0
X181.781Y-56.725
X181.8Y-57.45
X181.8Y-58.175
X181.8Y-59.0
X182.55Y-56.725
X182.569Y-57.45
X182.569Y-58.175
X182.569Y-59.0
X183.319Y-56.725
X183.338Y-57.45
X183.338Y-58.175
X183.338Y-59.0
X184.088Y-56.725
X184.106Y-57.45
X184.106Y-58.175
X184.106Y-59.0
X184.381Y-76.0
X184.4Y-76.725
X184.4Y-77.45
X184.4Y-78.275
X184.856Y-56.725
X184.875Y-57.45
X184.875Y-58.175
X184.875Y-59.0
X185.15Y-76.0
X185.169Y-76.725
X185.169Y-77.45
X185.169Y-78.275
T2
X137.965Y-57.5
X140.505Y-57.5
X143.045Y-57.5
X145.585Y-57.5
X189.5Y-65.17
X189.5Y-67.71
X189.5Y-70.25
T3
X114.575Y-57.825
X114.575Y-77.175
X188.925Y-57.825
X188.925Y-77.175
M30
